<?xml version="1.0" encoding="UTF-8" standalone="no"?>
<!-- Created with Inkscape (http://www.inkscape.org/) -->

<svg
   xmlns:dc="http://purl.org/dc/elements/1.1/"
   xmlns:cc="http://creativecommons.org/ns#"
   xmlns:rdf="http://www.w3.org/1999/02/22-rdf-syntax-ns#"
   xmlns:svg="http://www.w3.org/2000/svg"
   xmlns="http://www.w3.org/2000/svg"
   xmlns:sodipodi="http://sodipodi.sourceforge.net/DTD/sodipodi-0.dtd"
   xmlns:inkscape="http://www.inkscape.org/namespaces/inkscape"
   id="svg3417"
   version="1.1"
   inkscape:version="0.48.3.1 r9886"
   width="744.09375"
   height="1052.3625"
   xml:space="preserve"
   sodipodi:docname="2012_OCHA_humanitarian_icon_editablepdf.pdf"><metadata
     id="metadata3423"><rdf:RDF><cc:Work
         rdf:about=""><dc:format>image/svg+xml</dc:format><dc:type
           rdf:resource="http://purl.org/dc/dcmitype/StillImage" /><dc:title></dc:title></cc:Work></rdf:RDF></metadata><defs
     id="defs3421"><clipPath
       clipPathUnits="userSpaceOnUse"
       id="clipPath3487"><path
         d="m 0,841.89 595.275,0 L 595.275,0 0,0 0,841.89 z"
         id="path3489" /></clipPath></defs><sodipodi:namedview
     pagecolor="#ffffff"
     bordercolor="#666666"
     borderopacity="1"
     objecttolerance="10"
     gridtolerance="10"
     guidetolerance="10"
     inkscape:pageopacity="0"
     inkscape:pageshadow="2"
     inkscape:window-width="1331"
     inkscape:window-height="712"
     id="namedview3419"
     showgrid="false"
     inkscape:zoom="0.22425732"
     inkscape:cx="372.04687"
     inkscape:cy="526.18127"
     inkscape:window-x="0"
     inkscape:window-y="0"
     inkscape:window-maximized="0"
     inkscape:current-layer="g3425" /><g
     id="g3425"
     inkscape:groupmode="layer"
     inkscape:label="2012_OCHA_humanitarian_icon_editablepdf"
     transform="matrix(1.25,0,0,-1.25,0,1052.3625)"><text
       transform="matrix(1,0,0,-1,113.3848,634.8711)"
       id="text3427"><tspan
         style="fill:#706d6e;fill-opacity:1;fill-rule:nonzero;stroke:none;font-family:Arial;font-variant:normal;font-weight:normal;font-stretch:normal;font-size:12;writing-mode:lr;-inkscape-font-specification:ArialMT"
         x="0 8.004 14.004 20.004 26.676 32.676 38.676 48.672 55.344 62.016"
         y="0"
         sodipodi:role="line"
         id="tspan3429">Assessment</tspan><tspan
         style="fill:#706d6e;fill-opacity:1;fill-rule:nonzero;stroke:none;font-family:Arial;font-variant:normal;font-weight:normal;font-stretch:normal;font-size:12;writing-mode:lr;-inkscape-font-specification:ArialMT"
         x="276.384 283.272 287.268 293.94 296.604 303.276 305.94 312.612"
         y="467.724"
         sodipodi:role="line"
         id="tspan3431">Training</tspan><tspan
         style="fill:#706d6e;fill-opacity:1;fill-rule:nonzero;stroke:none;font-family:Arial;font-variant:normal;font-weight:normal;font-stretch:normal;font-size:12;writing-mode:lr;-inkscape-font-specification:ArialMT"
         x="276.384 283.056 289.728 296.4 303.072 309.744 313.74 319.74 326.412 329.076"
         y="-85.032"
         sodipodi:role="line"
         id="tspan3433">Leadership</tspan><tspan
         style="fill:#706d6e;fill-opacity:1;fill-rule:nonzero;stroke:none;font-family:Arial;font-variant:normal;font-weight:normal;font-stretch:normal;font-size:12;writing-mode:lr;-inkscape-font-specification:ArialMT"
         x="276.384 284.388 291.06 295.056 298.392 305.064 311.736 315.732 321.732 328.404 331.068"
         y="85.044"
         sodipodi:role="line"
         id="tspan3435">Partnership</tspan><tspan
         style="fill:#706d6e;fill-opacity:1;fill-rule:nonzero;stroke:none;font-family:Arial;font-variant:normal;font-weight:normal;font-stretch:normal;font-size:12;writing-mode:lr;-inkscape-font-specification:ArialMT"
         x="276.384 284.388 288.384 295.056 301.728 308.4 312.396 319.068 325.74 332.412 339.084 345.084"
         y="170.088"
         sodipodi:role="line"
         id="tspan3437">Preparedness</tspan><tspan
         style="fill:#706d6e;fill-opacity:1;fill-rule:nonzero;stroke:none;font-family:Arial;font-variant:normal;font-weight:normal;font-stretch:normal;font-size:12;writing-mode:lr;-inkscape-font-specification:ArialMT"
         x="0 8.664 15.336 22.008 24.672 31.344 37.344 47.34 54.012 60.684"
         y="127.572"
         sodipodi:role="line"
         id="tspan3439">Deployment</tspan><tspan
         style="fill:#706d6e;fill-opacity:1;fill-rule:nonzero;stroke:none;font-family:Arial;font-variant:normal;font-weight:normal;font-stretch:normal;font-size:12;writing-mode:lr;-inkscape-font-specification:ArialMT"
         x="0 8.664 15.336 25.332 32.004 38.676 41.34 44.676 51.348 55.344 58.008 64.68 71.352 74.688 81.36 85.356 92.028 98.7 102.696 109.368 119.364 129.36 136.032 139.368 145.368 151.368 157.368 160.032"
         y="297.648"
         sodipodi:role="line"
         id="tspan3441">Humanitarian programme cycle</tspan><tspan
         style="fill:#706d6e;fill-opacity:1;fill-rule:nonzero;stroke:none;font-family:Arial;font-variant:normal;font-weight:normal;font-stretch:normal;font-size:12;writing-mode:lr;-inkscape-font-specification:ArialMT"
         x="276.384 284.388 291.06 295.056 301.056 303.72 309.72 316.392 322.392 325.728 332.4 339.072 345.744 349.08 352.416 359.088 365.76 368.424"
         y="382.692"
         sodipodi:role="line"
         id="tspan3443">Services and tools</tspan><tspan
         style="fill:#706d6e;fill-opacity:1;fill-rule:nonzero;stroke:none;font-family:Arial;font-variant:normal;font-weight:normal;font-stretch:normal;font-size:12;writing-mode:lr;-inkscape-font-specification:ArialMT"
         x="276.384 284.388 290.388 297.06 299.724 306.396 309.732 316.404 323.076 326.412 333.084 339.756 348.42 355.092 358.428 365.1 371.772 378.444 382.44 389.112 392.448 395.112 401.784"
         y="340.176"
         sodipodi:role="line"
         id="tspan3445">Scale up/down operation</tspan><tspan
         style="fill:#706d6e;fill-opacity:1;fill-rule:nonzero;stroke:none;font-family:Arial;font-variant:normal;font-weight:normal;font-stretch:normal;font-size:12;writing-mode:lr;-inkscape-font-specification:ArialMT"
         x="276.384 284.388 287.724 294.396 297.516 300.852 304.188 314.184 320.856 327.528 334.2 340.872 347.544 357.54 364.212 370.884"
         y="425.22"
         sodipodi:role="line"
         id="tspan3447">Staff management</tspan><tspan
         style="fill:#706d6e;fill-opacity:1;fill-rule:nonzero;stroke:none;font-family:Arial;font-variant:normal;font-weight:normal;font-stretch:normal;font-size:12;writing-mode:lr;-inkscape-font-specification:ArialMT"
         x="0 3.336 10.008 16.68 23.352 29.352 36.024 39.36 42.024 48.696"
         y="424.944"
         sodipodi:role="line"
         id="tspan3449">Innovation</tspan><tspan
         style="fill:#706d6e;fill-opacity:1;fill-rule:nonzero;stroke:none;font-family:Arial;font-variant:normal;font-weight:normal;font-stretch:normal;font-size:12;writing-mode:lr;-inkscape-font-specification:ArialMT"
         x="276.384 283.056 289.728 296.4 300.396 307.068 309.732 316.404"
         y="-42.492"
         sodipodi:role="line"
         id="tspan3451">Learning</tspan><tspan
         style="fill:#706d6e;fill-opacity:1;fill-rule:nonzero;stroke:none;font-family:Arial;font-variant:normal;font-weight:normal;font-stretch:normal;font-size:12;writing-mode:lr;-inkscape-font-specification:ArialMT"
         x="276.384 285.048 291.72 297.72 304.392 311.064 317.736 323.736"
         y="297.672"
         sodipodi:role="line"
         id="tspan3453">Response</tspan><tspan
         style="fill:#706d6e;fill-opacity:1;fill-rule:nonzero;stroke:none;font-family:Arial;font-variant:normal;font-weight:normal;font-stretch:normal;font-size:12;writing-mode:lr;-inkscape-font-specification:ArialMT"
         x="276.384 286.38 293.052 299.724 303.06 305.724 312.396"
         y="0.036"
         sodipodi:role="line"
         id="tspan3455">Meeting</tspan><tspan
         style="fill:#706d6e;fill-opacity:1;fill-rule:nonzero;stroke:none;font-family:Arial;font-variant:normal;font-weight:normal;font-stretch:normal;font-size:12;writing-mode:lr;-inkscape-font-specification:ArialMT"
         x="0 8.664 15.336 22.008 26.004 32.676 35.34 42.012 48.684 52.02 58.692 65.364 68.7 75.372 81.372 87.372 94.044 100.044 106.044 116.04 122.712 129.384"
         y="85.08"
         sodipodi:role="line"
         id="tspan3457">Coordinated assessment</tspan><tspan
         style="fill:#706d6e;fill-opacity:1;fill-rule:nonzero;stroke:none;font-family:Arial;font-variant:normal;font-weight:normal;font-stretch:normal;font-size:12;writing-mode:lr;-inkscape-font-specification:ArialMT"
         x="276.384 285.048 291.72 298.392 305.064 311.064 314.4 321.072 327.072 333.072 339.744 345.744 351.744 361.74 368.412 375.084"
         y="42.564"
         sodipodi:role="line"
         id="tspan3459">Needs assessment</tspan><tspan
         style="fill:#706d6e;fill-opacity:1;fill-rule:nonzero;stroke:none;font-family:Arial;font-variant:normal;font-weight:normal;font-stretch:normal;font-size:12;writing-mode:lr;-inkscape-font-specification:ArialMT"
         x="0 8.004 14.676 20.676 27.348 33.348 40.02 46.02"
         y="-84.996"
         sodipodi:role="line"
         id="tspan3461">Advocacy</tspan><tspan
         style="fill:#706d6e;fill-opacity:1;fill-rule:nonzero;stroke:none;font-family:Arial;font-variant:normal;font-weight:normal;font-stretch:normal;font-size:12;writing-mode:lr;-inkscape-font-specification:ArialMT"
         x="276.384 284.388 291.06 293.724 296.388 302.388"
         y="127.608"
         sodipodi:role="line"
         id="tspan3463">Policy</tspan><tspan
         style="fill:#706d6e;fill-opacity:1;fill-rule:nonzero;stroke:none;font-family:Arial;font-variant:normal;font-weight:normal;font-stretch:normal;font-size:12;writing-mode:lr;-inkscape-font-specification:ArialMT"
         x="0 8.664 11.328 17.328 19.992 22.656 26.652 36.648 39.312 41.976 44.64 47.976 54.648 58.644 64.644 67.98 73.98 80.652 87.324 91.32 97.992 100.656 107.328 114 117.336 120 126.672"
         y="42.564"
         sodipodi:role="line"
         id="tspan3465">Civil-military coordination</tspan><tspan
         style="fill:#706d6e;fill-opacity:1;fill-rule:nonzero;stroke:none;font-family:Arial;font-variant:normal;font-weight:normal;font-stretch:normal;font-size:12;writing-mode:lr;-inkscape-font-specification:ArialMT"
         x="0 9.336 16.008 22.68 26.016 32.688 39.36 46.032 48.696 54.696 60.696 63.36"
         y="255.168"
         sodipodi:role="line"
         id="tspan3467">Gap analysis</tspan><tspan
         style="fill:#706d6e;fill-opacity:1;fill-rule:nonzero;stroke:none;font-family:Arial;font-variant:normal;font-weight:normal;font-stretch:normal;font-size:12;writing-mode:lr;-inkscape-font-specification:ArialMT"
         x="0 7.332 9.996 16.668 23.34 30.012 36.012 38.676 45.348"
         y="170.124"
         sodipodi:role="line"
         id="tspan3469">Financing</tspan><tspan
         style="fill:#706d6e;fill-opacity:1;fill-rule:nonzero;stroke:none;font-family:Arial;font-variant:normal;font-weight:normal;font-stretch:normal;font-size:12;writing-mode:lr;-inkscape-font-specification:ArialMT"
         x="0 3.336 10.008 13.344 20.016 24.012 34.008 40.68 44.016 46.68 53.352 60.024 63.36 73.356 80.028 86.7 93.372 100.044 106.716 116.712 123.384 130.056"
         y="340.2"
         sodipodi:role="line"
         id="tspan3471">Information management</tspan><tspan
         style="fill:#706d6e;fill-opacity:1;fill-rule:nonzero;stroke:none;font-family:Arial;font-variant:normal;font-weight:normal;font-stretch:normal;font-size:12;writing-mode:lr;-inkscape-font-specification:ArialMT"
         x="0 3.336 10.008 13.344 20.016 24.012 34.008 40.68 44.016 46.68 53.352 60.024 63.36 66.696 73.368 79.368 86.04 92.712 99.384 102.048 108.72 115.392"
         y="382.716"
         sodipodi:role="line"
         id="tspan3473">Information technology</tspan><tspan
         style="fill:#706d6e;fill-opacity:1;fill-rule:nonzero;stroke:none;font-family:Arial;font-variant:normal;font-weight:normal;font-stretch:normal;font-size:12;writing-mode:lr;-inkscape-font-specification:ArialMT"
         x="276.384 284.388 291.06 297.732 300.396 303.06 309.06 312.396 315.06 321.732 325.068 331.74 335.736 345.732 352.404 355.74 358.404 365.076"
         y="212.64"
         sodipodi:role="line"
         id="tspan3475">Public information</tspan><tspan
         style="fill:#706d6e;fill-opacity:1;fill-rule:nonzero;stroke:none;font-family:Arial;font-variant:normal;font-weight:normal;font-stretch:normal;font-size:12;writing-mode:lr;-inkscape-font-specification:ArialMT"
         x="276.384 285.048 291.72 298.392 305.064 309.06 312.396 315.06 321.732"
         y="255.156"
         sodipodi:role="line"
         id="tspan3477">Reporting</tspan><tspan
         style="fill:#706d6e;fill-opacity:1;fill-rule:nonzero;stroke:none;font-family:Arial;font-variant:normal;font-weight:normal;font-stretch:normal;font-size:12;writing-mode:lr;-inkscape-font-specification:ArialMT"
         x="0 8.004 14.676 21.348 24.012 30.012 36.012 38.676"
         y="-42.48"
         sodipodi:role="line"
         id="tspan3479">Analysis</tspan><tspan
         style="fill:#706d6e;fill-opacity:1;fill-rule:nonzero;stroke:none;font-family:Arial;font-variant:normal;font-weight:normal;font-stretch:normal;font-size:12;writing-mode:lr;-inkscape-font-specification:ArialMT"
         x="0 7.332 14.004 20.676"
         y="212.64"
         sodipodi:role="line"
         id="tspan3481">Fund</tspan></text>
<g
       id="g3483"><g
         id="g3485"
         clip-path="url(#clipPath3487)"><g
           id="g3491"
           transform="translate(323.0137,591.7158)"><path
             d="m 0,0 -0.988,0 0,-0.687 -6.256,0 0,0.687 -0.988,0 0,-11.333 8.232,0 L 0,0 z m -4.766,1.459 1.299,0 c -0.127,0.234 -0.365,0.398 -0.648,0.398 -0.287,0 -0.526,-0.164 -0.651,-0.398 m 5.928,-0.346 0,-13.559 -10.557,0 0,13.559 2.151,0 0,0.346 1.734,0 c 0.156,0.627 0.717,1.095 1.393,1.095 0.676,0 1.238,-0.468 1.394,-1.095 l 1.735,0 0,-0.346 2.15,0 z m -3.142,-3.287 -0.866,0.865 -1.552,-1.552 -1.553,1.552 -0.867,-0.865 1.552,-1.553 -1.552,-1.553 0.867,-0.866 1.553,1.553 1.552,-1.553 0.866,0.866 -1.553,1.553 1.553,1.553 z m -2.774,-6.361 2.764,2.295 0.824,-0.841 -3.611,-3.611 -2.137,2.137 1.133,1.136 1.027,-1.116 z"
             style="fill:#3067ba;fill-opacity:1;fill-rule:nonzero;stroke:none"
             id="path3493" /></g><g
           id="g3495"
           transform="translate(324.4551,504.5879)"><path
             d="m 0,0 -3.495,0 0,3.496 -5.099,0 0,-8.866 2.559,2.393 -0.768,0.768 2.155,2.156 2.693,-2.695 -2.152,-2.154 -0.772,0.771 -3.715,-3.971 0,-0.241 8.594,0 L 0,0 z m -2.636,0.858 1.868,0 -1.868,1.94 0,-1.94 z m 3.781,-0.335 0,-10.011 -10.884,0 0,0.161 -0.965,-1.031 -1.556,1.557 2.521,2.359 0,11.084 6.918,0 3.966,-4.119 z M -3.881,-5.55 c 0.133,-0.133 0.347,-0.133 0.479,-0.002 l 2.095,2.097 c 0.134,0.133 0.133,0.348 0,0.48 -0.131,0.131 -0.345,0.131 -0.478,0 L -3.881,-5.07 c -0.133,-0.134 -0.133,-0.349 0,-0.48 m -0.996,6.145 c 0.133,-0.131 0.133,-0.346 0,-0.479 l -2.097,-2.095 c -0.13,-0.132 -0.346,-0.132 -0.477,-0.003 -0.133,0.136 -0.132,0.349 -0.002,0.483 l 2.098,2.094 c 0.132,0.133 0.345,0.133 0.478,0"
             style="fill:#3067ba;fill-opacity:1;fill-rule:nonzero;stroke:none"
             id="path3497" /></g><g
           id="g3499"
           transform="translate(43.2642,455.1309)"><path
             d="M 0,0 C 0.497,0.077 0.901,0.272 1.212,0.582 1.524,0.894 1.68,1.257 1.68,1.677 1.68,2.05 1.549,2.375 1.288,2.646 1.025,2.916 0.597,3.125 0,3.269 L 0,0 z M -1.442,8.922 C -1.833,8.81 -2.145,8.618 -2.376,8.352 -2.608,8.083 -2.724,7.787 -2.724,7.462 c 0,-0.296 0.105,-0.571 0.318,-0.825 0.212,-0.256 0.533,-0.46 0.964,-0.616 l 0,2.901 z m 0,-8.804 0,3.512 c -1.299,0.313 -2.251,0.787 -2.859,1.421 -0.606,0.636 -0.909,1.405 -0.909,2.31 0,0.918 0.343,1.688 1.029,2.311 0.686,0.623 1.599,0.982 2.739,1.076 l 0,0.83 1.442,0 0,-0.83 C 1.053,10.644 1.893,10.34 2.515,9.839 3.138,9.339 3.536,8.67 3.709,7.832 L 1.193,7.555 C 1.041,8.215 0.643,8.661 0,8.896 L 0,5.618 C 1.591,5.255 2.675,4.784 3.251,4.204 3.828,3.626 4.116,2.884 4.116,1.979 4.116,0.967 3.753,0.113 3.027,-0.578 2.302,-1.272 1.292,-1.696 0,-1.853 l 0,-1.569 -1.442,0 0,1.526 c -1.147,0.119 -2.078,0.479 -2.794,1.083 -0.716,0.604 -1.173,1.456 -1.371,2.556 l 2.594,0.236 C -2.907,1.532 -2.708,1.146 -2.416,0.821 -2.125,0.496 -1.8,0.262 -1.442,0.118"
             style="fill:#3067ba;fill-opacity:1;fill-rule:nonzero;stroke:none"
             id="path3501" /></g><g
           id="g3503"
           transform="translate(42.5645,285.8057)"><path
             d="m 0,0 3.2,0.002 0,-3.215 -3.197,0 L 0.002,-1.606 0,0 z m -3.275,-1.612 0,0.184 0.029,0.019 c 0.066,0.044 0.119,0.106 0.155,0.177 L -2.475,0 l 2.396,0 0.002,-1.606 0.001,-1.607 -3.197,-0.002 -0.002,1.603 z m 8.99,8.279 0.759,2.03 0,-2.028 L 5.715,6.667 z M 4.481,3.375 5.685,6.59 l 0.789,0 10e-4,-3.215 -1.994,0 z m -1.202,-3.294 0,0.682 c 0.148,0.033 0.272,0.133 0.327,0.276 l 0.845,2.257 2.024,0 0,-3.213 -3.196,-0.002 z m -4.11,3.213 0.752,0 0,-3.215 -2.357,0 1.605,3.215 z m -2.523,-4.773 0,-0.133 0.002,-1.603 -2.603,0 2.601,1.736 z M -3.497,0 l -0.357,-0.715 -2.699,-1.802 0,2.515 L -3.497,0 z m 0.142,3.294 0,-3.011 -0.102,-0.204 -1.498,0 -1.598,-0.002 -0.002,3.215 3.2,0.002 z m -10e-4,3.292 0,-1.607 10e-4,-1.606 -3.2,-0.002 0,3.215 1.599,0 1.6,0 z m 3.275,0.081 -3.196,-0.002 0,3.215 3.196,0.002 0,-3.215 z m 3.279,0 -1.6,0 -1.6,0 0,3.215 3.198,0 10e-4,-1.603 10e-4,-1.612 z m 0.079,0 -0.001,1.612 -10e-4,1.603 2.667,0.002 -1.204,-3.217 -1.461,0 z m 0,-3.294 0,3.215 1.432,0 -1.203,-3.215 -0.229,0 z m 0,-0.079 0.199,0 -0.199,-0.527 0,0.527 z m -2.242,0 1.778,-2.369 C 2.904,0.805 3.05,0.748 3.2,0.753 L 3.2,0.081 0,0.079 l 0,3.215 1.035,0 z m -1.12,1.492 0.005,-0.006 0.001,-1.407 -0.712,0 0.706,1.413 z m 3.283,1.802 0,-3.215 -1.08,0 -1.915,2.554 C 0.149,5.998 0.078,6.044 -0.002,6.072 l 0,0.516 1.6,0 1.6,0 z m 0,-3.294 0,-0.739 -0.155,-0.414 -0.865,1.153 1.02,0 z M -0.001,4.674 0.975,3.373 0,3.373 -0.001,4.674 z m -3.275,-1.301 -0.001,1.606 0,1.607 3.196,0.002 0,-0.501 C -0.122,6.094 -0.16,6.11 -0.205,6.107 -0.362,6.094 -0.501,5.998 -0.572,5.856 l -1.241,-2.483 -1.463,0 z m 0,-0.079 1.424,0 -1.424,-2.854 0,2.854 z m -3.28,6.586 3.2,0 0,-3.215 -1.6,0 -1.599,0 -0.001,3.215 z m 13.033,-13.093 -3.198,0 0,3.215 3.196,0.003 0.002,-3.218 z M 7.449,10.823 -7.546,10.819 -7.544,-4.175 7.454,-4.171 7.449,10.823 z"
             style="fill:#3067ba;fill-opacity:1;fill-rule:nonzero;stroke:none"
             id="path3505" /></g><path
           d="m 36.548,252.936 11.94,0 0,-7.951 -11.94,0 0,7.951 z m 13.14,-8.551 0,9.15 c 0,0.332 -0.269,0.6 -0.6,0.6 l -13.139,0 c -0.33,0 -0.6,-0.268 -0.6,-0.6 l 0,-9.15 c 0,-0.329 0.27,-0.6 0.6,-0.6 l 13.139,0 c 0.331,0 0.6,0.271 0.6,0.6 m -1.849,-1.461 c 0.788,0 1.603,-0.62 1.819,-1.376 l 0.309,-1.093 c 0.214,-0.756 -0.257,-1.374 -1.043,-1.371 l -12.8,0.007 c -0.789,0 -1.261,0.622 -1.059,1.381 l 0.293,1.071 c 0.205,0.761 1.017,1.381 1.801,1.381 l 10.68,0 z"
           style="fill:#3067ba;fill-opacity:1;fill-rule:nonzero;stroke:none"
           id="path3507" /><g
           id="g3509"
           transform="translate(46.4424,671.0146)"><path
             d="M 0,0 C 0,1.066 -0.678,2.019 -1.688,2.368 -2.319,2.586 -2.999,2.545 -3.603,2.253 -4.203,1.961 -4.657,1.451 -4.874,0.818 -4.967,0.552 -5.013,0.275 -5.013,-0.001 c 0,-1.067 0.678,-2.02 1.687,-2.368 0.632,-0.22 1.312,-0.179 1.916,0.114 0.602,0.291 1.054,0.801 1.272,1.434 C -0.046,-0.555 0,-0.279 0,0 m 0.934,0 c 0,-0.375 -0.063,-0.753 -0.191,-1.127 -0.621,-1.794 -2.578,-2.744 -4.372,-2.123 -1.425,0.492 -2.316,1.823 -2.316,3.249 0,0.373 0.059,0.751 0.189,1.125 0.621,1.794 2.579,2.745 4.374,2.124 C 0.041,2.757 0.934,1.425 0.934,0 M 3.496,-4.922 1.11,-2.295 C 1.017,-2.192 0.874,-2.188 0.754,-2.244 0.437,-2.705 0.028,-3.087 -0.442,-3.375 -0.465,-3.472 -0.458,-3.573 -0.386,-3.651 l 2.385,-2.625 c 0.114,-0.127 0.312,-0.137 0.439,-0.022 l 1.037,0.938 c 0.127,0.114 0.135,0.311 0.021,0.438 M -4.301,3.535 -3.584,5.237 -2.816,4.914 -3.105,7.223 -4.959,5.817 -4.198,5.497 -5.035,3.51 -6.182,4.836 -7.379,2.56 -8.58,3.723 -9.951,0.608 l 0.61,-0.267 0.986,2.236 1.151,-1.115 1.157,2.198 0.741,-0.857 c 0.295,0.295 0.633,0.544 1.005,0.732 m -2.074,-4.363 c 0.039,-0.181 0.087,-0.357 0.15,-0.527 l -5.199,0 0,9.324 0.528,0 0,-8.797 4.521,0 z"
             style="fill:#3067ba;fill-opacity:1;fill-rule:nonzero;stroke:none"
             id="path3511" /></g><g
           id="g3513"
           transform="translate(44.5303,413.2666)"><path
             d="M 0,0 C 0,0.385 -0.121,0.698 -0.366,0.943 -0.609,1.188 -1.067,1.386 -1.74,1.541 l 0,1.386 C -1.468,2.828 -1.3,2.638 -1.235,2.36 l 1.064,0.117 C -0.245,2.83 -0.413,3.114 -0.676,3.325 -0.939,3.536 -1.295,3.664 -1.74,3.71 l 0,0.352 -0.61,0 0,-0.352 C -2.832,3.67 -3.218,3.518 -3.508,3.255 -3.799,2.991 -3.943,2.665 -3.943,2.278 -3.943,1.894 -3.815,1.57 -3.558,1.3 -3.302,1.033 -2.899,0.832 -2.35,0.7 l 0,-1.485 c -0.151,0.06 -0.289,0.16 -0.412,0.297 -0.123,0.137 -0.207,0.3 -0.252,0.488 l -1.097,-0.098 c 0.084,-0.465 0.277,-0.826 0.58,-1.081 0.303,-0.257 0.696,-0.409 1.181,-0.457 l 0,-0.646 0.61,0 0,0.663 c 0.547,0.066 0.973,0.246 1.28,0.539 C -0.153,-0.788 0,-0.426 0,0 m 4.701,-2.437 c 0,0 -0.427,-1.64 -2.396,-1.64 l -8.63,0 c -1.971,0 -2.4,1.64 -2.4,1.64 -1.288,5.687 2.632,8.772 2.632,8.772 l 8.163,0 c 0,0 3.919,-3.085 2.631,-8.772 M -2.893,2.32 c 0,-0.126 0.045,-0.242 0.135,-0.348 0.09,-0.11 0.226,-0.196 0.408,-0.262 l 0,1.227 C -2.516,2.891 -2.647,2.81 -2.745,2.696 -2.844,2.581 -2.893,2.458 -2.893,2.32 m 1.153,-1.772 0,-1.384 c 0.21,0.034 0.382,0.115 0.513,0.247 0.132,0.132 0.198,0.286 0.198,0.462 0,0.158 -0.056,0.295 -0.167,0.409 -0.11,0.115 -0.292,0.203 -0.544,0.266 m 5.247,8.801 -1.97,-1.833 -7.099,0 -1.969,1.833 c 0,0 0.981,1.373 2.596,1.552 1.582,0.176 2.131,-0.794 2.924,-0.834 0.791,0.04 1.342,1.01 2.922,0.834 1.617,-0.179 2.596,-1.552 2.596,-1.552"
             style="fill:#3067ba;fill-opacity:1;fill-rule:nonzero;stroke:none"
             id="path3515" /></g><g
           id="g3517"
           transform="translate(322.3965,165.748)"><path
             d="M 0,0 -0.232,0.133 -1.848,-2.684 -1.613,-2.817 0,0 z m -4.078,-4.879 0.295,0.482 -1.541,0 0.861,-0.482 0.385,0 z m 7.924,8.201 -11.545,0 0,-2.441 c 0.176,-0.084 0.336,-0.192 0.482,-0.318 l 0,2.278 10.582,0 0,-7.238 -5.095,0 -0.293,-0.482 5.869,0 0,8.201 z M -7.217,-2.725 c -0.146,-0.126 -0.306,-0.233 -0.482,-0.318 l 0,-0.311 c 0.176,-0.021 0.336,-0.049 0.482,-0.089 l 0,0.718 z m 5.354,-0.205 c -0.319,0.192 -0.729,0.092 -0.922,-0.223 l -1.319,-2.163 -1.859,1.039 c -0.836,0.514 -1.244,0.758 -2.484,0.758 l -0.19,0 -0.189,0 c -2.408,-0.281 -1.99,-2.21 -1.99,-2.21 l 0.293,-5.949 4.238,0.047 -0.168,5.902 2.26,-1.072 c 0.103,-0.058 0.214,-0.085 0.326,-0.085 0.226,0 0.447,0.115 0.574,0.322 l 1.654,2.713 c 0.192,0.316 0.092,0.728 -0.224,0.921 m -8.75,1.849 c 0,1.092 0.884,1.976 1.978,1.976 1.09,0 1.973,-0.884 1.973,-1.976 0,-1.092 -0.883,-1.975 -1.973,-1.975 -1.094,0 -1.978,0.883 -1.978,1.975"
             style="fill:#3067ba;fill-opacity:1;fill-rule:nonzero;stroke:none"
             id="path3519" /></g><g
           id="g3521"
           transform="translate(315.7285,707.6465)"><path
             d="m 0,0 6.336,0 0,5.621 C 6.336,7.368 4.914,8.789 3.168,8.789 1.42,8.789 0,7.368 0,5.621 L 0,0 z m -0.5,5.621 0,-4.359 -2.383,0 0,3.931 c 0,1.204 0.979,2.184 2.184,2.184 0.215,0 0.418,-0.041 0.613,-0.099 C -0.342,6.778 -0.5,6.221 -0.5,5.621 m 9.721,-4.359 -2.385,0 0,4.359 c 0,0.6 -0.158,1.157 -0.414,1.657 0.195,0.058 0.4,0.099 0.615,0.099 1.203,0 2.184,-0.98 2.184,-2.184 l 0,-3.931 z M 3.168,13.367 c -1.113,0 -2.02,-0.906 -2.02,-2.019 0,-1.115 0.907,-2.022 2.02,-2.022 1.113,0 2.021,0.907 2.021,2.022 0,1.113 -0.908,2.019 -2.021,2.019 M -3.43,6.609 c 0.149,0 0.287,-0.028 0.424,-0.068 C -3.24,6.144 -3.383,5.687 -3.383,5.193 l 0,-2.865 -1.556,0 0,2.772 c 0,0.832 0.677,1.509 1.509,1.509 m 2.731,4.028 c -0.754,0 -1.367,-0.614 -1.367,-1.367 0,-0.753 0.613,-1.366 1.367,-1.366 0.752,0 1.365,0.613 1.365,1.366 0,0.753 -0.613,1.367 -1.365,1.367 m 11.976,-8.309 -1.556,0 0,2.865 c 0,0.494 -0.145,0.951 -0.377,1.348 0.136,0.04 0.277,0.068 0.426,0.068 0.83,0 1.507,-0.677 1.507,-1.509 l 0,-2.772 z m -4.24,8.309 c -0.754,0 -1.365,-0.614 -1.365,-1.367 0,-0.753 0.611,-1.366 1.365,-1.366 0.754,0 1.367,0.613 1.367,1.366 0,0.753 -0.613,1.367 -1.367,1.367 M -3.43,8.967 c -0.508,0 -0.92,-0.412 -0.92,-0.918 0,-0.506 0.412,-0.918 0.92,-0.918 0.506,0 0.918,0.412 0.918,0.918 0,0.506 -0.412,0.918 -0.918,0.918 m 13.2,0 c -0.508,0 -0.92,-0.412 -0.92,-0.918 0,-0.506 0.412,-0.918 0.92,-0.918 0.505,0 0.918,0.412 0.918,0.918 0,0.506 -0.413,0.918 -0.918,0.918"
             style="fill:#3067ba;fill-opacity:1;fill-rule:nonzero;stroke:none"
             id="path3523" /></g><g
           id="g3525"
           transform="translate(324.8369,545.2773)"><path
             d="M 0,0 -0.93,0 C -1.307,0 -1.652,-0.143 -1.922,-0.367 -1.932,-0.375 -1.943,-0.375 -1.951,-0.381 -2.27,-0.592 -2.51,-0.889 -2.764,-1.205 -3.332,-1.908 -3.977,-2.711 -5.779,-2.91 -6.188,-2.957 -6.48,-3.324 -6.436,-3.732 c 0.041,-0.381 0.364,-0.663 0.739,-0.663 0.027,0 0.054,0.002 0.084,0.004 1.527,0.17 2.472,0.713 3.123,1.289 l 0,-2.789 4.051,0 0,4.33 C 1.561,-0.701 0.857,0 0,0 m -6.889,-3.781 c -0.039,0.365 0.102,0.703 0.34,0.949 -1.453,0.277 -2.049,0.986 -2.566,1.627 -0.252,0.314 -0.492,0.613 -0.811,0.824 -0.01,0.006 -0.021,0.006 -0.029,0.014 C -10.227,-0.143 -10.57,0 -10.949,0 l -0.928,0 c -0.859,0 -1.562,-0.701 -1.562,-1.561 l 0,-4.33 4.052,0 0,2.799 c 0.592,-0.517 1.428,-1.01 2.713,-1.224 -0.107,0.156 -0.191,0.332 -0.215,0.535 m 4.707,5.9 c 0,-0.949 0.77,-1.717 1.715,-1.717 0.951,0 1.721,0.768 1.721,1.717 0,0.947 -0.77,1.717 -1.721,1.717 -0.945,0 -1.715,-0.77 -1.715,-1.717 m -7.515,0 c 0,-0.949 -0.77,-1.717 -1.715,-1.717 -0.951,0 -1.719,0.768 -1.719,1.717 0,0.947 0.768,1.717 1.719,1.717 0.945,0 1.715,-0.77 1.715,-1.717"
             style="fill:#3067ba;fill-opacity:1;fill-rule:nonzero;stroke:none"
             id="path3527" /></g><g
           id="g3529"
           transform="translate(47.3257,508.0439)"><path
             d="m 0,0 c 0.127,-0.771 -0.396,-1.498 -1.166,-1.624 -0.772,-0.127 -1.498,0.396 -1.623,1.167 -0.127,0.77 0.394,1.498 1.164,1.624 C -0.854,1.294 -0.127,0.771 0,0 m -0.73,-7.171 c -0.038,-0.202 0.009,-0.585 0.095,-0.771 l 2.198,-4.768 c 0.111,-0.243 0.24,-0.519 0.048,-0.82 -0.113,-0.176 -0.31,-0.284 -0.519,-0.284 -0.369,0 -0.535,0.28 -0.67,0.503 l -2.715,4.564 -0.736,-1.494 c -0.172,-0.35 -0.514,-0.847 -0.778,-1.13 l -1.48,-1.596 c -0.193,-0.207 -0.344,-0.369 -0.627,-0.369 -0.236,0 -0.451,0.136 -0.555,0.349 -0.172,0.36 0.037,0.621 0.223,0.85 l 1.461,1.811 c 0.156,0.194 0.363,0.591 0.431,0.832 l 0.543,1.895 c 0.079,0.279 0.17,0.774 0.194,1.061 l 0.24,2.912 c -1.182,-0.391 -2.34,-1.936 -2.732,-2.582 -0.166,-0.271 -0.307,-0.504 -0.659,-0.505 l -0.002,0 c -0.214,0 -0.418,0.115 -0.527,0.303 -0.182,0.307 -0.049,0.55 0.106,0.828 0.089,0.161 2.275,4.015 5.222,3.783 1.274,-0.109 1.68,-1.066 1.949,-1.699 0.063,-0.148 0.124,-0.291 0.194,-0.419 l 1.681,-3.04 C 2.016,-7.248 1.92,-7.625 1.635,-7.793 1.348,-7.962 0.986,-7.883 0.811,-7.602 l -1.252,1.998 -0.289,-1.567 z m -6.387,0.273 c 0.092,-0.04 0.187,-0.065 0.287,-0.073 0.016,-0.094 0.021,-0.191 0.012,-0.29 0.275,-0.17 0.441,-0.311 0.412,-0.372 l -0.86,-1.579 c -0.048,-0.104 -0.588,0.043 -1.209,0.329 -0.617,0.287 -1.082,0.604 -1.033,0.71 l 0.649,1.676 c 0.029,0.06 0.242,0.026 0.546,-0.072 0.19,0.194 0.44,0.298 0.686,0.298 0.018,-0.087 0.045,-0.177 0.1,-0.271 -0.168,0.03 -0.342,-0.021 -0.493,-0.131 0.151,-0.057 0.311,-0.125 0.475,-0.202 0.166,-0.077 0.32,-0.154 0.459,-0.23 -0.004,0.069 -0.006,0.138 -0.029,0.203 0,0.002 0,0.003 -0.002,0.004 m -0.709,-3.679 c 0.047,-0.131 0.049,-0.245 0.006,-0.34 l -0.354,-0.767 -2.631,1.218 0.356,0.766 c 0.08,0.173 0.328,0.276 0.666,0.276 0.295,0 0.633,-0.081 0.953,-0.229 0.494,-0.229 0.879,-0.582 1.004,-0.924 m 0.246,-0.451 -0.465,-1.008 -3.113,1.44 0.467,1.008 c 0.132,0.283 0.476,0.43 0.908,0.43 0.322,0 0.695,-0.083 1.064,-0.253 0.86,-0.399 1.371,-1.121 1.139,-1.617 m 1.199,2.885 -0.644,-1.183 c -0.032,-0.07 -0.12,-0.186 -0.338,-0.186 -0.268,0 -0.717,0.169 -1.006,0.292 l -0.057,-0.122 -0.437,0.202 0.056,0.122 c -0.384,0.193 -0.861,0.473 -0.949,0.714 l -0.035,0.133 0.035,0.094 0.492,1.269 c -0.506,-0.32 -0.943,-1.019 -1.494,-2.139 l -0.625,-1.317 c -0.053,-0.116 -0.105,-0.233 -0.164,-0.354 l 3.738,-1.729 c 0.057,0.121 0.11,0.24 0.164,0.354 l 0.6,1.326 c 0.498,1.146 0.748,1.931 0.664,2.524"
             style="fill:#3067ba;fill-opacity:1;fill-rule:nonzero;stroke:none"
             id="path3531" /></g><g
           id="g3533"
           transform="translate(48.7686,332.2461)"><path
             d="M 0,0 C -0.176,1.821 -1.133,3.493 -2.65,4.558 L -3.588,3.219 C -2.508,2.462 -1.807,1.287 -1.639,0 L -2.824,0 -0.787,-3.529 1.25,0 0,0 z m -5.652,-5.208 0,1.187 -3.53,-2.038 3.53,-2.037 0,1.25 c 1.82,0.175 3.492,1.131 4.554,2.648 l -1.338,0.938 c -0.755,-1.079 -1.931,-1.78 -3.216,-1.948 m -5.211,4.015 1.187,0 -2.037,3.529 -2.037,-3.529 1.25,0 c 0.174,-1.823 1.131,-3.496 2.65,-4.559 l 0.936,1.341 c -1.08,0.755 -1.781,1.93 -1.949,3.218 m 0.799,3.258 -1.34,0.937 c 1.062,1.519 2.736,2.476 4.558,2.65 l 0,1.25 3.53,-2.037 -3.53,-2.037 0,1.187 C -8.135,3.848 -9.309,3.146 -10.064,2.065"
             style="fill:#3067ba;fill-opacity:1;fill-rule:nonzero;stroke:none"
             id="path3535" /></g><g
           id="g3537"
           transform="translate(322.917,250.5498)"><path
             d="M 0,0 -0.311,-1.818 1.111,-2.995 2.842,-2.354 3.148,-0.536 1.729,0.643 0,0 z M -1.391,-2.219 0.824,-4.056 3.48,-3.069 C 3.191,-4.206 2.434,-5.15 1.336,-5.558 0.135,-6.004 -1.182,-5.695 -2.178,-4.867 l -7.588,-5.306 -1.754,2.508 7.815,5.464 c -0.328,1.86 0.559,3.68 2.203,4.291 1.098,0.407 2.291,0.186 3.248,-0.488 L -0.91,0.618 -1.391,-2.219 z"
             style="fill:#3067ba;fill-opacity:1;fill-rule:nonzero;stroke:none"
             id="path3539" /></g><g
           id="g3541"
           transform="translate(324.4951,288.5498)"><path
             d="M 0,0 0.193,0 C 0.301,0 0.404,0.006 0.506,0.02 0.607,0.033 0.699,0.063 0.779,0.109 0.861,0.152 0.926,0.221 0.977,0.307 1.025,0.393 1.051,0.508 1.051,0.654 1.051,0.84 0.992,0.992 0.877,1.111 0.76,1.23 0.609,1.289 0.422,1.289 0.273,1.289 0.139,1.242 0.021,1.148 -0.098,1.055 -0.184,0.924 -0.236,0.756 l -0.791,0.232 c 0.05,0.178 0.121,0.332 0.211,0.465 0.091,0.131 0.199,0.238 0.324,0.322 0.125,0.086 0.262,0.147 0.41,0.188 0.15,0.041 0.305,0.062 0.467,0.062 0.191,0 0.371,-0.027 0.541,-0.082 C 1.098,1.889 1.246,1.809 1.375,1.701 1.504,1.594 1.605,1.461 1.682,1.299 1.76,1.137 1.797,0.949 1.797,0.736 1.797,0.477 1.73,0.246 1.598,0.043 1.465,-0.158 1.281,-0.293 1.045,-0.355 l 0,-0.014 C 1.326,-0.414 1.541,-0.547 1.686,-0.766 1.83,-0.982 1.902,-1.242 1.902,-1.543 1.902,-1.775 1.863,-1.98 1.781,-2.156 1.701,-2.334 1.592,-2.482 1.455,-2.604 1.318,-2.725 1.16,-2.814 0.98,-2.877 0.799,-2.938 0.611,-2.969 0.416,-2.969 c -0.182,0 -0.355,0.022 -0.518,0.065 -0.16,0.043 -0.306,0.111 -0.437,0.203 -0.131,0.09 -0.242,0.207 -0.34,0.349 -0.094,0.143 -0.166,0.317 -0.217,0.516 l 0.797,0.232 c 0.045,-0.201 0.125,-0.355 0.242,-0.464 0.116,-0.11 0.274,-0.164 0.473,-0.164 0.1,0 0.193,0.019 0.283,0.054 0.09,0.037 0.168,0.088 0.237,0.155 0.068,0.066 0.123,0.146 0.162,0.238 0.039,0.094 0.058,0.197 0.058,0.31 0,0.155 -0.029,0.282 -0.09,0.379 -0.06,0.098 -0.136,0.172 -0.23,0.225 -0.094,0.053 -0.197,0.088 -0.315,0.105 -0.115,0.018 -0.23,0.028 -0.341,0.028 L 0,-0.738 0,0 z m -3.037,-2.408 c 0,0.144 0.049,0.269 0.146,0.375 0.096,0.103 0.215,0.156 0.35,0.156 0.135,0 0.25,-0.051 0.35,-0.15 0.099,-0.1 0.148,-0.223 0.148,-0.369 0,-0.145 -0.047,-0.27 -0.145,-0.375 -0.097,-0.104 -0.214,-0.157 -0.353,-0.157 -0.064,0 -0.129,0.014 -0.188,0.041 -0.06,0.028 -0.113,0.065 -0.16,0.11 -0.045,0.045 -0.082,0.099 -0.107,0.164 -0.027,0.062 -0.041,0.131 -0.041,0.205 m -5.162,0.758 2.445,2.593 c 0.07,0.078 0.145,0.161 0.223,0.248 0.076,0.088 0.146,0.182 0.209,0.278 0.06,0.099 0.113,0.201 0.154,0.308 0.041,0.106 0.063,0.219 0.063,0.336 0,0.143 -0.024,0.27 -0.077,0.379 C -5.23,2.604 -5.297,2.699 -5.381,2.775 -5.463,2.854 -5.561,2.914 -5.67,2.957 -5.779,2.998 -5.896,3.02 -6.021,3.02 -6.287,3.02 -6.506,2.936 -6.678,2.766 -6.852,2.598 -6.953,2.369 -6.99,2.084 l -1.119,0.098 c 0.023,0.318 0.093,0.599 0.209,0.843 0.115,0.243 0.265,0.446 0.447,0.61 0.185,0.16 0.398,0.285 0.642,0.369 0.243,0.084 0.506,0.127 0.79,0.127 0.285,0 0.55,-0.041 0.796,-0.121 0.246,-0.082 0.461,-0.203 0.643,-0.362 0.186,-0.16 0.33,-0.363 0.436,-0.609 0.107,-0.248 0.16,-0.535 0.16,-0.867 0,-0.436 -0.09,-0.811 -0.27,-1.125 C -4.438,0.73 -4.67,0.43 -4.955,0.145 l -1.945,-1.979 2.914,0 0,-1.053 -4.213,0 0,1.237 z m -1.942,-0.758 c 0,0.144 0.049,0.269 0.147,0.375 0.098,0.103 0.215,0.156 0.351,0.156 0.133,0 0.248,-0.051 0.348,-0.15 0.1,-0.1 0.15,-0.223 0.15,-0.369 0,-0.145 -0.048,-0.27 -0.146,-0.375 -0.098,-0.104 -0.215,-0.157 -0.352,-0.157 -0.066,0 -0.13,0.014 -0.189,0.041 -0.061,0.028 -0.113,0.065 -0.16,0.11 -0.045,0.045 -0.082,0.099 -0.108,0.164 -0.027,0.062 -0.041,0.131 -0.041,0.205 m -1.693,3.41 -0.828,-0.84 -0.436,0.567 1.332,1.214 0.678,0 0,-4.83 -0.746,0 0,3.889 z"
             style="fill:#3067ba;fill-opacity:1;fill-rule:nonzero;stroke:none"
             id="path3543" /></g><g
           id="g3545"
           transform="translate(318.998,203.707)"><path
             d="m 0,0 0,0.813 -0.201,0 0,-0.813 -4.414,0 0,-1.167 0.201,0 0,0.966 4.213,0 0,-0.966 0.201,0 0,0.966 4.211,0 0,-0.966 0.201,0 L 4.412,0 0,0 z m 1.754,4.083 c 0,1.023 -0.83,1.854 -1.854,1.854 -1.025,0 -1.855,-0.831 -1.855,-1.854 l 0,-2.727 3.709,0 0,2.727 z M -0.1,8.735 c -0.716,0 -1.298,-0.582 -1.298,-1.298 0,-0.717 0.582,-1.299 1.298,-1.299 0.717,0 1.297,0.582 1.297,1.299 0,0.716 -0.58,1.298 -1.297,1.298 M -2.908,-5.606 c 0,0.886 -0.719,1.605 -1.604,1.605 -0.888,0 -1.607,-0.719 -1.607,-1.605 l 0,-2.362 3.211,0 0,2.362 z m -1.604,4.082 c -0.621,0 -1.125,-0.504 -1.125,-1.123 0,-0.622 0.504,-1.125 1.125,-1.125 0.619,0 1.121,0.503 1.121,1.125 0,0.619 -0.502,1.123 -1.121,1.123 m 10.43,-4.082 c 0,0.886 -0.721,1.605 -1.605,1.605 -0.887,0 -1.606,-0.719 -1.606,-1.605 l 0,-2.362 3.211,0 0,2.362 z m -1.605,4.082 c -0.622,0 -1.125,-0.504 -1.125,-1.123 0,-0.622 0.503,-1.125 1.125,-1.125 0.619,0 1.123,0.503 1.123,1.125 0,0.619 -0.504,1.123 -1.123,1.123 M 1.506,-5.606 c 0,0.886 -0.721,1.605 -1.606,1.605 -0.888,0 -1.607,-0.719 -1.607,-1.605 l 0,-2.362 3.213,0 0,2.362 z m -0.483,2.959 c 0,-0.622 -0.503,-1.125 -1.123,-1.125 -0.621,0 -1.125,0.503 -1.125,1.125 0,0.619 0.504,1.123 1.125,1.123 0.62,0 1.123,-0.504 1.123,-1.123"
             style="fill:#3067ba;fill-opacity:1;fill-rule:nonzero;stroke:none"
             id="path3547" /></g><g
           id="g3549"
           transform="translate(46.1582,204.3018)"><path
             d="M 0,0 C 0,2.01 -1.629,3.639 -3.641,3.639 -5.648,3.639 -7.279,2.01 -7.279,0 c 0,-1.432 0.826,-2.668 2.027,-3.264 l 0,-1.15 3.225,0.582 0,0.568 C -0.826,-2.668 0,-1.432 0,0 m -2.094,-5.559 -2.797,-0.504 c 0.092,-0.101 0.198,-0.187 0.317,-0.257 l 0,-0.627 1.871,0 0,0.627 c 0.285,0.172 0.504,0.441 0.609,0.761 m -3.158,0.438 3.225,0.582 0,0.408 -3.225,-0.58 0,-0.41 z m 0.172,-0.678 3.047,0.551 c 0.004,0.037 0.006,0.076 0.006,0.115 l 0,0.295 -3.196,-0.576 c 0.028,-0.137 0.077,-0.266 0.143,-0.385 m -3.113,7.07 -2.303,0.528 -0.1,-0.444 2.303,-0.525 0.1,0.441 z m 1.004,1.85 -1.846,1.473 -0.283,-0.356 1.845,-1.472 0.284,0.355 z m 1.703,1.233 -1.024,2.125 -0.41,-0.198 1.025,-2.125 0.409,0.198 z m 2.072,2.728 -0.453,0 0,-2.361 0.453,0 0,2.361 z m 3.053,-0.801 -0.41,0.198 -1.024,-2.125 0.408,-0.198 1.026,2.125 z M 2.037,4.238 1.754,4.594 -0.092,3.121 0.191,2.766 2.037,4.238 z M 1.012,0.83 0.912,1.271 3.215,1.799 3.316,1.355 1.012,0.83 z"
             style="fill:#3067ba;fill-opacity:1;fill-rule:nonzero;stroke:none"
             id="path3551" /></g><g
           id="g3553"
           transform="translate(326.3984,331.6494)"><path
             d="m 0,0 -7.215,4.166 0,-1.83 -7.785,0 0,-4.643 7.785,0 0,-1.857 L 0,0 z"
             style="fill:#3067ba;fill-opacity:1;fill-rule:nonzero;stroke:none"
             id="path3555" /></g><g
           id="g3557"
           transform="translate(324.7197,628.8008)"><path
             d="m 0,0 -4.777,0 c -0.922,0 -1.676,-0.755 -1.676,-1.677 l 0,-1.872 c 0,-0.923 0.754,-1.678 1.676,-1.678 l 2.597,0 1.684,-1.683 0,1.683 0.496,0 c 0.922,0 1.678,0.755 1.678,1.678 l 0,1.872 C 1.678,-0.755 0.922,0 0,0 m -2.896,6.21 0,-3.348 c 0,-0.923 -0.754,-1.676 -1.676,-1.676 l -3.826,0 -2.159,-2.159 0,2.159 -1.089,0 c -0.922,0 -1.676,0.753 -1.676,1.676 l 0,3.348 c 0,0.923 0.754,1.677 1.676,1.677 l 7.074,0 c 0.922,0 1.676,-0.754 1.676,-1.677"
             style="fill:#3067ba;fill-opacity:1;fill-rule:nonzero;stroke:none"
             id="path3559" /></g><g
           id="g3561"
           transform="translate(48.3115,625.1543)"><path
             d="m 0,0 -2.201,0 0,0.925 c 0,0 -10e-4,0 -0.002,-0.002 0.527,0.648 0.856,1.464 0.856,2.363 0,0.898 -0.328,1.712 -0.854,2.359 l 0,3.294 -6.245,0 0,2.202 8.446,0 L 0,0 z m -5.107,0.543 c -1.515,0 -2.742,1.228 -2.742,2.743 0,1.513 1.227,2.741 2.742,2.741 1.514,0 2.741,-1.228 2.741,-2.741 0,-1.515 -1.227,-2.743 -2.741,-2.743 m -4.741,-3.239 2.232,2.026 c 0.139,0.126 0.149,0.344 0.023,0.482 l -1.025,1.132 c -0.125,0.139 -0.341,0.149 -0.48,0.024 l -2.043,-1.856 0,9.333 8.446,0 0,-2.297 c 0,0 0,0 0,-0.002 -0.654,0.554 -1.489,0.9 -2.412,0.9 -2.077,0 -3.761,-1.685 -3.761,-3.76 0,-2.077 1.684,-3.761 3.761,-3.761 0.923,0 1.757,0.346 2.412,0.898 l 0,-3.119 -7.153,0 z m 0.908,14.331 0,-2.696 -2.695,0 0,-10.276 -0.334,-0.304 c -0.138,-0.125 -0.149,-0.341 -0.023,-0.48 l 0.357,-0.394 0,-0.675 0.611,0 0.057,-0.064 c 0.126,-0.14 0.34,-0.149 0.479,-0.023 l 0.095,0.087 8.192,0 0,2.696 2.695,0 0,12.129 -9.434,0 z"
             style="fill:#3067ba;fill-opacity:1;fill-rule:nonzero;stroke:none"
             id="path3563" /></g><g
           id="g3565"
           transform="translate(322.7979,421.9707)"><path
             d="m 0,0 c -0.82,1.378 -2.267,2.209 -3.868,2.22 l -0.03,0 c -1.601,0.011 -3.06,-0.798 -3.903,-2.165 -0.099,-0.161 -0.05,-0.372 0.113,-0.474 0.163,-0.099 0.375,-0.047 0.473,0.113 0.713,1.161 1.953,1.85 3.315,1.84 l 0.027,0 c 1.357,-0.013 2.588,-0.718 3.283,-1.888 0.098,-0.162 0.309,-0.217 0.473,-0.119 0.107,0.066 0.168,0.178 0.168,0.294 C 0.051,-0.118 0.035,-0.059 0,0 m -1.332,-1.263 c 0.102,0.066 0.16,0.176 0.161,0.29 0,0.062 -0.017,0.127 -0.054,0.183 -0.574,0.924 -1.566,1.483 -2.656,1.489 l -0.027,0 c -1.09,0.01 -2.09,-0.534 -2.678,-1.449 -0.102,-0.159 -0.059,-0.372 0.101,-0.474 0.159,-0.103 0.372,-0.058 0.475,0.102 0.463,0.717 1.244,1.14 2.096,1.135 l 0.028,0 c 0.853,-0.007 1.63,-0.443 2.079,-1.164 0.1,-0.163 0.313,-0.211 0.475,-0.112 M -2.111,-2.28 c 0,0.047 -0.009,0.091 -0.026,0.134 -0.297,0.713 -0.986,1.177 -1.756,1.182 l -0.029,0 c -0.771,0.006 -1.464,-0.446 -1.771,-1.156 -0.075,-0.175 0.005,-0.376 0.177,-0.451 0.176,-0.074 0.379,0.006 0.453,0.178 0.196,0.455 0.645,0.746 1.137,0.743 l 0.03,0 c 0.492,-0.004 0.935,-0.304 1.126,-0.758 0.069,-0.175 0.272,-0.259 0.447,-0.185 0.132,0.054 0.21,0.18 0.212,0.313 m -1.79,-0.885 c -0.801,0 -1.452,-0.648 -1.452,-1.453 l 0,-3.33 c 0,-0.801 0.651,-1.452 1.452,-1.452 0.802,0 1.453,0.651 1.453,1.452 l 0,3.33 c 0,0.805 -0.651,1.453 -1.453,1.453 m 2.852,-4.196 0,-0.824 c 0,-1.405 -1.027,-2.569 -2.369,-2.8 l 0,-0.828 0.727,0 0,-0.967 -2.42,0 0,0.967 0.726,0 0,0.828 c -1.342,0.231 -2.367,1.395 -2.367,2.8 l 0,0.824 c 0,0.267 0.217,0.484 0.484,0.484 0.268,0 0.485,-0.217 0.485,-0.484 l 0,-0.824 c 0,-1.038 0.844,-1.881 1.882,-1.881 1.039,0 1.883,0.843 1.883,1.881 l 0,0.824 c 0,0.267 0.217,0.484 0.485,0.484 0.267,0 0.484,-0.217 0.484,-0.484"
             style="fill:#3067ba;fill-opacity:1;fill-rule:nonzero;stroke:none"
             id="path3567" /></g><g
           id="g3569"
           transform="translate(43.2778,587.542)"><path
             d="M 0,0 -0.054,0.053 0.719,0.828 0.776,0.774 1.121,1.125 0.935,1.31 0.585,0.961 0.609,0.937 -0.162,0.162 -0.326,0.324 -0.58,0.579 -0.705,0.456 -0.446,0.199 -1.18,-0.536 -1.302,-0.489 -1.373,-0.558 c 0.211,-0.104 0.395,-0.238 0.556,-0.402 L 0,0 z m -1.879,3.724 -2.529,0 -0.274,-1.368 3.077,0 -0.274,1.368 z m 0.465,-4.564 c -0.182,0.099 -0.397,0.177 -0.653,0.229 l -2.592,-4.636 0.78,0 2.465,4.407 z m 0.956,-0.859 c 0.117,-0.239 0.307,-2.082 0.448,-3.57 l -1.111,0 -0.231,2.385 -0.074,-2.385 -3.433,0 -0.074,2.385 c 0,0 -0.016,0.317 -0.074,0.601 l -2.78,0.033 c -0.182,0.002 -0.348,0.108 -0.424,0.273 -0.082,0.165 -0.056,0.363 0.058,0.504 l 0.167,0.207 c 0.013,0.033 0.035,0.064 0.057,0.093 l 2.393,2.951 c 0.163,0.206 0.466,0.237 0.67,0.071 0.204,-0.165 0.236,-0.464 0.07,-0.67 l 0,-0.003 -1.617,-2.007 1.742,0.242 c 0.003,0.001 0.008,-0.003 0.012,-0.001 0.352,0.129 0.794,0.198 1.362,0.198 l 0.154,0 0.158,0 c 1.511,0 2.129,-0.494 2.527,-1.307 m -5.324,-3.57 0.787,0 -0.026,0.875 -0.761,-0.875 z m 1.063,7.151 c 0.014,0.073 0.014,0.153 0.037,0.223 l 3.077,0 c 0.05,-0.157 0.084,-0.322 0.084,-0.494 0,-0.896 -0.726,-1.623 -1.621,-1.623 -0.721,0 -1.327,0.474 -1.539,1.124 0.176,0.236 0.154,0.554 -0.038,0.77 m 8.475,-2.157 -0.154,0 -0.157,0 C 1.933,-0.275 1.317,-0.767 0.919,-1.579 0.8,-1.824 0.601,-3.764 0.461,-5.269 l 1.11,0 0.242,2.502 0.076,-2.502 3.424,0 0.076,2.502 0.241,-2.502 1.111,0 c -0.14,1.505 -0.34,3.445 -0.46,3.69 -0.396,0.812 -1.012,1.304 -2.525,1.304 m 1.465,2.001 c 0,-0.896 -0.727,-1.62 -1.619,-1.62 -0.898,0 -1.623,0.724 -1.623,1.62 0,0.895 0.725,1.62 1.623,1.62 0.892,0 1.619,-0.725 1.619,-1.62"
             style="fill:#3067ba;fill-opacity:1;fill-rule:nonzero;stroke:none"
             id="path3571" /></g><g
           id="g3573"
           transform="translate(42.5186,367.8604)"><path
             d="m 0,0 c -3.479,0 -6.31,2.83 -6.31,6.309 0,3.479 2.831,6.31 6.31,6.31 L 0,6.31 4.46,1.85 C 3.317,0.708 1.74,0 0,0 m 0,13.81 c -4.142,0 -7.5,-3.358 -7.5,-7.501 0,-4.142 3.358,-7.499 7.5,-7.499 2.071,0 3.946,0.839 5.304,2.196 C 6.661,2.363 7.5,4.238 7.5,6.309 7.5,10.452 4.142,13.81 0,13.81"
             style="fill:#3067ba;fill-opacity:1;fill-rule:nonzero;stroke:none"
             id="path3575" /></g><g
           id="g3577"
           transform="translate(317.3516,465.0244)"><path
             d="M 0,0 -1.355,-1.361 1.205,-3.921 5.533,0.405 4.543,1.412 1.234,-1.337 0,0 z m 3.859,-2.552 0,-2.063 -5.754,0 0,5.755 4.69,0 0.656,0.546 -5.892,0 0,-6.847 6.845,0 0,3.153 -0.545,-0.544 z m -5.754,-10.217 5.754,0 0,5.755 -5.754,0 0,-5.755 z m 6.299,-0.545 -6.846,0 0,6.847 6.846,0 0,-6.847 z"
             style="fill:#3067ba;fill-opacity:1;fill-rule:nonzero;stroke:none"
             id="path3579" /></g><g
           id="g3581"
           transform="translate(322.0127,671.2334)"><path
             d="M 0,0 -1.045,1.046 -1.252,0.534 -1.373,0.238 -1.49,-0.051 -1.096,-0.446 -0.508,-0.207 0,0 z M 4.174,3.525 0.539,-0.108 -0.395,-0.49 C -0.609,-0.575 -0.91,-0.699 -1.168,-0.803 -1.238,-0.832 -1.322,-0.865 -1.379,-0.889 L -1.822,-1.07 c -0.27,-0.109 -0.403,0.022 -0.291,0.294 l 0.177,0.442 c 0.026,0.058 0.059,0.14 0.088,0.211 0.106,0.257 0.227,0.561 0.313,0.772 L -1.152,1.584 2.48,5.218 C 2.703,5.441 3.014,5.497 3.168,5.341 L 4.297,4.212 C 4.451,4.057 4.396,3.748 4.174,3.525 M -3.594,2.265 -3.52,2.083 c 0.903,0.373 1.844,0.521 2.727,0.483 l 0.186,0.186 C -1.568,2.82 -2.605,2.674 -3.594,2.265 m 0,-2.387 0.074,-0.182 c 0.42,0.173 0.848,0.292 1.278,0.377 l 0.084,0.209 C -2.639,0.195 -3.123,0.072 -3.594,-0.122 m 0,1.193 0.074,-0.181 c 0.588,0.244 1.194,0.376 1.79,0.446 l 0.085,0.207 C -2.293,1.478 -2.953,1.336 -3.594,1.071 m -1.22,1.256 c 0,1.038 -1.374,1.599 -3.065,1.599 -0.812,0 -1.551,-0.195 -2.098,-0.511 l 0,-6.806 c 2.766,1.754 5.163,0.148 5.163,-0.127 l 0,5.845 z m 5.996,-2.417 0.597,0.599 0,-4.527 -5.117,0 c -0.178,-0.151 -0.594,-0.258 -1.08,-0.258 -0.486,0 -0.902,0.107 -1.078,0.258 l -5.119,0 0,6.98 0,1.045 c 3.369,1.463 5.83,0.028 6.258,-0.386 0.298,0.276 2.474,1.558 5.308,0.691 L 0.381,3.741 c -0.395,0.114 -0.832,0.185 -1.299,0.185 -1.691,0 -3.064,-0.561 -3.064,-1.599 l 0,-5.845 c 0,0.275 2.394,1.881 5.164,0.127 l 0,3.301 z M -5.457,2.265 C -6.996,2.9 -8.359,2.958 -9.613,2.44 l 0.074,-0.182 c 1.207,0.499 2.516,0.442 4.006,-0.175 l 0.076,0.182 z m 0,-2.387 c -1.539,0.636 -2.902,0.693 -4.156,0.175 l 0.074,-0.182 c 1.207,0.498 2.516,0.442 4.006,-0.175 l 0.076,0.182 z M -5.533,0.89 c -1.492,0.618 -2.803,0.673 -4.006,0.173 l -0.074,0.183 c 1.254,0.52 2.615,0.462 4.156,-0.175 L -5.533,0.89 z"
             style="fill:#3067ba;fill-opacity:1;fill-rule:nonzero;stroke:none"
             id="path3583" /></g><g
           id="g3585"
           transform="translate(42.4248,721.2998)"><path
             d="m 0,0 c -0.523,0 -0.95,-0.427 -0.95,-0.951 l 0,-2.428 c 0,-0.525 0.427,-0.952 0.95,-0.952 l 1.057,0 0,-1.19 1.189,1.19 2.885,0 c 0.523,0 0.95,0.427 0.95,0.952 l 0,2.428 C 6.081,-0.427 5.654,0 5.131,0 L 0,0 z m 0.524,-6.803 0,1.941 -0.524,0 c -0.817,0 -1.482,0.665 -1.482,1.483 l 0,2.428 c 0,0.817 0.665,1.481 1.482,1.481 l 5.131,0 c 0.817,0 1.482,-0.664 1.482,-1.481 l 0,-2.428 c 0,-0.818 -0.665,-1.483 -1.482,-1.483 l -2.665,0 -1.942,-1.941 z m -3.776,-7.667 4.07,0 0,3.612 c 0,1.124 -0.913,2.036 -2.035,2.036 -1.124,0 -2.035,-0.912 -2.035,-2.036 l 0,-3.612 z m -0.321,3.612 0,-2.801 -1.531,0 0,2.526 c 0,0.775 0.628,1.404 1.402,1.404 0.139,0 0.269,-0.027 0.394,-0.065 -0.164,-0.319 -0.265,-0.678 -0.265,-1.064 m 6.245,-2.801 -1.533,0 0,2.801 c 0,0.386 -0.101,0.745 -0.265,1.064 0.125,0.038 0.257,0.065 0.395,0.065 0.773,0 1.403,-0.629 1.403,-1.404 l 0,-2.526 z m -3.889,7.778 c -0.715,0 -1.297,-0.583 -1.297,-1.297 0,-0.717 0.582,-1.299 1.297,-1.299 0.715,0 1.299,0.582 1.299,1.299 0,0.714 -0.584,1.297 -1.299,1.297 m -4.239,-4.341 c 0.096,0 0.185,-0.019 0.273,-0.045 -0.151,-0.255 -0.243,-0.549 -0.243,-0.866 l 0,-1.841 -1,0 0,1.782 c 0,0.534 0.437,0.97 0.97,0.97 m 1.754,2.586 c -0.484,0 -0.877,-0.393 -0.877,-0.877 0,-0.485 0.393,-0.879 0.877,-0.879 0.483,0 0.878,0.394 0.878,0.879 0,0.484 -0.395,0.877 -0.878,0.877 m 7.695,-5.338 -0.999,0 0,1.841 c 0,0.317 -0.093,0.611 -0.243,0.866 0.088,0.026 0.178,0.045 0.274,0.045 0.534,0 0.968,-0.436 0.968,-0.97 l 0,-1.782 z m -2.724,5.338 c -0.484,0 -0.877,-0.393 -0.877,-0.877 0,-0.485 0.393,-0.879 0.877,-0.879 0.485,0 0.879,0.394 0.879,0.879 0,0.484 -0.394,0.877 -0.879,0.877 m -6.725,-1.073 c -0.326,0 -0.591,-0.265 -0.591,-0.59 0,-0.324 0.265,-0.589 0.591,-0.589 0.325,0 0.59,0.265 0.59,0.589 0,0.325 -0.265,0.59 -0.59,0.59 m 8.481,0 c -0.327,0 -0.591,-0.265 -0.591,-0.59 0,-0.324 0.264,-0.589 0.591,-0.589 0.325,0 0.589,0.265 0.589,0.589 0,0.325 -0.264,0.59 -0.589,0.59"
             style="fill:#3067ba;fill-opacity:1;fill-rule:nonzero;stroke:none"
             id="path3587" /></g><g
           id="g3589"
           transform="translate(46.1558,539.5713)"><path
             d="m 0,0 -1.894,0 0,4.629 L 0,6.516 0,0 z m -9.682,-2.357 0,9.68 4.886,0 L -6.289,5.835 -7.885,1.937 C -8.069,1.489 -7.85,1.271 -7.404,1.449 l 3.906,1.583 1.14,1.135 0,-6.524 -7.324,0 z m 2.357,12.037 4.894,0 -1.899,-1.893 -2.995,0 0,1.893 z m 3.468,-6.286 -2.57,-1.041 -0.552,0.554 1.049,2.567 2.073,-2.08 z m 6.581,6.769 -1.859,1.867 c -0.257,0.26 -0.769,0.169 -1.137,-0.199 l -1.695,-1.688 -5.821,0 0,-2.356 -2.357,0 0,-10.608 8.251,0 0,2.357 2.357,0 0,7.442 2.058,2.05 c 0.368,0.368 0.461,0.877 0.203,1.135"
             style="fill:#3067ba;fill-opacity:1;fill-rule:nonzero;stroke:none"
             id="path3591" /></g><g
           id="g3593"
           transform="translate(321.9473,367.8857)"><path
             d="m 0,0 -9.122,0 0,12.568 5.413,0 0,-3.712 0.585,0 -0.692,-0.689 -4.008,0 0,-0.608 3.398,0 -0.549,-0.546 -0.56,-1.369 -2.289,0 0,-0.609 2.041,0 -0.784,-1.915 -1.257,0 0,-0.608 6.529,0 0,0.608 -3.52,0 2.649,1.073 0.845,0.842 0.026,0 0,0.027 L 0,6.352 0,0 z M -2.527,4.557 -5.113,3.51 -5.668,4.067 -4.612,6.649 -2.527,4.557 z m -0.27,7.27 1.299,-1.349 -0.711,-0.709 -0.588,0 0,2.058 z m 6.889,-0.461 -1.87,1.878 c -0.258,0.261 -0.773,0.17 -1.144,-0.2 l -1.714,-1.708 -2.358,2.448 -7.344,0 0,-15 11.555,0 0,8.779 2.672,2.662 c 0.369,0.369 0.463,0.881 0.203,1.141"
             style="fill:#3067ba;fill-opacity:1;fill-rule:nonzero;stroke:none"
             id="path3595" /></g><g
           id="g3597"
           transform="translate(91.751,410.8301)"><path
             d="m 0,0 c 0,0 -0.427,-1.641 -2.396,-1.641 l -8.63,0 c -1.972,0 -2.4,1.641 -2.4,1.641 -1.288,5.687 2.632,8.771 2.632,8.771 l 8.163,0 C -2.631,8.771 1.288,5.687 0,0 m -9.636,13.338 c 1.582,0.176 2.131,-0.794 2.924,-0.834 0.791,0.04 1.342,1.01 2.922,0.834 1.617,-0.18 2.596,-1.553 2.596,-1.553 l -1.97,-1.833 -7.099,0 -1.969,1.833 c 0,0 0.981,1.373 2.596,1.553 m 8.923,2.521 -12,0 c -2.2,0 -4,-1.799 -4,-4 l 0,-12 c 0,-2.2 1.8,-4 4,-4 l 12,0 c 2.2,0 4,1.8 4,4 l 0,12 c 0,2.201 -1.8,4 -4,4 M -5.928,1.848 C -6.06,1.716 -6.231,1.635 -6.441,1.601 l 0,1.383 C -6.189,2.922 -6.007,2.834 -5.897,2.719 -5.786,2.604 -5.73,2.468 -5.73,2.31 -5.73,2.134 -5.796,1.979 -5.928,1.848 m -1.123,2.298 c -0.182,0.067 -0.318,0.153 -0.408,0.262 -0.09,0.107 -0.135,0.223 -0.135,0.349 0,0.138 0.049,0.261 0.148,0.376 0.098,0.113 0.229,0.194 0.395,0.24 l 0,-1.227 z m 0.61,-0.168 0,1.385 c 0.272,-0.098 0.44,-0.289 0.504,-0.566 l 1.064,0.116 c -0.073,0.354 -0.241,0.638 -0.504,0.849 -0.264,0.211 -0.619,0.339 -1.064,0.384 l 0,0.352 -0.61,0 0,-0.352 C -7.533,6.106 -7.919,5.954 -8.209,5.691 -8.5,5.428 -8.644,5.102 -8.644,4.715 -8.644,4.33 -8.517,4.007 -8.259,3.736 -8.003,3.47 -7.6,3.269 -7.051,3.137 l 0,-1.486 C -7.202,1.712 -7.34,1.812 -7.463,1.948 -7.586,2.086 -7.67,2.249 -7.715,2.437 L -8.812,2.339 c 0.083,-0.466 0.277,-0.826 0.58,-1.081 0.303,-0.257 0.696,-0.409 1.181,-0.457 l 0,-0.647 0.61,0 0,0.663 c 0.546,0.067 0.973,0.246 1.28,0.539 0.307,0.292 0.46,0.655 0.46,1.081 0,0.384 -0.121,0.698 -0.366,0.943 -0.244,0.244 -0.701,0.442 -1.374,0.598"
             style="fill:#3067ba;fill-opacity:1;fill-rule:nonzero;stroke:none"
             id="path3599" /></g><g
           id="g3601"
           transform="translate(83.73,586.9307)"><path
             d="m 0,0 c 0.257,-0.052 0.471,-0.13 0.653,-0.229 l -2.465,-4.407 -0.78,0 L 0,0 z m 7.698,-4.657 -0.242,2.502 -0.076,-2.502 -3.424,0 -0.076,2.502 -0.242,-2.502 -1.109,0 c 0.139,1.505 0.338,3.444 0.457,3.689 C 3.384,-0.155 4,0.336 5.512,0.336 l 0.157,0 0.155,0 c 1.512,0 2.129,-0.491 2.525,-1.304 0.12,-0.245 0.319,-2.184 0.459,-3.689 l -1.11,0 z M 1.25,-0.349 C 1.089,-0.185 0.905,-0.051 0.695,0.054 L 0.765,0.122 0.887,0.075 1.622,0.811 1.363,1.067 1.487,1.19 1.742,0.936 1.905,0.773 2.677,1.548 2.653,1.572 3.002,1.921 3.188,1.736 2.843,1.386 2.786,1.439 2.014,0.664 2.067,0.611 1.25,-0.349 z m -0.303,-4.308 -0.231,2.385 -0.075,-2.385 -3.433,0 -0.074,2.385 c 0,0 -0.016,0.316 -0.073,0.6 l -2.781,0.033 c -0.182,0.002 -0.348,0.109 -0.424,0.274 -0.082,0.165 -0.056,0.362 0.059,0.504 l 0.167,0.207 c 0.012,0.032 0.034,0.063 0.057,0.092 l 2.393,2.952 c 0.163,0.206 0.466,0.236 0.669,0.07 0.205,-0.165 0.236,-0.464 0.07,-0.67 l 0,-0.003 -1.616,-2.007 1.741,0.242 C -2.601,0.023 -2.596,0.02 -2.592,0.021 -2.24,0.15 -1.797,0.22 -1.23,0.22 l 0.154,0 0.158,0 c 1.512,0 2.129,-0.494 2.527,-1.308 0.117,-0.238 0.308,-2.082 0.449,-3.569 l -1.111,0 z m -4.662,0 0.761,0.875 0.027,-0.875 -0.788,0 z m 1.1,7.374 3.077,0 C 0.512,2.56 0.546,2.395 0.546,2.223 0.546,1.326 -0.18,0.6 -1.075,0.6 c -0.72,0 -1.327,0.473 -1.539,1.124 0.176,0.235 0.154,0.553 -0.038,0.769 0.015,0.073 0.015,0.153 0.037,0.224 m 0.275,1.618 2.528,0 0.274,-1.367 -3.077,0 0.275,1.367 z M 5.669,3.957 c 0.892,0 1.619,-0.725 1.619,-1.62 0,-0.896 -0.727,-1.619 -1.619,-1.619 -0.898,0 -1.623,0.723 -1.623,1.619 0,0.895 0.725,1.62 1.623,1.62 m 1.639,5.882 -12,0 c -2.2,0 -4,-1.8 -4,-4 l 0,-12 c 0,-2.2 1.8,-4 4,-4 l 12,0 c 2.2,0 4,1.8 4,4 l 0,12 c 0,2.2 -1.8,4 -4,4"
             style="fill:#3067ba;fill-opacity:1;fill-rule:nonzero;stroke:none"
             id="path3603" /></g><g
           id="g3605"
           transform="translate(365.2002,421.498)"><path
             d="m 0,0 c -0.164,-0.099 -0.375,-0.043 -0.473,0.119 -0.695,1.17 -1.925,1.875 -3.283,1.888 l -0.027,0 c -1.362,0.01 -2.602,-0.679 -3.315,-1.84 -0.098,-0.16 -0.31,-0.212 -0.472,-0.113 -0.163,0.101 -0.213,0.312 -0.114,0.473 0.843,1.368 2.302,2.177 3.903,2.165 l 0.03,0 C -2.149,2.682 -0.703,1.851 0.117,0.473 0.152,0.414 0.168,0.354 0.168,0.294 0.168,0.178 0.107,0.065 0,0 m -3.769,0.485 -0.028,0 C -4.648,0.49 -5.43,0.067 -5.893,-0.649 -5.996,-0.81 -6.209,-0.854 -6.368,-0.751 c -0.159,0.102 -0.203,0.314 -0.101,0.474 0.588,0.915 1.588,1.459 2.678,1.449 l 0.027,0 c 1.09,-0.006 2.082,-0.566 2.657,-1.489 0.036,-0.056 0.053,-0.121 0.053,-0.183 -10e-4,-0.114 -0.059,-0.225 -0.161,-0.29 -0.162,-0.1 -0.375,-0.052 -0.474,0.111 -0.45,0.722 -1.227,1.158 -2.08,1.164 m 1.438,-4.631 0,-3.33 c 0,-0.8 -0.65,-1.452 -1.453,-1.452 -0.801,0 -1.451,0.652 -1.451,1.452 l 0,3.33 c 0,0.805 0.65,1.454 1.451,1.454 0.803,0 1.453,-0.649 1.453,-1.454 m -0.321,2.21 c -0.192,0.455 -0.635,0.754 -1.126,0.758 l -0.031,0 c -0.492,0.003 -0.941,-0.287 -1.136,-0.742 -0.075,-0.173 -0.278,-0.252 -0.453,-0.179 -0.172,0.076 -0.252,0.277 -0.178,0.452 0.307,0.709 1,1.162 1.771,1.156 l 0.03,0 c 0.769,-0.005 1.459,-0.469 1.755,-1.183 0.017,-0.043 0.026,-0.087 0.026,-0.134 -0.002,-0.132 -0.08,-0.258 -0.212,-0.312 -0.175,-0.074 -0.378,0.01 -0.446,0.184 m 1.72,-5.776 c 0,-1.405 -1.027,-2.569 -2.369,-2.801 l 0,-0.827 0.727,0 0,-0.968 -2.42,0 0,0.968 0.726,0 0,0.827 c -1.341,0.232 -2.367,1.396 -2.367,2.801 l 0,0.823 c 0,0.268 0.217,0.485 0.485,0.485 0.267,0 0.484,-0.217 0.484,-0.485 l 0,-0.823 c 0,-1.038 0.844,-1.882 1.882,-1.882 1.039,0 1.884,0.844 1.884,1.882 l 0,0.823 c 0,0.268 0.216,0.485 0.484,0.485 0.268,0 0.484,-0.217 0.484,-0.485 l 0,-0.823 z m 3.149,12.904 -12,0 c -2.201,0 -4,-1.799 -4,-4 l 0,-12 c 0,-2.2 1.799,-4 4,-4 l 12,0 c 2.199,0 4,1.8 4,4 l 0,12 c 0,2.201 -1.801,4 -4,4"
             style="fill:#3067ba;fill-opacity:1;fill-rule:nonzero;stroke:none"
             id="path3607" /></g><g
           id="g3609"
           transform="translate(91.5576,720.3486)"><path
             d="m 0,0 c 0,0.817 -0.665,1.481 -1.482,1.481 l -5.131,0 C -7.431,1.481 -8.096,0.817 -8.096,0 l 0,-2.428 c 0,-0.818 0.665,-1.483 1.483,-1.483 l 0.524,0 0,-1.941 1.942,1.941 2.665,0 C -0.665,-3.911 0,-3.246 0,-2.428 L 0,0 z m -2.62,-10.241 c 0,0.534 -0.435,0.97 -0.968,0.97 -0.097,0 -0.186,-0.019 -0.274,-0.044 0.15,-0.256 0.243,-0.55 0.243,-0.867 l 0,-1.84 0.999,0 0,1.781 z m -0.968,1.304 c 0.324,0 0.589,0.265 0.589,0.589 0,0.326 -0.265,0.59 -0.589,0.59 -0.327,0 -0.592,-0.264 -0.592,-0.59 0,-0.324 0.265,-0.589 0.592,-0.589 m -0.353,-1.245 c 0,0.775 -0.63,1.404 -1.404,1.404 -0.137,0 -0.269,-0.027 -0.394,-0.065 0.164,-0.319 0.264,-0.678 0.264,-1.064 l 0,-2.801 1.534,0 0,2.526 z m -1.404,1.742 c 0.486,0 0.88,0.393 0.88,0.878 0,0.484 -0.394,0.877 -0.88,0.877 -0.483,0 -0.877,-0.393 -0.877,-0.877 0,-0.485 0.394,-0.878 0.877,-0.878 m -0.45,-1.467 c 0,1.124 -0.913,2.036 -2.035,2.036 -1.124,0 -2.035,-0.912 -2.035,-2.036 l 0,-3.612 4.07,0 0,3.612 z m -4.126,1.064 c -0.125,0.038 -0.256,0.065 -0.394,0.065 -0.774,0 -1.403,-0.629 -1.403,-1.404 l 0,-2.526 1.531,0 0,2.801 c 0,0.386 0.102,0.745 0.266,1.064 m -1.875,-0.472 c -0.089,0.025 -0.178,0.044 -0.273,0.044 -0.534,0 -0.97,-0.436 -0.97,-0.97 l 0,-1.781 1,0 0,1.84 c 0,0.317 0.092,0.611 0.243,0.867 m -0.864,0.967 c 0,-0.324 0.264,-0.589 0.591,-0.589 0.325,0 0.59,0.265 0.59,0.589 0,0.326 -0.265,0.59 -0.59,0.59 -0.327,0 -0.591,-0.264 -0.591,-0.59 m 1.468,0.786 c 0,-0.485 0.393,-0.878 0.877,-0.878 0.483,0 0.877,0.393 0.877,0.878 0,0.484 -0.394,0.877 -0.877,0.877 -0.484,0 -0.877,-0.393 -0.877,-0.877 m 2.065,1.335 c 0,-0.716 0.582,-1.298 1.297,-1.298 0.715,0 1.299,0.582 1.299,1.298 0,0.714 -0.584,1.297 -1.299,1.297 -0.715,0 -1.297,-0.583 -1.297,-1.297 m 12.607,6.208 0,-12 c 0,-2.2 -1.799,-4 -4,-4 l -12,0 c -2.2,0 -4,1.8 -4,4 l 0,12 c 0,2.201 1.8,4 4,4 l 12,0 c 2.201,0 4,-1.799 4,-4 M -0.532,0 l 0,-2.428 c 0,-0.525 -0.427,-0.952 -0.95,-0.952 l -2.885,0 -1.19,-1.189 0,1.189 -1.056,0 c -0.524,0 -0.95,0.427 -0.95,0.952 l 0,2.428 c 0,0.524 0.426,0.951 0.95,0.951 l 5.131,0 c 0.523,0 0.95,-0.427 0.95,-0.951"
             style="fill:#3067ba;fill-opacity:1;fill-rule:nonzero;stroke:none"
             id="path3611" /></g><g
           id="g3613"
           transform="translate(89.8999,457.1104)"><path
             d="m 0,0 c 0,0.904 -0.288,1.646 -0.865,2.225 -0.576,0.58 -1.66,1.05 -3.251,1.414 l 0,3.277 c 0.642,-0.234 1.04,-0.681 1.193,-1.341 l 2.516,0.278 C -0.581,6.69 -0.978,7.359 -1.602,7.859 -2.224,8.36 -3.063,8.664 -4.116,8.769 l 0,0.83 -1.442,0 0,-0.83 C -6.698,8.675 -7.611,8.315 -8.297,7.692 -8.983,7.069 -9.326,6.3 -9.326,5.382 c 0,-0.905 0.303,-1.675 0.909,-2.311 0.607,-0.633 1.56,-1.107 2.859,-1.421 l 0,-3.511 c -0.358,0.143 -0.683,0.378 -0.974,0.703 -0.292,0.324 -0.491,0.711 -0.597,1.158 l -2.595,-0.236 c 0.199,-1.101 0.656,-1.952 1.371,-2.556 0.717,-0.604 1.648,-0.965 2.795,-1.083 l 0,-1.526 1.442,0 0,1.569 c 1.292,0.156 2.302,0.58 3.027,1.274 C -0.363,-1.866 0,-1.013 0,0 m 5.138,8.099 0,-12 c 0,-2.201 -1.8,-4 -4,-4 l -12,0 c -2.2,0 -4,1.799 -4,4 l 0,12 c 0,2.2 1.8,4 4,4 l 12,0 c 2.2,0 4,-1.8 4,-4 m -9.254,-6.81 0,-3.268 c 0.496,0.077 0.901,0.272 1.212,0.582 0.312,0.311 0.467,0.674 0.467,1.094 0,0.373 -0.13,0.699 -0.392,0.969 -0.262,0.271 -0.691,0.48 -1.287,0.623 m -2.376,5.083 c 0.231,0.267 0.543,0.458 0.934,0.57 l 0,-2.901 c -0.431,0.156 -0.753,0.36 -0.964,0.616 -0.213,0.254 -0.318,0.53 -0.318,0.825 0,0.326 0.116,0.622 0.348,0.89"
             style="fill:#3067ba;fill-opacity:1;fill-rule:nonzero;stroke:none"
             id="path3615" /></g><g
           id="g3617"
           transform="translate(88.3608,289.0996)"><path
             d="M 0,0 0,-0.527 0.199,0 0,0 z m -2.242,0 -1.035,0 0,-3.215 3.2,0.002 0,0.672 c -0.15,-0.005 -0.296,0.052 -0.387,0.172 L -2.242,0 z m -2.847,0.079 1.24,2.484 c 0.071,0.141 0.21,0.237 0.367,0.25 0.045,0.003 0.084,-0.013 0.124,-0.02 l 0,0.501 -3.196,-0.002 0,-1.606 0.001,-1.607 1.464,0 z M 1.461,3.373 2.666,6.59 -0.002,6.588 -0.001,4.985 0,3.373 l 1.461,0 z m -8.092,-8.146 -2.601,-1.736 2.603,0 -0.002,1.603 0,0.133 z m 4.329,4.852 -0.976,1.301 10e-4,-1.301 0.975,0 z m 2.223,-0.818 0,0.739 -1.02,0 0.866,-1.153 0.154,0.414 z m -3.196,-4.161 10e-4,-1.607 3.197,0 0,3.215 -3.2,-0.002 0.002,-1.606 z m -0.081,1.606 -2.396,0 -0.616,-1.232 c -0.036,-0.071 -0.089,-0.133 -0.155,-0.177 l -0.029,-0.019 0,-0.184 0.002,-1.603 3.197,0.002 -10e-4,1.607 -0.002,1.606 z M -6.553,0 l 0,-2.854 L -5.128,0 -6.553,0 z m 5.394,0.079 1.08,0 0,3.215 -1.6,0 -1.6,0 0,-0.516 c 0.08,-0.028 0.152,-0.074 0.205,-0.145 l 1.915,-2.554 z m 1.161,-3.371 0,-3.215 3.198,0 -0.002,3.218 -3.196,-0.003 z m 3.195,6.588 -0.789,0 -1.203,-3.215 1.993,0 -10e-4,3.215 z m -8.909,-6.511 2.356,0 0,3.215 -0.751,0 -1.605,-3.215 z M 4.177,-7.465 4.172,7.529 -10.823,7.525 -10.821,-7.469 4.177,-7.465 z m 2.5,13.496 0,-12.002 c 0,-2.2 -1.8,-4 -4,-4 l -12,0 c -2.2,0 -4,1.8 -4,4 l 0,12.002 c 0,2.2 1.8,4 4,4 l 12,0 c 2.2,0 4,-1.8 4,-4 m -3.48,-2.656 0,2.028 -0.759,-2.03 0.759,0.002 z m -7.265,-3.296 0.712,0 -0.001,1.407 -0.005,0.006 -0.706,-1.413 z m -2.705,-3.373 -3.057,-0.002 0,-2.515 2.699,1.802 0.358,0.715 z m 6.694,6.667 -0.001,1.612 -0.001,1.603 -3.198,0 0,-3.215 1.6,0 1.6,0 z m -8.152,-6.588 1.497,0 0.102,0.204 0,3.011 -3.2,-0.002 0.002,-3.215 1.599,0.002 z m 4.873,9.803 -3.196,-0.002 0,-3.215 3.196,0.002 0,3.215 z m 3.36,-9.801 3.196,0.002 0,3.213 -2.024,0 L 0.33,-2.255 C 0.274,-2.398 0.15,-2.498 0.002,-2.531 l 0,-0.682 z m -8.234,6.584 1.599,0 0,3.215 -3.2,0 10e-4,-3.215 1.6,0 z m 0,-0.079 -1.6,0 0,-3.215 3.2,0.002 -0.001,1.607 0,1.606 -1.599,0 z M 1.432,3.294 0.229,0.079 0,0.079 l 0,3.215 1.432,0 z"
             style="fill:#3067ba;fill-opacity:1;fill-rule:nonzero;stroke:none"
             id="path3619" /></g><path
           d="m 91.008,244.984 -11.94,0 0,7.951 11.94,0 0,-7.951 z m 0.436,-5.9 -12.801,0.007 c -0.788,0 -1.261,0.622 -1.059,1.381 l 0.293,1.071 c 0.205,0.761 1.018,1.381 1.802,1.381 l 10.679,0 c 0.788,0 1.604,-0.62 1.82,-1.376 l 0.308,-1.093 c 0.214,-0.756 -0.256,-1.374 -1.042,-1.371 m -13.575,14.451 c 0,0.332 0.27,0.6 0.599,0.6 l 13.139,0 c 0.332,0 0.6,-0.268 0.6,-0.6 l 0,-9.15 c 0,-0.329 -0.268,-0.6 -0.6,-0.6 l -13.139,0 c -0.329,0 -0.599,0.271 -0.599,0.6 l 0,9.15 z m 13.169,3.074 -12,0 c -2.2,0 -4,-1.799 -4,-4 l 0,-12 c 0,-2.2 1.8,-4 4,-4 l 12,0 c 2.2,0 4,1.8 4,4 l 0,12 c 0,2.201 -1.8,4 -4,4"
           style="fill:#3067ba;fill-opacity:1;fill-rule:nonzero;stroke:none"
           id="path3621" /><g
           id="g3623"
           transform="translate(85.0381,374.1699)"><path
             d="M 0,0 4.46,-4.46 C 3.317,-5.602 1.74,-6.31 0,-6.31 c -3.479,0 -6.31,2.831 -6.31,6.309 0,3.48 2.831,6.311 6.31,6.311 L 0,0 z M 5.304,-5.304 C 3.946,-6.66 2.071,-7.5 0,-7.5 c -4.142,0 -7.5,3.357 -7.5,7.499 0,4.144 3.358,7.501 7.5,7.501 4.142,0 7.5,-3.357 7.5,-7.501 0,-2.07 -0.839,-3.945 -2.196,-5.303 M 6,10 -6,10 c -2.2,0 -4,-1.8 -4,-4 l 0,-12 c 0,-2.2 1.8,-4 4,-4 l 12,0 c 2.2,0 4,1.8 4,4 l 0,12 c 0,2.2 -1.8,4 -4,4"
             style="fill:#3067ba;fill-opacity:1;fill-rule:nonzero;stroke:none"
             id="path3625" /></g><g
           id="g3627"
           transform="translate(90.501,328.7168)"><path
             d="m 0,0 -2.037,3.529 1.186,0 c -0.168,1.287 -0.869,2.462 -1.95,3.219 l 0.939,1.339 C -0.345,7.022 0.612,5.351 0.787,3.529 l 1.25,0 L 0,0 z m -4.865,-3.316 0,-1.25 -3.53,2.037 3.53,2.037 0,-1.187 c 1.286,0.168 2.461,0.869 3.217,1.949 l 1.338,-0.939 c -1.062,-1.517 -2.734,-2.473 -4.555,-2.647 m -6.848,5.652 -1.25,0 2.037,3.529 2.037,-3.529 -1.186,0 c 0.167,-1.288 0.869,-2.463 1.949,-3.218 l -0.937,-1.341 c -1.518,1.063 -2.475,2.737 -2.65,4.559 m 5.654,6.846 0,1.25 3.53,-2.037 -3.53,-2.038 0,1.187 C -7.347,7.377 -8.521,6.675 -9.276,5.595 l -1.341,0.936 c 1.062,1.519 2.736,2.476 4.558,2.651 m 6.596,3.751 -12,0 c -2.2,0 -4,-1.8 -4,-4 l 0,-12 c 0,-2.201 1.8,-4 4,-4 l 12,0 c 2.2,0 4,1.799 4,4 l 0,12 c 0,2.2 -1.8,4 -4,4"
             style="fill:#3067ba;fill-opacity:1;fill-rule:nonzero;stroke:none"
             id="path3629" /></g><g
           id="g3631"
           transform="translate(369.5254,709.9746)"><path
             d="m 0,0 -1.557,0 0,2.865 c 0,0.493 -0.142,0.95 -0.377,1.348 0.137,0.04 0.278,0.068 0.426,0.068 C -0.676,4.281 0,3.604 0,2.771 L 0,0 z m -2.057,-1.066 -2.384,0 0,4.359 c 0,0.6 -0.159,1.157 -0.414,1.657 0.197,0.058 0.4,0.099 0.615,0.099 1.205,0 2.183,-0.98 2.183,-2.184 l 0,-3.931 z m -2.884,-1.262 -6.336,0 0,5.621 c 0,1.747 1.422,3.168 3.168,3.168 1.748,0 3.168,-1.421 3.168,-3.168 l 0,-5.621 z m -6.836,5.621 0,-4.359 -2.383,0 0,3.931 c 0,1.204 0.98,2.184 2.183,2.184 0.215,0 0.418,-0.041 0.614,-0.099 -0.256,-0.5 -0.414,-1.057 -0.414,-1.657 m -2.883,-0.428 0,-2.865 -1.557,0 0,2.771 c 0,0.833 0.678,1.51 1.51,1.51 0.148,0 0.289,-0.028 0.424,-0.068 -0.233,-0.398 -0.377,-0.855 -0.377,-1.348 m -0.047,3.774 c 0.506,0 0.918,-0.412 0.918,-0.918 0,-0.506 -0.412,-0.918 -0.918,-0.918 -0.506,0 -0.92,0.412 -0.92,0.918 0,0.506 0.414,0.918 0.92,0.918 m 2.73,1.67 c 0.754,0 1.366,-0.614 1.366,-1.368 0,-0.753 -0.612,-1.365 -1.366,-1.365 -0.753,0 -1.367,0.612 -1.367,1.365 0,0.754 0.614,1.368 1.367,1.368 m 3.868,2.73 c 1.115,0 2.021,-0.906 2.021,-2.019 0,-1.115 -0.906,-2.022 -2.021,-2.022 -1.114,0 -2.02,0.907 -2.02,2.022 0,1.113 0.906,2.019 2.02,2.019 m 3.869,-2.73 c 0.754,0 1.367,-0.614 1.367,-1.368 0,-0.753 -0.613,-1.365 -1.367,-1.365 -0.752,0 -1.365,0.612 -1.365,1.365 0,0.754 0.613,1.368 1.365,1.368 m 2.732,-1.67 c 0.506,0 0.918,-0.412 0.918,-0.918 0,-0.506 -0.412,-0.918 -0.918,-0.918 -0.506,0 -0.92,0.412 -0.92,0.918 0,0.506 0.414,0.918 0.92,0.918 m -0.599,7.716 -12,0 c -2.202,0 -4,-1.799 -4,-4 l 0,-12 c 0,-2.2 1.798,-4 4,-4 l 12,0 c 2.199,0 4,1.8 4,4 l 0,12 c 0,2.201 -1.801,4 -4,4"
             style="fill:#3067ba;fill-opacity:1;fill-rule:nonzero;stroke:none"
             id="path3633" /></g><g
           id="g3635"
           transform="translate(366.7725,244.9922)"><path
             d="m 0,0 c -1.201,-0.446 -2.518,-0.138 -3.514,0.69 l -7.588,-5.305 -1.753,2.508 7.814,5.463 c -0.328,1.861 0.559,3.681 2.203,4.291 1.098,0.408 2.291,0.187 3.248,-0.488 L -2.246,6.176 -2.727,3.339 -0.512,1.502 2.145,2.488 C 1.855,1.352 1.098,0.407 0,0 M 1.813,5.021 1.506,3.204 -0.225,2.563 -1.646,3.739 -1.336,5.558 0.393,6.2 1.813,5.021 z m -1.168,6.597 -12,0 c -2.202,0 -4,-1.8 -4,-4 l 0,-12 c 0,-2.2 1.798,-4 4,-4 l 12,0 c 2.199,0 4,1.8 4,4 l 0,12 c 0,2.2 -1.801,4 -4,4"
             style="fill:#3067ba;fill-opacity:1;fill-rule:nonzero;stroke:none"
             id="path3637" /></g><g
           id="g3639"
           transform="translate(368.7959,286.3936)"><path
             d="m 0,0 c -0.082,-0.178 -0.191,-0.326 -0.326,-0.447 -0.137,-0.121 -0.297,-0.211 -0.477,-0.274 -0.181,-0.06 -0.369,-0.092 -0.562,-0.092 -0.184,0 -0.356,0.022 -0.518,0.065 -0.16,0.043 -0.306,0.111 -0.437,0.203 -0.131,0.09 -0.244,0.207 -0.34,0.35 -0.096,0.142 -0.168,0.316 -0.217,0.515 l 0.795,0.233 c 0.045,-0.201 0.127,-0.356 0.242,-0.465 0.117,-0.109 0.276,-0.164 0.475,-0.164 0.099,0 0.193,0.019 0.281,0.055 0.09,0.037 0.17,0.087 0.238,0.154 0.069,0.066 0.121,0.146 0.16,0.238 0.04,0.094 0.061,0.197 0.061,0.311 0,0.154 -0.031,0.281 -0.092,0.379 -0.058,0.097 -0.137,0.171 -0.23,0.224 -0.092,0.053 -0.198,0.088 -0.313,0.106 -0.117,0.017 -0.23,0.027 -0.342,0.027 l -0.181,0 0,0.738 0.193,0 c 0.108,0 0.213,0.006 0.315,0.02 0.101,0.013 0.191,0.043 0.273,0.09 0.08,0.043 0.147,0.111 0.195,0.197 0.051,0.086 0.077,0.201 0.077,0.348 0,0.185 -0.059,0.337 -0.176,0.457 -0.115,0.119 -0.268,0.177 -0.453,0.177 -0.151,0 -0.284,-0.047 -0.403,-0.14 C -1.879,3.211 -1.965,3.08 -2.02,2.912 l -0.789,0.233 c 0.049,0.177 0.12,0.332 0.211,0.464 0.092,0.131 0.2,0.239 0.325,0.323 0.123,0.086 0.259,0.146 0.41,0.187 0.148,0.041 0.304,0.063 0.465,0.063 0.191,0 0.373,-0.028 0.543,-0.082 0.169,-0.055 0.318,-0.135 0.447,-0.243 0.129,-0.107 0.23,-0.24 0.308,-0.402 0.077,-0.162 0.116,-0.35 0.116,-0.562 0,-0.26 -0.067,-0.491 -0.2,-0.694 C -0.316,1.998 -0.5,1.863 -0.738,1.801 l 0,-0.014 C -0.457,1.742 -0.242,1.609 -0.098,1.391 0.049,1.174 0.121,0.914 0.121,0.613 0.121,0.381 0.08,0.176 0,0 m -3.971,-0.615 c -0.097,-0.104 -0.215,-0.156 -0.351,-0.156 -0.067,0 -0.129,0.013 -0.19,0.041 -0.06,0.027 -0.113,0.064 -0.158,0.109 -0.047,0.045 -0.082,0.1 -0.109,0.164 -0.028,0.062 -0.041,0.131 -0.041,0.205 0,0.145 0.049,0.27 0.146,0.375 0.098,0.104 0.215,0.156 0.352,0.156 0.133,0 0.25,-0.05 0.347,-0.15 0.1,-0.1 0.151,-0.223 0.151,-0.369 0,-0.145 -0.049,-0.27 -0.147,-0.375 m -1.797,0.937 0,-1.052 -4.212,0 0,1.236 2.443,2.594 c 0.07,0.078 0.144,0.16 0.223,0.248 0.076,0.088 0.146,0.181 0.21,0.277 0.061,0.1 0.112,0.201 0.155,0.309 0.041,0.105 0.062,0.218 0.062,0.336 0,0.142 -0.025,0.269 -0.076,0.378 C -7.014,4.76 -7.08,4.855 -7.164,4.932 -7.246,5.01 -7.342,5.07 -7.453,5.113 -7.561,5.154 -7.68,5.176 -7.803,5.176 -8.07,5.176 -8.289,5.092 -8.459,4.922 -8.633,4.754 -8.736,4.525 -8.771,4.24 l -1.12,0.098 c 0.022,0.318 0.092,0.6 0.209,0.844 0.114,0.242 0.264,0.445 0.448,0.609 0.185,0.16 0.398,0.285 0.64,0.369 0.242,0.084 0.508,0.127 0.791,0.127 0.283,0 0.551,-0.041 0.795,-0.121 0.246,-0.082 0.461,-0.203 0.645,-0.361 0.183,-0.16 0.328,-0.364 0.435,-0.61 0.106,-0.248 0.16,-0.535 0.16,-0.867 0,-0.435 -0.089,-0.81 -0.271,-1.125 -0.18,-0.316 -0.412,-0.617 -0.697,-0.902 l -1.946,-1.979 2.914,0 z m -5.306,-0.937 c -0.098,-0.104 -0.215,-0.156 -0.352,-0.156 -0.064,0 -0.129,0.013 -0.189,0.041 -0.059,0.027 -0.114,0.064 -0.158,0.109 -0.047,0.045 -0.082,0.1 -0.11,0.164 -0.025,0.062 -0.041,0.131 -0.041,0.205 0,0.145 0.051,0.27 0.147,0.375 0.097,0.104 0.214,0.156 0.351,0.156 0.133,0 0.25,-0.05 0.35,-0.15 0.099,-0.1 0.148,-0.223 0.148,-0.369 0,-0.145 -0.049,-0.27 -0.146,-0.375 m -1.797,-0.115 -0.746,0 0,3.888 -0.828,-0.84 -0.434,0.567 1.33,1.215 0.678,0 0,-4.83 z m 11.492,13.468 -12,0 c -2.201,0 -4,-1.8 -4,-4 l 0,-12.002 c 0,-2.2 1.799,-4 4,-4 l 12,0 c 2.199,0 4,1.8 4,4 l 0,12.002 c 0,2.2 -1.801,4 -4,4"
             style="fill:#3067ba;fill-opacity:1;fill-rule:nonzero;stroke:none"
             id="path3641" /></g><g
           id="g3643"
           transform="translate(367.4355,195.7393)"><path
             d="m 0,0 -3.211,0 0,2.361 c 0,0.887 0.719,1.606 1.606,1.606 C -0.721,3.967 0,3.248 0,2.361 L 0,0 z m -4.412,0 -3.213,0 0,2.361 c 0,0.887 0.719,1.606 1.607,1.606 0.885,0 1.606,-0.719 1.606,-1.606 l 0,-2.361 z m -4.414,0 -3.211,0 0,2.361 c 0,0.887 0.719,1.606 1.607,1.606 0.885,0 1.604,-0.719 1.604,-1.606 l 0,-2.361 z m -1.604,6.443 c 0.619,0 1.121,-0.504 1.121,-1.123 0,-0.621 -0.502,-1.125 -1.121,-1.125 -0.621,0 -1.125,0.504 -1.125,1.125 0,0.619 0.504,1.123 1.125,1.123 M -4.895,5.32 c 0,-0.621 -0.503,-1.125 -1.123,-1.125 -0.621,0 -1.125,0.504 -1.125,1.125 0,0.619 0.504,1.123 1.125,1.123 0.62,0 1.123,-0.504 1.123,-1.123 m -5.637,2.648 4.414,0 0,0.813 0.201,0 0,-0.813 4.412,0 0,-1.167 -0.201,0 0,0.966 -4.211,0 0,-0.966 -0.201,0 0,0.966 -4.213,0 0,-0.966 -0.201,0 0,1.167 z m 2.659,4.083 c 0,1.023 0.83,1.853 1.855,1.853 1.024,0 1.854,-0.83 1.854,-1.853 l 0,-2.727 -3.709,0 0,2.727 z m 1.855,4.652 c 0.717,0 1.297,-0.582 1.297,-1.299 0,-0.716 -0.58,-1.299 -1.297,-1.299 -0.716,0 -1.298,0.583 -1.298,1.299 0,0.717 0.582,1.299 1.298,1.299 M -0.482,5.32 c 0,-0.621 -0.504,-1.125 -1.123,-1.125 -0.622,0 -1.125,0.504 -1.125,1.125 0,0.619 0.503,1.123 1.125,1.123 0.619,0 1.123,-0.504 1.123,-1.123 m 0.463,13.032 -12,0 c -2.2,0 -4,-1.8 -4,-4 l 0,-12 c 0,-2.201 1.8,-4 4,-4 l 12,0 c 2.201,0 4,1.799 4,4 l 0,12 c 0,2.2 -1.799,4 -4,4"
             style="fill:#3067ba;fill-opacity:1;fill-rule:nonzero;stroke:none"
             id="path3645" /></g><g
           id="g3647"
           transform="translate(89.6904,205.1318)"><path
             d="M 0,0 -0.101,0.441 2.202,0.969 2.304,0.525 0,0 z M -1.104,2.291 0.742,3.764 1.025,3.408 -0.82,1.936 -1.104,2.291 z m -1.935,-6.385 0,-0.568 -3.225,-0.582 0,1.15 c -1.201,0.596 -2.027,1.832 -2.027,3.264 0,2.01 1.63,3.639 3.639,3.639 2.01,0 3.639,-1.629 3.639,-3.639 0,-1.432 -0.825,-2.668 -2.026,-3.264 m 0,-1.275 -3.225,-0.582 0,0.41 3.225,0.58 0,-0.408 z m 0,-0.594 c 0,-0.039 -0.002,-0.078 -0.006,-0.115 l -3.048,-0.551 c -0.065,0.119 -0.114,0.248 -0.142,0.385 l 3.196,0.576 0,-0.295 z m -0.677,-1.187 0,-0.627 -1.871,0 0,0.627 c -0.118,0.07 -0.225,0.156 -0.316,0.257 l 2.797,0.504 c -0.105,-0.32 -0.325,-0.59 -0.61,-0.761 M -10.33,3.408 -10.047,3.764 -8.202,2.291 -8.485,1.936 -10.33,3.408 z M -9.306,0 l -2.302,0.525 0.1,0.444 L -9.205,0.441 -9.306,0 z m 1.784,5.648 1.024,-2.125 -0.409,-0.197 -1.025,2.125 0.41,0.197 z m 2.642,0.604 0.454,0 0,-2.361 -0.454,0 0,2.361 z m 3.097,-0.604 0.409,-0.197 -1.024,-2.125 -0.409,0.197 1.024,2.125 z m 3.131,3.589 -12,0 c -2.201,0 -4,-1.799 -4,-4 l 0,-12 c 0,-2.2 1.799,-4 4,-4 l 12,0 c 2.2,0 4,1.8 4,4 l 0,12 c 0,2.201 -1.8,4 -4,4"
             style="fill:#3067ba;fill-opacity:1;fill-rule:nonzero;stroke:none"
             id="path3649" /></g><g
           id="g3651"
           transform="translate(368.7061,674.7588)"><path
             d="M 0,0 -3.633,-3.634 -4.568,-4.016 C -4.781,-4.101 -5.084,-4.225 -5.34,-4.328 -5.412,-4.357 -5.494,-4.391 -5.553,-4.414 l -0.443,-0.182 c -0.268,-0.108 -0.402,0.023 -0.291,0.294 l 0.18,0.443 c 0.025,0.057 0.056,0.139 0.087,0.211 0.106,0.256 0.227,0.56 0.313,0.772 l 0.381,0.935 3.633,3.633 c 0.224,0.224 0.533,0.28 0.689,0.123 L 0.123,0.687 C 0.279,0.531 0.223,0.223 0,0 m -7.691,-1.442 -0.075,0.181 c 0.989,0.409 2.026,0.556 2.985,0.488 l -0.184,-0.186 c -0.883,0.037 -1.824,-0.11 -2.726,-0.483 m 1.361,-1.801 -0.086,-0.209 c -0.428,-0.085 -0.855,-0.204 -1.275,-0.377 l -0.075,0.182 c 0.471,0.194 0.953,0.317 1.436,0.404 m -1.361,0.607 -0.075,0.182 c 0.639,0.265 1.299,0.406 1.948,0.472 L -5.902,-2.189 C -6.498,-2.26 -7.104,-2.392 -7.691,-2.636 m 5.298,-4.907 -5.119,0 c -0.176,-0.151 -0.592,-0.259 -1.078,-0.259 -0.488,0 -0.904,0.108 -1.078,0.259 l -5.121,0 0,6.98 0,1.044 c 3.369,1.463 5.83,0.029 6.26,-0.385 0.297,0.276 2.474,1.557 5.308,0.69 l -0.57,-0.57 C -4.188,0.33 -4.623,0.4 -5.09,0.4 c -1.693,0 -3.064,-0.56 -3.064,-1.598 l 0,-5.845 c 0,0.274 2.394,1.881 5.162,0.127 l 0,3.301 0.599,0.598 0,-4.526 z m 1.104,14.594 -12,0 c -2.199,0 -4,-1.8 -4,-4 l 0,-12 c 0,-2.2 1.801,-4 4,-4 l 12,0 c 2.201,0 4,1.8 4,4 l 0,12 c 0,2.2 -1.799,4 -4,4 m -3.928,-9.53 1.045,-1.046 -0.51,-0.207 -0.586,-0.24 -0.394,0.396 0.117,0.289 0.119,0.296 0.209,0.512 z m -4.488,1.037 c -1.492,0.617 -2.801,0.673 -4.008,0.174 l -0.074,0.183 c 1.256,0.518 2.617,0.46 4.156,-0.176 l -0.074,-0.181 z m 0,-1.194 c -1.494,0.618 -2.803,0.674 -4.008,0.174 l -0.074,0.183 c 1.254,0.519 2.617,0.462 4.156,-0.175 l -0.074,-0.182 z m 0,-1.193 c -1.492,0.616 -2.801,0.673 -4.008,0.175 l -0.074,0.181 c 1.256,0.519 2.617,0.461 4.156,-0.174 L -9.705,-3.829 z M -12.051,0.4 c -0.812,0 -1.551,-0.194 -2.099,-0.51 l 0,-6.806 c 2.767,1.754 5.162,0.147 5.162,-0.127 l 0,5.845 c 0,1.038 -1.371,1.598 -3.063,1.598"
             style="fill:#3067ba;fill-opacity:1;fill-rule:nonzero;stroke:none"
             id="path3653" /></g><g
           id="g3655"
           transform="translate(361.7031,327.4854)"><path
             d="m 0,0 0,1.857 -7.785,0 0,4.643 L 0,6.5 0,8.33 7.215,4.164 0,0 z m 5.715,14.165 -12,0 c -2.201,0 -4,-1.8 -4,-4 l 0,-12 c 0,-2.2 1.799,-4 4,-4 l 12,0 c 2.199,0 4,1.8 4,4 l 0,12 c 0,2.2 -1.801,4 -4,4"
             style="fill:#3067ba;fill-opacity:1;fill-rule:nonzero;stroke:none"
             id="path3657" /></g><g
           id="g3659"
           transform="translate(368.917,625.252)"><path
             d="m 0,0 c 0,-0.923 -0.756,-1.678 -1.678,-1.678 l -0.496,0 0,-1.683 -1.683,1.683 -2.598,0 c -0.922,0 -1.676,0.755 -1.676,1.678 l 0,1.872 c 0,0.922 0.754,1.677 1.676,1.677 l 4.777,0 C -0.756,3.549 0,2.794 0,1.872 L 0,0 z m -12.234,2.576 0,2.158 -1.09,0 C -14.246,4.734 -15,5.488 -15,6.411 l 0,3.348 c 0,0.923 0.754,1.677 1.676,1.677 l 7.074,0 c 0.922,0 1.676,-0.754 1.676,-1.677 l 0,-3.348 c 0,-0.923 -0.754,-1.677 -1.676,-1.677 l -3.826,0 -2.158,-2.158 z m 10.734,11.461 -12,0 c -2.201,0 -4,-1.8 -4,-4 l 0,-12 c 0,-2.2 1.799,-4 4,-4 l 12,0 c 2.199,0 4,1.8 4,4 l 0,12 c 0,2.2 -1.801,4 -4,4"
             style="fill:#3067ba;fill-opacity:1;fill-rule:nonzero;stroke:none"
             id="path3661" /></g><g
           id="g3663"
           transform="translate(81.9634,628.4404)"><path
             d="m 0,0 c 0,2.075 1.684,3.76 3.76,3.76 0.924,0 1.759,-0.346 2.413,-0.9 0,0.002 -0.001,0.002 -0.001,0.002 l 0,2.297 -8.445,0 0,-9.333 2.043,1.856 c 0.138,0.125 0.355,0.115 0.48,-0.024 L 1.275,-3.475 C 1.4,-3.612 1.391,-3.83 1.252,-3.956 l -2.232,-2.026 7.152,0 0,3.119 C 5.518,-3.415 4.684,-3.761 3.76,-3.761 1.684,-3.761 0,-2.077 0,0 M 3.76,2.741 C 2.246,2.741 1.019,1.513 1.019,0 c 0,-1.516 1.227,-2.743 2.741,-2.743 1.515,0 2.742,1.227 2.742,2.743 0,1.513 -1.227,2.741 -2.742,2.741 m 5.602,5.608 -9.434,0 0,-2.696 -2.696,0 0,-10.276 -0.333,-0.304 C -3.24,-5.052 -3.25,-5.269 -3.124,-5.407 l 0.356,-0.394 0,-0.676 0.611,0 0.058,-0.063 c 0.125,-0.14 0.34,-0.149 0.478,-0.023 l 0.096,0.086 8.192,0 0,2.697 2.695,0 0,12.129 z m 3.713,-1.5 0,-12 c 0,-2.201 -1.8,-4 -4,-4 l -12,0 c -2.2,0 -4,1.799 -4,4 l 0,12 c 0,2.2 1.8,4 4,4 l 12,0 c 2.2,0 4,-1.8 4,-4 m -6.408,-1.196 -6.245,0 0,2.201 8.446,0 0,-11.14 -2.201,0 0,0.925 c 0,0 -10e-4,0 -0.002,-0.002 0.527,0.648 0.856,1.464 0.856,2.363 0,0.897 -0.328,1.712 -0.854,2.358 l 0,3.295 z"
             style="fill:#3067ba;fill-opacity:1;fill-rule:nonzero;stroke:none"
             id="path3665" /></g><g
           id="g3667"
           transform="translate(91.3994,549.7344)"><path
             d="m 0,0 -1.859,1.867 c -0.257,0.26 -0.769,0.169 -1.138,-0.199 l -1.694,-1.689 -5.821,0 0,-2.355 -2.357,0 0,-10.608 8.251,0 0,2.357 2.357,0 0,7.441 2.058,2.051 C 0.165,-0.768 0.258,-0.258 0,0 m 3.639,0.516 0,-12 c 0,-2.201 -1.8,-4 -4,-4 l -12,0 c -2.201,0 -4,1.799 -4,4 l 0,12 c 0,2.2 1.799,4 4,4 l 12,0 c 2.2,0 4,-1.8 4,-4 m -8.794,-0.999 -4.894,0 0,-1.893 2.995,0 1.899,1.893 z m 0.537,-9.68 1.894,0 0,6.516 -1.894,-1.887 0,-4.629 z m -5.51,1.449 c -0.446,-0.179 -0.665,0.04 -0.481,0.487 l 1.596,3.899 1.493,1.488 -4.886,0 0,-9.681 7.324,0 0,6.525 -1.14,-1.135 -3.906,-1.583 z m 1.474,4.025 2.073,-2.081 -2.57,-1.041 -0.553,0.555 1.05,2.567 z"
             style="fill:#3067ba;fill-opacity:1;fill-rule:nonzero;stroke:none"
             id="path3669" /></g><g
           id="g3671"
           transform="translate(368.917,539.3867)"><path
             d="m 0,0 -4.052,0 0,2.789 C -4.702,2.213 -5.646,1.67 -7.175,1.5 -7.203,1.498 -7.231,1.496 -7.259,1.496 c -0.374,0 -0.696,0.281 -0.738,0.662 -0.045,0.408 0.248,0.776 0.657,0.822 1.802,0.2 2.447,1.002 3.016,1.706 0.254,0.316 0.493,0.613 0.811,0.824 0.009,0.006 0.021,0.006 0.03,0.013 0.27,0.225 0.615,0.368 0.993,0.368 l 0.928,0 C -0.703,5.891 0,5.189 0,4.33 L 0,0 z m -8.234,1.574 c -1.287,0.215 -2.121,0.707 -2.714,1.225 l 0,-2.799 -4.052,0 0,4.33 c 0,0.859 0.703,1.561 1.562,1.561 l 0.928,0 c 0.378,0 0.723,-0.143 0.993,-0.368 0.009,-0.007 0.021,-0.007 0.03,-0.013 0.318,-0.211 0.558,-0.51 0.811,-0.824 0.517,-0.641 1.113,-1.35 2.567,-1.627 -0.239,-0.246 -0.38,-0.584 -0.34,-0.95 0.022,-0.203 0.106,-0.379 0.215,-0.535 m -4.739,8.153 c 0.945,0 1.715,-0.77 1.715,-1.717 0,-0.949 -0.77,-1.717 -1.715,-1.717 -0.951,0 -1.719,0.768 -1.719,1.717 0,0.947 0.768,1.717 1.719,1.717 m 10.946,0 c 0.951,0 1.719,-0.77 1.719,-1.717 0,-0.949 -0.768,-1.717 -1.719,-1.717 -0.947,0 -1.715,0.768 -1.715,1.717 0,0.947 0.768,1.717 1.715,1.717 m 0.527,5.136 -12,0 c -2.2,0 -4,-1.8 -4,-4 l 0,-12 c 0,-2.2 1.8,-4 4,-4 l 12,0 c 2.2,0 4,1.8 4,4 l 0,12 c 0,2.2 -1.8,4 -4,4"
             style="fill:#3067ba;fill-opacity:1;fill-rule:nonzero;stroke:none"
             id="path3673" /></g><path
           d="m 363.73,452.256 -5.754,0 0,5.755 5.754,0 0,-5.755 z m -2.654,8.848 -2.56,2.559 1.355,1.361 1.234,-1.336 3.309,2.749 0.99,-1.007 -4.328,-4.326 z m 3.199,-1.241 -6.845,0 0,6.847 5.892,0 -0.656,-0.546 -4.689,0 0,-5.755 5.753,0 0,2.064 0.545,0.544 0,-3.154 z m 0,-8.153 -6.846,0 0,6.847 6.846,0 0,-6.847 z m 3.142,17.5 -12,0 c -2.2,0 -4,-1.8 -4,-4 l 0,-12 c 0,-2.2 1.8,-4 4,-4 l 12,0 c 2.2,0 4,1.8 4,4 l 0,12 c 0,2.2 -1.8,4 -4,4"
           style="fill:#3067ba;fill-opacity:1;fill-rule:nonzero;stroke:none"
           id="path3675" /><g
           id="g3677"
           transform="translate(91.4795,500.251)"><path
             d="M 0,0 C -0.287,-0.169 -0.648,-0.09 -0.824,0.191 L -2.076,2.189 -2.365,0.622 C -2.402,0.42 -2.354,0.037 -2.269,-0.149 l 2.197,-4.768 c 0.112,-0.243 0.24,-0.52 0.049,-0.82 -0.114,-0.176 -0.31,-0.284 -0.519,-0.284 l -0.001,0 c -0.368,0 -0.535,0.28 -0.67,0.503 l -2.714,4.564 -0.737,-1.494 c -0.171,-0.35 -0.513,-0.847 -0.777,-1.13 l -1.48,-1.596 c -0.193,-0.207 -0.345,-0.369 -0.627,-0.369 -0.236,0 -0.452,0.136 -0.555,0.349 -0.172,0.36 0.038,0.621 0.223,0.85 l 1.46,1.811 c 0.157,0.194 0.363,0.591 0.433,0.832 l 0.542,1.895 c 0.079,0.279 0.17,0.774 0.193,1.061 l 0.241,2.912 C -6.193,3.776 -7.352,2.231 -7.743,1.585 -7.909,1.314 -8.05,1.081 -8.402,1.08 l -0.001,0 c -0.216,0 -0.418,0.115 -0.529,0.303 -0.181,0.307 -0.047,0.55 0.107,0.828 0.089,0.161 2.274,4.015 5.222,3.783 1.274,-0.109 1.68,-1.066 1.95,-1.699 0.061,-0.148 0.122,-0.291 0.192,-0.419 L 0.221,0.836 C 0.381,0.545 0.286,0.168 0,0 m -9.279,-4.2 c -0.054,-0.114 -0.108,-0.233 -0.164,-0.354 l -3.738,1.729 c 0.058,0.121 0.112,0.238 0.164,0.354 l 0.624,1.317 c 0.552,1.12 0.989,1.819 1.496,2.139 l -0.493,-1.269 -0.036,-0.094 0.035,-0.133 c 0.088,-0.241 0.566,-0.521 0.951,-0.714 l -0.057,-0.122 0.437,-0.202 0.057,0.122 c 0.289,-0.123 0.737,-0.292 1.006,-0.292 0.218,0 0.306,0.116 0.338,0.186 l 0.643,1.183 C -7.932,-0.943 -8.182,-1.728 -8.68,-2.874 L -9.279,-4.2 z m -0.668,5.424 c 0.19,0.194 0.439,0.297 0.685,0.297 0.018,-0.086 0.045,-0.176 0.1,-0.27 -0.167,0.03 -0.342,-0.021 -0.491,-0.131 0.149,-0.057 0.309,-0.125 0.474,-0.202 0.165,-0.077 0.32,-0.154 0.459,-0.23 -0.005,0.069 -0.006,0.138 -0.029,0.203 0,0.002 -10e-4,0.003 -0.002,0.004 0.091,-0.04 0.187,-0.065 0.287,-0.073 0.015,-0.094 0.021,-0.191 0.012,-0.29 0.275,-0.17 0.441,-0.311 0.411,-0.372 l -0.858,-1.579 c -0.049,-0.104 -0.589,0.043 -1.21,0.329 -0.618,0.287 -1.082,0.604 -1.033,0.71 l 0.649,1.676 c 0.028,0.06 0.241,0.026 0.546,-0.072 M -3.26,8.96 C -2.487,9.087 -1.762,8.563 -1.635,7.793 -1.508,7.022 -2.03,6.295 -2.801,6.169 -3.571,6.042 -4.298,6.565 -4.424,7.336 -4.55,8.106 -4.029,8.834 -3.26,8.96 m 2.819,2.519 -12,0 c -2.201,0 -4,-1.8 -4,-4 l 0,-12 c 0,-2.201 1.799,-4 4,-4 l 12,0 c 2.2,0 4,1.799 4,4 l 0,12 c 0,2.2 -1.8,4 -4,4 m -9.014,-14.603 -0.354,-0.767 -2.63,1.218 0.355,0.766 c 0.081,0.173 0.329,0.276 0.666,0.276 0.295,0 0.634,-0.081 0.953,-0.229 0.494,-0.229 0.879,-0.582 1.004,-0.924 0.048,-0.131 0.05,-0.245 0.006,-0.34 m -0.898,1.506 c -0.369,0.17 -0.742,0.253 -1.065,0.253 -0.432,0 -0.775,-0.147 -0.907,-0.43 l -0.468,-1.008 3.114,-1.44 0.465,1.008 c 0.233,0.496 -0.279,1.218 -1.139,1.617"
             style="fill:#3067ba;fill-opacity:1;fill-rule:nonzero;stroke:none"
             id="path3679" /></g><g
           id="g3681"
           transform="translate(364.3682,584.6348)"><path
             d="M 0,0 -0.825,0.841 -3.588,-1.454 -4.616,-0.338 -5.749,-1.474 -3.611,-3.611 0,0 z M -4.1,3.354 -5.652,1.801 -4.786,0.936 -3.233,2.488 -1.681,0.936 -0.814,1.801 -2.367,3.354 -0.814,4.907 -1.681,5.772 -3.233,4.22 -4.785,5.772 -5.652,4.907 -4.1,3.354 z m 4.278,3.727 0.987,0 0,-11.333 -8.231,0 0,11.333 0.987,0 0,-0.686 6.257,0 0,0.686 z m 2.15,1.113 -2.15,0 0,0.346 -1.736,0 c -0.155,0.627 -0.717,1.095 -1.393,1.095 -0.676,0 -1.237,-0.468 -1.393,-1.095 l -1.735,0 0,-0.346 -2.15,0 0,-13.559 10.557,0 0,13.559 z m 4.721,-0.059 0,-12 c 0,-2.2 -1.799,-4 -4,-4 l -12,0 c -2.199,0 -4,1.8 -4,4 l 0,12 c 0,2.2 1.801,4 4,4 l 12,0 c 2.201,0 4,-1.8 4,-4 m -9.35,0.405 -1.299,0 c 0.125,0.234 0.364,0.398 0.651,0.398 0.283,0 0.521,-0.164 0.648,-0.398"
             style="fill:#3067ba;fill-opacity:1;fill-rule:nonzero;stroke:none"
             id="path3683" /></g><g
           id="g3685"
           transform="translate(368.1191,505.1113)"><path
             d="m 0,0 -3.966,4.118 -6.918,0 0,-11.084 -2.52,-2.358 1.555,-1.558 0.965,1.031 0,-0.161 10.884,0 L 0,0 z m 3.298,2.618 0,-12 c 0,-2.2 -1.8,-4 -4,-4 l -12,0 c -2.2,0 -4,1.8 -4,4 l 0,12 c 0,2.2 1.8,4 4,4 l 12,0 c 2.2,0 4,-1.8 4,-4 M -2.93,-3.498 -5.025,-5.594 c -0.133,-0.134 -0.133,-0.348 0,-0.479 0.132,-0.133 0.346,-0.133 0.478,-0.002 l 2.096,2.096 c 0.134,0.133 0.133,0.348 0,0.481 -0.131,0.131 -0.346,0.131 -0.479,0 m -3.091,3.569 c -0.133,0.133 -0.346,0.133 -0.479,0 l -2.098,-2.093 c -0.13,-0.134 -0.131,-0.347 0.002,-0.484 0.131,-0.129 0.347,-0.129 0.478,0.004 l 2.097,2.095 c 0.132,0.133 0.132,0.347 0,0.478 m 1.381,-0.594 3.495,0 0,-8.343 -8.593,0 0,0.241 3.715,3.971 0.771,-0.772 2.152,2.155 -2.693,2.695 -2.154,-2.156 0.767,-0.768 -2.558,-2.394 0,8.867 5.098,0 0,-3.496 z m 2.728,0.858 -1.868,0 0,1.939 1.868,-1.939 z"
             style="fill:#3067ba;fill-opacity:1;fill-rule:nonzero;stroke:none"
             id="path3687" /></g><g
           id="g3689"
           transform="translate(363.1709,372.9209)"><path
             d="m 0,0 -0.026,0 -0.845,-0.842 -2.65,-1.073 3.521,0 0,-0.608 -6.529,0 0,0.608 1.257,0 0.784,1.915 -2.041,0 0,0.608 2.289,0 0.56,1.37 0.549,0.545 -3.398,0 0,0.609 4.008,0 0.692,0.689 -0.585,0 0,3.712 -5.413,0 0,-12.568 9.122,0 0,6.351 L 0,0.026 0,0 z m -4.373,-0.968 0.555,-0.557 2.586,1.046 -2.085,2.093 -1.056,-2.582 z m 9.76,7.299 -1.87,1.878 C 3.259,8.47 2.744,8.379 2.373,8.009 l -1.714,-1.708 -2.358,2.448 -7.344,0 0,-15 11.555,0 0,8.779 2.672,2.661 c 0.369,0.37 0.462,0.882 0.203,1.142 m 2.859,0.918 0,-12 c 0,-2.2 -1.801,-4 -4,-4 l -12,0 c -2.201,0 -4,1.8 -4,4 l 0,12 c 0,2.2 1.799,4 4,4 l 12,0 c 2.199,0 4,-1.8 4,-4 m -9.16,-2.516 -0.588,0 0,2.059 1.299,-1.35 -0.711,-0.709 z"
             style="fill:#3067ba;fill-opacity:1;fill-rule:nonzero;stroke:none"
             id="path3691" /></g><g
           id="g3693"
           transform="translate(92.458,666.0928)"><path
             d="M 0,0 -2.386,2.627 C -2.479,2.729 -2.622,2.733 -2.742,2.678 -3.059,2.217 -3.468,1.835 -3.938,1.547 -3.961,1.45 -3.954,1.349 -3.882,1.271 l 2.384,-2.625 c 0.115,-0.127 0.313,-0.137 0.44,-0.022 l 1.037,0.938 C 0.105,-0.324 0.114,-0.127 0,0 m -2.753,3.795 c 0.128,0.374 0.191,0.752 0.191,1.127 0,1.425 -0.894,2.757 -2.316,3.248 -1.795,0.621 -3.753,-0.33 -4.374,-2.124 -0.13,-0.374 -0.189,-0.752 -0.189,-1.125 0,-1.426 0.891,-2.757 2.316,-3.249 1.793,-0.621 3.751,0.329 4.372,2.123 m -6.79,4.787 0.741,-0.857 c 0.295,0.295 0.633,0.544 1.005,0.732 l 0.717,1.702 0.768,-0.323 -0.29,2.309 -1.854,-1.406 0.762,-0.32 -0.837,-1.987 -1.147,1.326 -1.197,-2.277 -1.201,1.164 -1.371,-3.115 0.61,-0.267 0.985,2.236 1.152,-1.115 1.157,2.198 z M -9.721,3.566 c -0.063,0.171 -0.111,0.347 -0.15,0.528 l -4.522,0 0,8.797 -0.527,0 0,-9.325 5.199,0 z m 12.301,8.151 0,-12 c 0,-2.2 -1.8,-4 -4,-4 l -12,0 c -2.2,0 -4,1.8 -4,4 l 0,12 c 0,2.2 1.8,4 4,4 l 12,0 c 2.2,0 4,-1.8 4,-4 M -3.496,4.922 C -3.496,4.643 -3.542,4.367 -3.634,4.101 -3.853,3.468 -4.304,2.958 -4.906,2.667 -5.51,2.374 -6.19,2.333 -6.822,2.553 -7.832,2.9 -8.509,3.854 -8.509,4.921 c 0,0.276 0.046,0.553 0.139,0.819 0.217,0.633 0.671,1.143 1.271,1.435 0.604,0.292 1.284,0.333 1.915,0.115 1.01,-0.35 1.688,-1.302 1.688,-2.368"
             style="fill:#3067ba;fill-opacity:1;fill-rule:nonzero;stroke:none"
             id="path3695" /></g><g
           id="g3697"
           transform="translate(368.7607,160.8691)"><path
             d="m 0,0 -5.869,0 0.293,0.481 5.096,0 0,7.239 -10.583,0 0,-2.278 c -0.146,0.126 -0.306,0.234 -0.482,0.318 l 0,2.441 L 0,8.201 0,0 z m -5.693,2.195 1.615,2.817 0.232,-0.133 -1.613,-2.817 -0.234,0.133 z m -3.477,-1.714 1.541,0 L -7.924,0 -8.309,0 -9.17,0.481 z m 1.457,-2.488 c -0.111,0 -0.223,0.027 -0.326,0.085 l -2.26,1.072 0.168,-5.902 -4.238,-0.047 -0.293,5.949 c 0,0 -0.418,1.929 1.99,2.21 l 0.19,0 0.189,0 c 1.24,0 1.648,-0.244 2.484,-0.758 l 1.86,-1.04 1.318,2.164 c 0.193,0.315 0.604,0.415 0.922,0.223 0.316,-0.193 0.416,-0.605 0.225,-0.921 l -1.655,-2.714 c -0.127,-0.207 -0.347,-0.321 -0.574,-0.321 m -3.35,4.161 0,-0.718 c -0.146,0.04 -0.306,0.068 -0.482,0.088 l 0,0.312 c 0.176,0.085 0.336,0.192 0.482,0.318 m -1.417,3.619 c 1.089,0 1.972,-0.883 1.972,-1.975 0,-1.092 -0.883,-1.975 -1.972,-1.975 -1.094,0 -1.979,0.883 -1.979,1.975 0,1.092 0.885,1.975 1.979,1.975 m 11.136,4.928 -12,0 c -2.201,0 -4,-1.8 -4,-4 l 0,-12 c 0,-2.2 1.799,-4 4,-4 l 12,0 c 2.199,0 4,1.8 4,4 l 0,12 c 0,2.2 -1.801,4 -4,4"
             style="fill:#3067ba;fill-opacity:1;fill-rule:nonzero;stroke:none"
             id="path3699" /></g></g></g><text
       transform="matrix(1,0,0,-1,28.3672,753.1172)"
       id="text3701"><tspan
         style="fill:#3067ba;fill-opacity:1;fill-rule:nonzero;stroke:none;font-family:Arial;font-variant:normal;font-weight:normal;font-stretch:normal;font-size:14;writing-mode:lr;-inkscape-font-specification:ArialMT"
         x="0 9.338 19.446 28 31.892 41.23 45.122 53.676 57.568 66.906 76.244 80.136 89.474 98.028 108.136 116.424 124.978 134.316 145.208"
         y="0"
         sodipodi:role="line"
         id="tspan3703">ACTIVITIES/STRATEGY</tspan></text>
</g></svg>