<?xml version="1.0" standalone="no"?>
<!DOCTYPE svg PUBLIC "-//W3C//DTD SVG 1.1//EN" "http://www.w3.org/Graphics/SVG/1.1/DTD/svg11.dtd" >
<!--
Contact: legoupil@unhcr.org
The font code are entirely in the private corporate use
-->
<svg>
<metadata>
Created by FontForge 20120731 at Sun Jun  1 11:15:46 2014
 By edouard,,,
SIL- Open Font License
</metadata>
<defs>
<font id="humanitarian-webfont" horiz-adv-x="1024" >
  <font-face 
    font-family="humanitarian-webfont"
    font-weight="400"
    font-stretch="normal"
    units-per-em="1024"
    panose-1="2 0 5 3 0 0 0 0 0 0"
    ascent="878"
    descent="-146"
    cap-height="829"
    bbox="-571 -187.3 1415 1119.81"
    underline-thickness="0"
    underline-position="0"
    unicode-range="U+002E-F830A"
  />
    <missing-glyph />
    <glyph glyph-name="uniE000" unicode="&#xe000;" horiz-adv-x="285" 
d="M0 0z" />
    <glyph glyph-name="uniF000" unicode="&#xf000;" 
d="M971 771q0 -20 -25 -44l-361 -361v-439h183q15 0 26 -11t11 -26t-11 -25q-11 -11 -26 -11h-512q-15 0 -26 11t-11 25q0 15 11 26t26 11h183v439l-361 361q-25 25 -25 44q0 13 10 22q10 8 22 9q11 2 25 3h804q13 0 25 -3q11 -2 22 -9q10 -9 10 -22z" />
    <glyph glyph-name="uniF001" unicode="&#xf001;" horiz-adv-x="877" 
d="M878 750v-640q0 -29 -20 -52q-19 -23 -49 -33q-30 -12 -59 -19q-30 -6 -55 -6q-26 0 -55 6q-30 6 -59 19q-30 12 -50 33q-19 23 -19 52t19 51q19 23 50 35q30 12 59 17q30 6 55 6q60 0 110 -21v306l-439 -135v-406q0 -29 -20 -50q-19 -23 -49 -35t-59 -18q-30 -6 -55 -6
q-26 0 -55 6q-30 6 -59 18q-30 12 -50 35q-19 23 -19 50q0 29 19 51q19 23 50 35q30 12 59 19q30 6 55 5q60 0 110 -22v552q0 17 10 33q11 14 29 20l475 146q7 2 16 3q23 0 39 -17q16 -15 16 -38z" />
    <glyph glyph-name="uniF002" unicode="&#xf002;" horiz-adv-x="950" 
d="M658 402q0 105 -75 181q-75 75 -181 75q-105 0 -181 -75q-75 -75 -75 -181q0 -105 75 -181q75 -75 181 -75q105 0 181 75q75 76 75 181zM951 -73q0 -30 -22 -52t-51 -21q-31 0 -52 21l-195 196q-102 -71 -229 -71q-82 0 -156 32q-75 32 -128 86q-54 54 -86 128
q-32 75 -32 156q0 82 32 156q32 75 86 129t128 86q75 32 156 32q82 0 156 -32q75 -32 129 -86t86 -129t32 -156q0 -126 -71 -228l196 -196q21 -20 21 -51z" />
    <glyph glyph-name="uniF003" unicode="&#xf003;" 
d="M951 18v439q-18 -20 -40 -37q-154 -118 -243 -194q-29 -25 -47 -38t-50 -27q-31 -14 -58 -15h-1h-1q-28 0 -58 15q-31 14 -50 27q-18 13 -47 38q-90 76 -243 194q-22 17 -40 37v-439q0 -7 6 -13q5 -5 12 -5h842q7 0 12 5q6 6 6 13zM951 618v7v8v7l-3 7l-2 5l-5 5l-8 1
h-842q-7 0 -12 -5t-6 -13q0 -96 84 -162q111 -87 229 -181q3 -3 21 -17q16 -14 25 -22q9 -7 26 -17q15 -10 28 -17q13 -5 25 -5h1h1q11 0 25 5q13 5 28 17q15 10 26 17q9 7 25 22q16 14 21 17q119 94 229 181q31 25 58 66q26 40 26 74zM1024 640v-622q0 -38 -27 -64
q-27 -27 -64 -27h-842q-38 0 -64 27q-27 27 -27 64v622q0 38 27 65t64 26h842q38 0 64 -26q27 -27 27 -65z" />
    <glyph glyph-name="uniF004" unicode="&#xf004;" 
d="M512 -73q-15 0 -26 11l-356 344q-6 4 -15 14q-10 10 -32 38t-39 55q-17 29 -31 70q-13 41 -13 79q0 126 73 196q73 71 200 71q36 0 72 -12q37 -12 69 -34q32 -20 55 -39q23 -18 43 -39q20 20 43 39q23 18 55 39q32 20 69 34q37 12 72 12q128 0 200 -71q73 -71 73 -196
q0 -126 -131 -258l-355 -342q-11 -11 -26 -11z" />
    <glyph glyph-name="uniF005" unicode="&#xf005;" horiz-adv-x="950" 
d="M951 508q0 -12 -15 -28l-208 -201l49 -286q1 -4 1 -11q0 -12 -6 -21q-6 -8 -17 -8t-23 6l-257 135l-256 -135q-12 -7 -23 -6q-12 0 -18 8t-6 21q0 3 1 11l49 286l-208 201q-14 15 -14 28q0 22 32 27l286 40l129 261q11 24 28 23q17 0 29 -23l128 -261l287 -40
q32 -5 32 -27z" />
    <glyph glyph-name="uniF006" unicode="&#xf006;" horiz-adv-x="950" 
d="M649 304l175 170l-240 35l-109 218l-107 -218l-242 -35l175 -170l-42 -241l216 114l216 -114zM951 508q0 -12 -15 -28l-208 -201l49 -286q1 -4 1 -11q0 -29 -23 -29q-11 0 -23 6l-257 135l-256 -135q-12 -7 -23 -6q-12 0 -18 8t-6 21q0 3 1 11l49 286l-208 201
q-14 15 -14 28q0 22 32 27l286 40l129 261q11 24 28 23q17 0 29 -23l128 -261l287 -40q32 -5 32 -27z" />
    <glyph glyph-name="uniF007" unicode="&#xf007;" horiz-adv-x="803" 
d="M805 75q0 -69 -42 -109t-111 -39h-499q-70 0 -111 39q-42 40 -42 109q0 31 2 59q2 29 8 63t16 61q9 29 24 56q15 28 35 46q20 19 49 31q29 11 64 11q5 0 24 -12l42 -28q24 -15 62 -27t76 -12t76 12t63 27q24 15 42 28q18 12 24 12q35 0 64 -11t49 -31q20 -19 35 -46
q15 -28 24 -56q9 -29 16 -61q6 -34 8 -63q2 -28 2 -59zM622 585q0 -91 -65 -155q-65 -65 -155 -64q-91 0 -155 64q-65 65 -64 155q0 91 64 155q65 65 155 65q91 0 155 -65q65 -64 65 -155z" />
    <glyph glyph-name="uniF008" unicode="&#xf008;" horiz-adv-x="1096" 
d="M219 -37v74q0 15 -10 25q-11 11 -26 11h-73q-15 0 -26 -11t-11 -25v-74q0 -15 11 -25q11 -11 26 -11h73q15 0 26 11q10 10 10 25zM219 183v73q0 15 -10 26q-11 11 -26 11h-73q-15 0 -26 -11t-11 -26v-73q0 -15 11 -26t26 -11h73q15 0 26 11q10 11 10 26zM219 402v73
q0 15 -10 26q-11 11 -26 11h-73q-15 0 -26 -11t-11 -26v-73q0 -15 11 -25q11 -11 26 -11h73q15 0 26 11q10 10 10 25zM805 -37v293q0 15 -11 26t-26 11h-439q-15 0 -26 -11t-10 -26v-293q0 -15 10 -25q11 -11 26 -11h439q15 0 26 11q11 10 11 25zM219 622v73q0 15 -10 26
q-11 11 -26 10h-73q-15 0 -26 -10q-11 -11 -11 -26v-73q0 -15 11 -26t26 -11h73q15 0 26 11q10 11 10 26zM1024 -37v74q0 15 -11 25q-11 11 -26 11h-73q-15 0 -25 -11q-11 -11 -11 -25v-74q0 -15 11 -25q11 -11 25 -11h73q15 0 26 11q11 10 11 25zM805 402v293q0 15 -11 26
t-26 10h-439q-15 0 -26 -10q-11 -11 -10 -26v-293q0 -15 10 -25q11 -11 26 -11h439q15 0 26 11q11 10 11 25zM1024 183v73q0 15 -11 26t-26 11h-73q-15 0 -25 -11q-11 -11 -11 -26v-73q0 -15 11 -26t25 -11h73q15 0 26 11t11 26zM1024 402v73q0 15 -11 26t-26 11h-73
q-15 0 -25 -11q-11 -11 -11 -26v-73q0 -15 11 -25q11 -11 25 -11h73q15 0 26 11q11 10 11 25zM1024 622v73q0 15 -11 26t-26 10h-73q-15 0 -25 -10q-11 -11 -11 -26v-73q0 -15 11 -26t25 -11h73q15 0 26 11t11 26zM1097 713v-768q0 -38 -27 -65t-64 -26h-915q-38 0 -64 26
q-27 27 -27 65v768q0 38 27 64q27 27 64 28h915q38 0 64 -28q27 -26 27 -64z" />
    <glyph glyph-name="uniF009" unicode="&#xf009;" horiz-adv-x="950" 
d="M439 293v-220q0 -30 -22 -51q-22 -22 -51 -22h-293q-30 0 -51 22q-22 22 -22 51v220q0 30 22 51q22 22 51 22h293q30 0 51 -22q22 -21 22 -51zM439 731v-219q0 -30 -22 -51q-22 -22 -51 -22h-293q-30 0 -51 22q-22 22 -22 51v219q0 30 22 52t51 22h293q30 0 51 -22
q22 -22 22 -52zM951 293v-220q0 -30 -22 -51q-22 -22 -51 -22h-293q-30 0 -51 22q-22 22 -22 51v220q0 30 22 51q22 22 51 22h293q30 0 51 -22q22 -21 22 -51zM951 731v-219q0 -30 -22 -51q-22 -22 -51 -22h-293q-30 0 -51 22q-22 22 -22 51v219q0 30 22 52t51 22h293
q30 0 51 -22q22 -22 22 -52z" />
    <glyph glyph-name="uniF00A" unicode="&#xf00a;" 
d="M293 165v-110q0 -23 -17 -39q-16 -16 -38 -16h-183q-23 0 -39 16t-16 39v110q0 23 16 39t39 15h183q23 0 38 -15q17 -16 17 -39zM293 457v-110q0 -23 -17 -39q-16 -16 -38 -15h-183q-23 0 -39 15q-16 16 -16 39v110q0 23 16 39t39 16h183q23 0 38 -16q17 -16 17 -39z
M658 165v-110q0 -23 -16 -39t-39 -16h-182q-23 0 -39 16t-16 39v110q0 23 16 39t39 15h182q23 0 39 -15q16 -16 16 -39zM293 750v-110q0 -23 -17 -39q-16 -16 -38 -16h-183q-23 0 -39 16t-16 39v110q0 23 16 38q16 16 39 17h183q23 0 38 -17q17 -15 17 -38zM658 457v-110
q0 -23 -16 -39t-39 -15h-182q-23 0 -39 15q-16 16 -16 39v110q0 23 16 39t39 16h182q23 0 39 -16t16 -39zM1024 165v-110q0 -23 -16 -39t-39 -16h-183q-23 0 -38 16q-16 16 -17 39v110q0 23 17 39q16 16 38 15h183q23 0 39 -15q16 -16 16 -39zM658 750v-110q0 -23 -16 -39
t-39 -16h-182q-23 0 -39 16t-16 39v110q0 23 16 38q16 16 39 17h182q23 0 39 -17q16 -15 16 -38zM1024 457v-110q0 -23 -16 -39t-39 -15h-183q-23 0 -38 15q-16 16 -17 39v110q0 23 17 39q16 16 38 16h183q23 0 39 -16t16 -39zM1024 750v-110q0 -23 -16 -39t-39 -16h-183
q-23 0 -38 16q-16 16 -17 39v110q0 23 17 38q16 16 38 17h183q23 0 39 -17q16 -15 16 -38z" />
    <glyph glyph-name="uniF00B" unicode="&#xf00b;" 
d="M293 165v-110q0 -23 -17 -39q-16 -16 -38 -16h-183q-23 0 -39 16t-16 39v110q0 23 16 39t39 15h183q23 0 38 -15q17 -16 17 -39zM293 457v-110q0 -23 -17 -39q-16 -16 -38 -15h-183q-23 0 -39 15q-16 16 -16 39v110q0 23 16 39t39 16h183q23 0 38 -16q17 -16 17 -39z
M1024 165v-110q0 -23 -16 -39t-39 -16h-548q-23 0 -39 16t-16 39v110q0 23 16 39t39 15h548q23 0 39 -15q16 -16 16 -39zM293 750v-110q0 -23 -17 -39q-16 -16 -38 -16h-183q-23 0 -39 16t-16 39v110q0 23 16 38q16 16 39 17h183q23 0 38 -17q17 -15 17 -38zM1024 457v-110
q0 -23 -16 -39t-39 -15h-548q-23 0 -39 15q-16 16 -16 39v110q0 23 16 39t39 16h548q23 0 39 -16t16 -39zM1024 750v-110q0 -23 -16 -39t-39 -16h-548q-23 0 -39 16t-16 39v110q0 23 16 38q16 16 39 17h548q23 0 39 -17q16 -15 16 -38z" />
    <glyph glyph-name="uniF00C" unicode="&#xf00c;" 
d="M954 554q0 -23 -15 -39l-414 -414l-78 -77q-16 -16 -38 -16q-23 0 -39 16l-78 77l-207 207q-16 16 -15 39q0 23 15 39l78 78q16 16 39 16t39 -16l168 -168l374 375q16 16 39 16t39 -16l78 -78q15 -16 15 -39z" />
    <glyph glyph-name="uniF00D" unicode="&#xf00d;" horiz-adv-x="803" 
d="M741 122q0 -23 -15 -39l-78 -77q-16 -16 -39 -16t-39 16l-168 168l-168 -168q-16 -16 -38 -16q-23 0 -39 16l-78 77q-16 16 -17 39q0 23 17 39l168 168l-168 168q-16 16 -17 39q0 23 17 38l78 78q16 16 39 17q23 0 38 -17l168 -168l168 168q16 16 39 17q23 0 39 -17
l78 -78q16 -16 15 -38q0 -23 -15 -39l-168 -168l168 -168q15 -16 15 -39z" />
    <glyph glyph-name="uniF00E" unicode="&#xf00e;" horiz-adv-x="950" 
d="M585 421v-37q0 -7 -5 -13q-5 -5 -13 -5h-128v-128q0 -7 -6 -13q-5 -5 -12 -6h-37q-7 0 -13 6q-5 5 -5 13v128h-128q-7 0 -13 5q-5 5 -6 13v37q0 7 6 12q5 5 13 6h128v128q0 7 5 13q5 5 13 5h37q7 0 12 -5t6 -13v-128h128q7 0 13 -6q5 -5 5 -12zM658 402q0 105 -75 181
q-75 75 -181 75q-105 0 -181 -75q-75 -75 -75 -181q0 -105 75 -181q75 -75 181 -75q105 0 181 75q75 76 75 181zM951 -73q0 -31 -21 -52q-22 -22 -52 -21q-31 0 -52 21l-195 196q-102 -71 -229 -71q-82 0 -156 32q-75 32 -128 86q-54 54 -86 128q-32 75 -32 156q0 82 32 156
q32 75 86 129t128 86q75 32 156 32q82 0 156 -32q75 -32 129 -86t86 -129t32 -156q0 -126 -71 -228l196 -196q21 -20 21 -51z" />
    <glyph glyph-name="uniF010" unicode="&#xf010;" horiz-adv-x="950" 
d="M585 421v-37q0 -7 -5 -13q-5 -5 -13 -5h-329q-7 0 -13 5q-5 5 -6 13v37q0 7 6 12q5 5 13 6h329q7 0 13 -6q5 -5 5 -12zM658 402q0 105 -75 181q-75 75 -181 75q-105 0 -181 -75q-75 -75 -75 -181q0 -105 75 -181q75 -75 181 -75q105 0 181 75q75 76 75 181zM951 -73
q0 -31 -21 -52q-22 -22 -52 -21q-31 0 -52 21l-195 196q-102 -71 -229 -71q-82 0 -156 32q-75 32 -128 86q-54 54 -86 128q-32 75 -32 156q0 82 32 156q32 75 86 129t128 86q75 32 156 32q82 0 156 -32q75 -32 129 -86t86 -129t32 -156q0 -126 -71 -228l196 -196
q21 -20 21 -51z" />
    <glyph glyph-name="uniF011" unicode="&#xf011;" horiz-adv-x="877" 
d="M878 366q0 -89 -35 -170t-93 -141q-58 -58 -141 -93q-81 -35 -170 -35t-171 35q-81 35 -139 93t-94 141q-35 81 -35 170q0 104 46 196t129 154q25 18 55 14t48 -29q18 -24 14 -53q-4 -30 -29 -49q-56 -42 -86 -103q-31 -61 -31 -130q0 -59 23 -114q24 -54 63 -93
q40 -40 94 -63q54 -24 113 -23q59 0 113 23q54 24 94 63q40 40 63 93q24 54 22 114q0 70 -31 130q-31 61 -86 103q-24 18 -28 49q-4 30 14 53q17 25 48 29t54 -14q83 -62 129 -154q47 -92 47 -196zM512 805v-366q0 -30 -22 -52t-51 -21q-30 0 -52 21q-22 22 -21 52v366
q0 30 21 51q22 22 52 22t51 -22q22 -21 22 -51z" />
    <glyph glyph-name="uniF012" unicode="&#xf012;" 
d="M146 55v-110q0 -8 -5 -13t-13 -5h-110q-8 0 -13 5t-5 13v110q0 8 5 13t13 5h110q8 0 13 -5t5 -13zM366 128v-183q0 -8 -6 -13q-5 -5 -13 -5h-109q-8 0 -14 5q-5 5 -5 13v183q0 8 5 13t14 5h109q8 0 13 -5q6 -5 6 -13zM585 274v-329q0 -8 -5 -13t-13 -5h-110q-8 0 -13 5
t-5 13v329q0 8 5 14q5 5 13 5h110q8 0 13 -5q5 -6 5 -14zM805 494v-549q0 -8 -5 -13t-14 -5h-109q-8 0 -13 5t-6 13v549q0 8 6 13q5 5 13 5h109q8 0 14 -5q5 -5 5 -13zM1024 786v-841q0 -8 -5 -13t-13 -5h-110q-8 0 -13 5t-5 13v841q0 8 5 14q5 5 13 5h110q8 0 13 -5
q5 -6 5 -14z" />
    <glyph glyph-name="uniF013" unicode="&#xf013;" horiz-adv-x="877" 
d="M585 366q0 60 -42 103q-43 43 -104 43q-60 0 -103 -43t-43 -103t43 -104q43 -43 103 -43t104 43q42 44 42 104zM878 428v-127q0 -7 -5 -13q-4 -6 -11 -7l-106 -17q-11 -31 -22 -51q20 -29 61 -79q6 -7 6 -14t-5 -14q-15 -22 -57 -61q-41 -41 -54 -41q-7 0 -14 5l-79 62
q-26 -13 -52 -22q-9 -78 -17 -106q-4 -16 -20 -16h-127q-8 0 -15 4q-6 5 -6 13l-16 105q-28 9 -51 22l-81 -62q-6 -5 -14 -5t-15 6q-72 66 -94 96q-4 6 -4 14q0 7 5 12q8 12 29 39q20 26 30 40q-15 29 -23 56l-105 16q-7 1 -12 7q-4 6 -4 13v127q0 7 4 13t11 8l107 16
q8 27 22 52q-23 33 -61 79q-6 7 -6 14q0 6 5 13q15 20 56 61t55 41q7 0 15 -5l79 -62q26 13 51 22q9 78 17 106q4 16 21 17h127q8 0 13 -5q6 -5 7 -13l16 -105q28 -9 51 -20l82 60q5 5 13 5q7 0 14 -5q74 -68 95 -97q4 -4 4 -13q0 -7 -4 -13q-8 -12 -30 -38q-20 -26 -31 -41
q15 -29 24 -55l104 -16q7 -1 12 -8q5 -6 5 -13z" />
    <glyph glyph-name="uniF014" unicode="&#xf014;" horiz-adv-x="803" 
d="M293 457v-329q0 -8 -5 -13t-14 -5h-36q-8 0 -14 5q-5 5 -5 13v329q0 8 5 13t14 5h36q8 0 14 -5q5 -5 5 -13zM439 457v-329q0 -8 -5 -13t-13 -5h-37q-8 0 -13 5t-5 13v329q0 8 5 13t13 5h37q8 0 13 -5t5 -13zM585 457v-329q0 -8 -5 -13t-13 -5h-37q-8 0 -13 5t-5 13v329
q0 8 5 13t13 5h37q8 0 13 -5t5 -13zM658 43v542h-512v-542q0 -12 5 -23q4 -10 8 -15t6 -5h475q2 0 6 5t8 15q4 11 4 23zM274 658h256l-27 67q-4 5 -9 6h-182q-6 -1 -10 -6zM805 640v-37q0 -8 -5 -13t-14 -5h-55v-542q0 -47 -26 -82q-27 -35 -65 -34h-475q-38 0 -65 33
q-27 34 -27 81v544h-55q-8 0 -13 5t-5 13v37q0 8 5 13t13 5h177l39 96q8 22 31 36q23 15 46 15h183q23 0 45 -15q23 -15 30 -36l40 -96h177q8 0 14 -5q5 -5 5 -13z" />
    <glyph glyph-name="uniF015" unicode="&#xf015;" horiz-adv-x="950" 
d="M805 311v-274q0 -15 -11 -26t-26 -11h-219v219h-147v-219h-219q-15 0 -26 11t-11 26v274v1v2l329 271l329 -271q1 -1 1 -3zM932 350l-35 -42q-4 -5 -12 -6h-2q-7 0 -13 4l-395 330l-395 -330q-7 -4 -13 -4q-7 1 -13 6l-36 42q-4 6 -3 14t7 12l410 342q18 15 43 15
q26 0 44 -15l139 -116v111q0 8 6 13q5 5 13 5h109q8 0 14 -5q5 -5 5 -13v-233l125 -104q6 -4 6 -12t-4 -14z" />
    <glyph glyph-name="uniF016" unicode="&#xf016;" horiz-adv-x="731" 
d="M73 0h585v439h-237q-23 0 -39 16t-16 39v237h-293v-731zM439 512h170l-170 171v-171zM731 439v-457q0 -23 -15 -39q-16 -16 -39 -16h-622q-23 0 -39 16t-16 39v768q0 23 16 38q16 16 39 17h311q23 0 50 -11q28 -11 44 -28l232 -234q16 -16 28 -43q11 -27 11 -50z" />
    <glyph glyph-name="uniF017" unicode="&#xf017;" horiz-adv-x="877" 
d="M622 347v-36q0 -7 -6 -13q-5 -5 -13 -5h-219q-7 0 -13 5q-5 5 -5 13v256q0 7 5 13q5 5 13 5h37q7 0 12 -5t6 -13v-201h164q7 0 13 -6t6 -13zM731 366q0 59 -22 113q-24 54 -63 93q-40 40 -94 63q-54 24 -113 23q-59 0 -113 -23q-54 -24 -94 -63q-40 -40 -63 -93
q-24 -54 -23 -113q0 -59 23 -114q24 -54 63 -93q40 -40 94 -63q54 -24 113 -23q59 0 113 23q54 24 94 63q40 40 63 93q22 55 22 114zM878 366q0 -120 -59 -221q-58 -100 -160 -159q-100 -58 -220 -59q-120 0 -221 59q-100 58 -160 159q-58 100 -58 221q0 120 58 220t160 159
q100 58 221 60q120 0 220 -60q100 -58 160 -159q59 -100 59 -220z" />
    <glyph glyph-name="uniF018" unicode="&#xf018;" horiz-adv-x="1096" 
d="M635 308v3l-13 183q-1 7 -8 13q-6 5 -12 5h-106q-7 0 -14 -5q-6 -5 -6 -13l-14 -183v-3q-1 -7 5 -11q5 -4 12 -4h139q7 0 13 4q5 4 4 11zM1069 42q0 -42 -27 -42h-402q7 0 12 5t5 13l-11 147q-1 7 -7 12t-12 6h-156q-7 0 -13 -6q-6 -5 -6 -12l-12 -147q-1 -7 4 -13
q5 -5 13 -5h-402q-27 0 -26 42q0 31 14 66l239 597q4 11 15 18q10 8 21 8h194q-7 0 -13 -5t-6 -13l-9 -110q-1 -8 4 -13t13 -5h95q7 0 12 5t5 13l-9 110q-1 7 -6 13q-6 5 -13 5h194q11 0 22 -8q10 -8 14 -18l239 -597q15 -35 15 -66z" />
    <glyph glyph-name="uniF019" unicode="&#xf019;" horiz-adv-x="950" 
d="M765 417q9 -24 -8 -40l-256 -256q-10 -11 -26 -11q-15 0 -25 11l-256 256q-17 16 -9 40q9 23 34 22h147v256q0 15 11 26t25 10h147q15 0 25 -10q11 -11 11 -26v-256h146q25 1 34 -22zM933 293q8 0 13 -5t5 -14v-329q0 -8 -5 -13t-13 -5h-915q-8 0 -13 5t-5 13v329
q0 8 5 14q5 5 13 5h110q8 0 13 -5t5 -14v-201h659v201q0 8 5 14q5 5 13 5h110z" />
    <glyph glyph-name="uniF01A" unicode="&#xf01a;" horiz-adv-x="877" 
d="M640 347q0 -7 -6 -13l-182 -182q-5 -5 -13 -6q-8 0 -13 6l-183 182q-5 5 -5 13q0 7 5 13q5 5 13 6h110v201q0 7 5 13q5 5 13 5h110q7 0 13 -5q5 -5 5 -13v-201h110q8 0 13 -6q5 -5 5 -13zM731 366q0 59 -22 113q-24 54 -63 93q-40 40 -94 63q-54 24 -113 23
q-59 0 -113 -23q-54 -24 -94 -63q-40 -40 -63 -93q-24 -54 -23 -113q0 -59 23 -114q24 -54 63 -93q40 -40 94 -63q54 -24 113 -23q59 0 113 23q54 24 94 63q40 40 63 93q22 55 22 114zM878 366q0 -120 -59 -221q-58 -100 -160 -159q-100 -58 -220 -59q-120 0 -221 59
q-100 58 -160 159q-58 100 -58 221q0 120 58 220t160 159q100 58 221 60q120 0 220 -60q100 -58 160 -159q59 -100 59 -220z" />
    <glyph glyph-name="uniF01B" unicode="&#xf01b;" horiz-adv-x="877" 
d="M640 384q0 -7 -5 -13q-5 -5 -13 -5h-110v-201q0 -7 -5 -13q-5 -5 -13 -6h-110q-7 0 -13 6q-5 5 -5 13v201h-110q-8 0 -13 5t-5 13q0 7 6 13l182 183q5 5 13 5t13 -5l183 -183q5 -5 5 -13zM731 366q0 59 -22 113q-24 54 -63 93q-40 40 -94 63q-54 24 -113 23
q-59 0 -113 -23q-54 -24 -94 -63q-40 -40 -63 -93q-24 -54 -23 -113q0 -59 23 -114q24 -54 63 -93q40 -40 94 -63q54 -24 113 -23q59 0 113 23q54 24 94 63q40 40 63 93q22 55 22 114zM878 366q0 -120 -59 -221q-58 -100 -160 -159q-100 -58 -220 -59q-120 0 -221 59
q-100 58 -160 159q-58 100 -58 221q0 120 58 220t160 159q100 58 221 60q120 0 220 -60q100 -58 160 -159q59 -100 59 -220z" />
    <glyph glyph-name="uniF01C" unicode="&#xf01c;" horiz-adv-x="877" 
d="M585 329h180q-1 2 -1 5q-1 3 -2 4l-121 284h-404l-121 -284q-1 -1 -2 -4t-1 -5h180l54 -110h183zM878 312v-275q0 -15 -11 -26t-26 -11h-804q-15 0 -26 11t-11 26v275q0 36 14 70l137 315q6 14 20 25q15 9 30 9h476q15 0 30 -9t20 -25l136 -315q15 -34 15 -70z" />
    <glyph glyph-name="uniF01D" unicode="&#xf01d;" horiz-adv-x="877" 
d="M658 366q0 -22 -19 -32l-292 -165q-8 -4 -18 -4q-9 0 -18 5q-18 10 -18 31v329q0 22 18 32q17 11 36 0l292 -165q19 -9 19 -31zM731 366q0 59 -22 113q-24 54 -63 93q-40 40 -94 63q-54 24 -113 23q-59 0 -113 -23q-54 -24 -94 -63q-40 -40 -63 -93q-24 -54 -23 -113
q0 -59 23 -114q24 -54 63 -93q40 -40 94 -63q54 -24 113 -23q59 0 113 23q54 24 94 63q40 40 63 93q22 55 22 114zM878 366q0 -120 -59 -221q-58 -100 -160 -159q-100 -58 -220 -59q-120 0 -221 59q-100 58 -160 159q-58 100 -58 221q0 120 58 220t160 159q100 58 221 60
q120 0 220 -60q100 -58 160 -159q59 -100 59 -220z" />
    <glyph glyph-name="uniF01E" unicode="&#xf01e;" horiz-adv-x="877" 
d="M878 731v-256q0 -15 -11 -25q-11 -11 -26 -11h-256q-24 0 -33 23t7 39l79 79q-85 78 -199 78q-59 0 -113 -23q-54 -24 -94 -63q-40 -40 -63 -93q-24 -54 -23 -113q0 -59 23 -114q24 -54 63 -93q40 -40 94 -63q54 -24 113 -23q96 0 173 57t106 150q4 13 17 13h114
q9 0 14 -7q6 -7 4 -16q-23 -100 -84 -178q-62 -78 -152 -122q-90 -43 -192 -43q-89 0 -171 35q-81 35 -139 93t-94 141q-35 81 -35 170t35 170t94 140q58 58 139 94q81 35 171 35q84 0 162 -32q79 -32 140 -90l74 74q16 17 40 8q23 -10 23 -34z" />
    <glyph glyph-name="uniF021" unicode="&#xf021;" horiz-adv-x="877" 
d="M863 274v-4q-37 -154 -153 -248q-117 -95 -274 -95q-83 0 -161 31q-78 32 -139 90l-74 -74q-11 -11 -25 -11q-15 0 -26 11t-11 26v256q0 15 11 26t26 11h256q15 0 25 -11q11 -11 11 -26t-11 -26l-78 -78q41 -38 92 -58t107 -21q77 0 143 38q67 37 106 102q6 9 30 67
q4 13 17 13h110q7 0 13 -6q5 -6 5 -13zM878 731v-256q0 -15 -11 -25q-11 -11 -26 -11h-256q-15 0 -26 11t-10 25q0 15 10 26l79 79q-85 78 -199 78q-77 0 -143 -36q-67 -37 -107 -103q-6 -9 -29 -67q-4 -13 -18 -13h-113q-7 0 -14 5q-5 5 -5 13v4q37 154 155 249
q117 95 274 95q83 0 162 -32t140 -90l74 74q11 11 26 11t26 -11t11 -26z" />
    <glyph glyph-name="uniF022" unicode="&#xf022;" 
d="M219 201v-36q0 -7 -5 -13q-5 -5 -13 -6h-36q-7 0 -13 6q-5 5 -6 13v36q0 7 6 13q5 5 13 5h36q7 0 13 -5q5 -6 5 -13zM219 347v-36q0 -7 -5 -13q-5 -5 -13 -5h-36q-7 0 -13 5q-5 5 -6 13v36q0 7 6 13q5 5 13 6h36q7 0 13 -6q5 -6 5 -13zM219 494v-37q0 -7 -5 -13
q-5 -5 -13 -5h-36q-7 0 -13 5q-5 5 -6 13v37q0 7 6 13q5 5 13 5h36q7 0 13 -5q5 -6 5 -13zM878 201v-36q0 -7 -6 -13q-5 -5 -13 -6h-548q-7 0 -13 6q-5 5 -5 13v36q0 7 5 13q5 5 13 5h548q7 0 13 -5q6 -6 6 -13zM878 347v-36q0 -7 -6 -13q-5 -5 -13 -5h-548q-7 0 -13 5
q-5 5 -5 13v36q0 7 5 13q5 5 13 6h548q7 0 13 -6t6 -13zM878 494v-37q0 -7 -6 -13q-5 -5 -13 -5h-548q-7 0 -13 5q-5 5 -5 13v37q0 7 5 13q5 5 13 5h548q7 0 13 -5q6 -6 6 -13zM951 91v476q0 7 -6 13q-5 5 -12 5h-842q-7 0 -12 -5t-6 -13v-476q0 -7 6 -12q5 -5 12 -6h842
q7 0 12 6q6 5 6 12zM1024 713v-622q0 -38 -27 -64q-27 -27 -64 -27h-842q-38 0 -64 27q-27 27 -27 64v622q0 38 27 64q27 27 64 28h842q38 0 64 -28q27 -26 27 -64z" />
    <glyph glyph-name="uniF023" unicode="&#xf023;" horiz-adv-x="657" 
d="M402 293q0 31 -21 51q-22 22 -52 22q-31 0 -51 -22q-22 -22 -22 -51q0 -22 11 -39t29 -27l-39 -131q-3 -8 2 -15q6 -7 15 -8h110q9 0 15 8q6 7 2 15l-39 131q18 9 29 27q11 17 11 39zM183 439h292v110q0 60 -43 103t-103 43t-104 -43q-43 -43 -42 -103v-110zM658 384
v-329q0 -23 -16 -39t-39 -16h-548q-23 0 -39 16t-16 39v329q0 23 16 39t39 16h18v110q0 105 75 180q76 76 181 76t181 -76t75 -180v-110h18q23 0 39 -16t16 -39z" />
    <glyph glyph-name="uniF024" unicode="&#xf024;" 
d="M183 731q0 -41 -37 -62v-724q0 -7 -5 -13q-5 -5 -13 -5h-37q-7 0 -12 5t-6 13v724q-37 22 -36 62q0 31 21 52q22 22 52 22q31 0 52 -22q21 -21 21 -52zM1024 695v-436q0 -14 -7 -22t-23 -16q-123 -67 -211 -66q-35 0 -70 13q-36 12 -62 27q-27 15 -66 27q-40 12 -81 12
q-110 0 -265 -82q-9 -5 -20 -6q-15 0 -25 11q-11 11 -11 26v424q0 18 18 31q12 8 45 25q135 69 240 68q61 0 114 -16t126 -50q22 -11 50 -12q31 0 67 13q36 12 63 26q27 15 50 28q24 12 31 11q15 0 26 -10q11 -11 11 -26z" />
    <glyph glyph-name="uniF025" unicode="&#xf025;" horiz-adv-x="950" 
d="M951 372q0 -95 -35 -179l-11 -29l-105 -19q-12 -47 -52 -77q-39 -31 -90 -31v-19q0 -8 -5 -13t-13 -5h-37q-8 0 -13 5t-5 13v329q0 8 5 13t13 6h37q8 0 13 -6q5 -5 5 -13v-18q41 0 74 -20q34 -20 53 -55l39 7q16 54 17 111q0 85 -50 158q-50 75 -136 120q-85 45 -180 45
t-180 -45t-135 -120t-50 -158q0 -56 16 -111l39 -7q19 34 53 55q34 20 75 20v18q0 8 5 13t13 6h36q8 0 13 -6q5 -5 6 -13v-329q0 -8 -6 -13q-5 -5 -13 -5h-36q-8 0 -13 5t-5 13v19q-50 0 -90 31q-39 31 -51 77l-106 19l-12 29q-34 85 -34 179q0 86 38 166t102 138
q63 58 153 94q88 35 182 35q95 0 183 -35t152 -94q63 -58 102 -138t39 -166z" />
    <glyph glyph-name="uniF026" unicode="&#xf026;" horiz-adv-x="438" 
d="M439 677v-622q0 -15 -11 -26t-26 -11t-25 11l-191 190h-149q-15 0 -26 11t-11 26v219q0 15 11 26t26 11h149l191 190q11 11 25 11q15 0 26 -11q11 -10 11 -25z" />
    <glyph glyph-name="uniF027" unicode="&#xf027;" horiz-adv-x="657" 
d="M439 677v-622q0 -15 -11 -26t-26 -11t-25 11l-191 190h-149q-15 0 -26 11t-11 26v219q0 15 11 26t26 11h149l191 190q11 11 25 11q15 0 26 -11q11 -10 11 -25zM658 366q0 -43 -24 -81q-25 -38 -65 -54q-6 -3 -14 -3q-15 0 -26 12q-11 10 -10 25q0 12 6 21q7 8 18 14
q9 6 19 13q9 7 17 20q7 13 6 33q0 19 -6 32q-7 13 -17 21q-9 7 -19 13q-9 6 -18 14q-7 8 -6 20q0 15 10 27q11 10 26 10q8 0 14 -3q40 -15 65 -54q24 -37 24 -80z" />
    <glyph glyph-name="uniF028" unicode="&#xf028;" horiz-adv-x="950" 
d="M439 677v-622q0 -15 -11 -26t-26 -11t-25 11l-191 190h-149q-15 0 -26 11t-11 26v219q0 15 11 26t26 11h149l191 190q11 11 25 11q15 0 26 -11q11 -10 11 -25zM658 366q0 -43 -24 -81q-25 -38 -65 -54q-6 -3 -14 -3q-15 0 -26 12q-11 10 -10 25q0 12 6 21q7 8 18 14
q9 6 19 13q9 7 17 20q7 13 6 33q0 19 -6 32q-7 13 -17 21q-9 7 -19 13q-9 6 -18 14q-7 8 -6 20q0 15 10 27q11 10 26 10q8 0 14 -3q40 -15 65 -54q24 -37 24 -80zM805 366q0 -87 -49 -162q-48 -74 -128 -108q-7 -3 -15 -2q-15 0 -26 10q-11 11 -12 26q0 23 23 34
q32 16 44 25q42 31 66 77t23 100q0 52 -23 99q-24 46 -66 78q-11 8 -44 24q-23 11 -23 34q0 15 12 26q11 11 25 11q7 0 16 -3q80 -34 128 -108q49 -74 49 -161zM951 366q0 -131 -72 -242q-73 -110 -194 -162q-7 -3 -14 -3q-15 0 -27 11q-11 11 -10 26q0 20 22 34q4 2 13 6
t13 6q27 14 46 29q71 52 111 130t39 165q0 87 -39 164q-40 78 -111 130q-20 15 -46 30q-4 2 -13 5q-9 4 -13 6q-23 13 -22 34q0 15 10 26q11 11 27 11q7 0 14 -3q121 -52 194 -162q72 -110 72 -241z" />
    <glyph glyph-name="uniF029" unicode="&#xf029;" horiz-adv-x="803" 
d="M219 219v-73h-73v73h73zM219 658v-73h-73v73h73zM658 658v-73h-73v73h73zM73 74h220v219h-220v-219zM73 512h220v219h-220v-219zM512 512h219v219h-219v-219zM366 366v-366h-366v366h366zM658 73v-73h-73v73h73zM805 73v-73h-74v73h74zM805 366v-220h-220v73h-73v-219
h-73v366h219v-73h73v73h74zM366 805v-366h-366v366h366zM805 805v-366h-366v366h366z" />
    <glyph glyph-name="uniF02A" unicode="&#xf02a;" 
d="M384 805v-878h-37v878h37zM805 805v-878h-37v878h37zM896 805v-878h-37v878h37zM329 805v-878h-36v878h36zM731 805v-878h-146v878h146zM512 805v-878h-73v878h73zM256 805v-878h-73v878h73zM1024 805v-878h-73v878h73zM146 805v-878h-146v878h146z" />
    <glyph glyph-name="uniF02B" unicode="&#xf02b;" horiz-adv-x="877" 
d="M256 622q0 31 -22 52q-22 22 -51 21q-31 0 -52 -21q-22 -22 -21 -52q0 -31 21 -52q22 -22 52 -21q31 0 51 21q22 21 22 52zM865 293q0 -31 -20 -52l-281 -281q-23 -22 -52 -21q-31 0 -51 21l-409 409q-22 22 -37 58q-15 37 -15 67v237q0 30 22 52t51 22h238q31 0 67 -15
q37 -15 58 -37l409 -409q20 -21 20 -51z" />
    <glyph glyph-name="uniF02C" unicode="&#xf02c;" horiz-adv-x="1096" 
d="M256 622q0 31 -22 52q-22 22 -51 21q-31 0 -52 -21q-22 -22 -21 -52q0 -31 21 -52q22 -22 52 -21q31 0 51 21q22 21 22 52zM865 293q0 -31 -20 -52l-281 -281q-23 -22 -52 -21q-31 0 -51 21l-409 409q-22 22 -37 58q-15 37 -15 67v237q0 30 22 52t51 22h238q31 0 67 -15
q37 -15 58 -37l409 -409q20 -21 20 -51zM1085 293q0 -31 -21 -52l-281 -281q-23 -22 -52 -21q-20 0 -34 8q-13 8 -29 25l268 269q22 22 21 52q0 30 -21 51l-409 409q-22 22 -58 37q-37 15 -67 15h128q31 0 67 -15q37 -15 58 -37l409 -409q21 -21 21 -51z" />
    <glyph glyph-name="uniF02D" unicode="&#xf02d;" horiz-adv-x="950" 
d="M937 604q23 -33 10 -74l-157 -517q-11 -37 -44 -61q-33 -25 -70 -25h-528q-44 0 -85 30q-41 31 -56 76q-13 38 -1 72q0 2 1 16q2 13 2 20q1 4 -1 13q-2 8 -2 11q1 6 5 12q3 6 9 13q6 8 10 14q13 22 25 52q12 31 18 52q2 6 0 18q-1 11 0 16q2 6 9 15q8 9 10 14
q12 20 24 53q12 32 14 51q1 5 -1 19q-2 13 0 15q2 7 12 17l14 14q11 15 23 48q13 34 17 55q1 4 -2 14q-2 10 -2 16q1 4 6 10q4 6 10 13t9 12q4 7 10 17q5 10 8 20q4 9 10 21q5 11 11 18t15 14q9 6 21 6q11 0 26 -3v-1q22 5 29 5h435q42 0 65 -33q23 -32 10 -74l-156 -518
q-20 -68 -41 -87q-20 -19 -73 -20h-497q-15 0 -21 -8q-6 -9 -1 -25q13 -40 83 -40h527q16 0 32 9q15 9 19 24l172 564q4 12 3 32q22 -9 34 -25zM329 603q-2 -7 1 -12t11 -6h347q7 0 15 6q7 5 10 12l12 37q2 7 -2 13q-3 5 -11 5h-347q-7 0 -15 -5q-7 -5 -9 -13zM282 457
q-2 -7 1 -13q3 -5 11 -5h347q7 0 14 5t11 13l11 37q2 7 -1 13q-3 5 -11 5h-348q-7 0 -15 -5q-7 -5 -9 -13z" />
    <glyph glyph-name="uniF02E" unicode="&#xf02e;" horiz-adv-x="731" 
d="M666 805q13 0 24 -5q18 -7 30 -24q11 -16 11 -36v-736q0 -19 -11 -36q-11 -16 -30 -23q-11 -4 -24 -4q-28 0 -49 18l-251 242l-252 -242q-20 -18 -47 -19q-13 0 -26 5q-18 7 -30 23q-11 16 -11 36v736q0 19 11 36q11 16 30 24q12 5 26 5h599z" />
    <glyph glyph-name="uniF02F" unicode="&#xf02f;" horiz-adv-x="950" 
d="M219 0h512v146h-512v-146zM219 366h512v219h-91q-23 0 -39 16t-16 39v91h-366v-365zM878 329q0 15 -11 26t-26 11t-26 -11t-10 -26q0 -15 10 -26q11 -11 26 -10q15 0 26 10q11 11 11 26zM951 329v-238q0 -7 -6 -12q-5 -5 -12 -6h-128v-91q0 -23 -17 -39q-16 -16 -38 -16
h-549q-23 0 -39 16t-16 39v91h-128q-7 0 -13 6q-5 5 -5 12v238q0 45 33 78t77 32h36v311q0 23 16 38q16 16 39 17h384q23 0 51 -11t43 -28l87 -87q16 -16 28 -43q11 -28 11 -51v-146h36q45 0 78 -32q32 -33 32 -78z" />
    <glyph glyph-name="uniF030" unicode="&#xf030;" horiz-adv-x="1096" 
d="M549 494q68 0 116 -49q48 -48 48 -116t-48 -116t-116 -48t-117 48q-48 48 -48 116t48 116q49 49 117 49zM951 731q60 0 104 -43q43 -43 42 -103v-512q0 -60 -42 -104q-43 -43 -104 -42h-805q-60 0 -103 42q-43 43 -43 104v512q0 60 43 103t103 43h128l29 78q11 28 40 48
t59 21h293q31 0 59 -21q29 -20 40 -48l29 -78h128zM549 73q105 0 180 75t76 181q0 105 -76 181q-75 75 -180 75t-181 -75q-75 -75 -75 -181q0 -105 75 -181q76 -75 181 -75z" />
    <glyph glyph-name="uniF031" unicode="&#xf031;" horiz-adv-x="950" 
d="M415 558l-98 -257q42 -1 87 -1q46 -1 69 -1h30l16 1q-18 54 -52 137q-29 76 -52 121zM12 -73h-12l1 45q12 4 46 11q51 9 63 17q11 9 27 39l135 352l160 414h43h31l6 -12l117 -275q58 -138 71 -170q23 -58 55 -134q15 -33 37 -93q13 -38 37 -85q12 -28 20 -33
q12 -11 40 -13q27 -3 58 -16q3 -23 4 -32q0 -8 -1 -15q-46 0 -109 4q-53 5 -109 6q-45 0 -77 -3l-114 -6l-33 -1q0 26 2 45l75 16q32 7 39 13q7 7 7 15t-3 19l-28 65l-52 130l-257 1q-16 -37 -60 -156q-13 -37 -13 -48q0 -17 10 -25q15 -12 59 -18q2 0 8 -1t16 -3
q11 -2 24 -4q1 -16 1 -32q0 -9 -2 -16q-38 0 -199 12l-27 -6q-47 -7 -96 -7z" />
    <glyph glyph-name="uniF032" unicode="&#xf032;" horiz-adv-x="803" 
d="M317 8q43 -18 80 -17q75 0 123 22q48 24 70 65q22 40 22 103q0 66 -23 104q-33 53 -81 71q-46 18 -141 19q-42 0 -58 -6v-82l-1 -99l2 -154q0 -10 7 -26zM309 435q25 -4 63 -4q100 0 150 37q51 37 51 128q0 63 -49 106q-48 43 -145 43q-30 0 -75 -7q0 -26 2 -44
q4 -70 3 -159l-1 -56q0 -25 1 -44zM0 -73l1 54q26 5 39 7q44 7 71 17q9 15 11 29q5 38 5 111l-1 284q-3 146 -5 231q-1 50 -6 62q-1 2 -7 7q-10 7 -39 8q-17 1 -66 8l-2 48l149 3l217 8h25h8t9 1q1 0 12 -1h23h42q50 0 109 -16q25 -7 55 -22q33 -16 59 -43t36 -59
q12 -33 13 -70q0 -40 -19 -74q-18 -33 -54 -59q-15 -11 -86 -44q101 -24 153 -84t53 -134q0 -43 -17 -93q-12 -36 -40 -66q-38 -41 -80 -63q-42 -20 -116 -33q-47 -8 -114 -6l-112 2q-48 1 -170 -7q-20 -2 -156 -6z" />
    <glyph glyph-name="uniF033" unicode="&#xf033;" horiz-adv-x="584" 
d="M0 -72l9 48q2 1 44 12q43 11 67 22q16 22 23 58l16 79l31 154l8 36q4 26 10 48q5 24 8 39q4 15 7 27q3 11 5 17l2 6l18 90l9 36l12 77l4 29v21q-24 12 -82 16q-16 1 -21 2l10 60l181 -8q23 -1 42 -1q38 0 122 5q18 1 39 2q20 1 21 2q-1 -11 -3 -22q-4 -16 -8 -29
q-32 -11 -62 -18q-37 -9 -57 -18q-7 -17 -15 -50q-5 -26 -7 -46q-26 -114 -38 -176l-35 -178l-21 -90l-25 -134l-7 -26q-1 -4 1 -15q37 -8 68 -12q20 -3 38 -6q-1 -16 -4 -33q-4 -17 -6 -24h-13q-13 -1 -23 -1q-5 0 -17 1q-11 2 -83 11l-112 1q-24 1 -100 -7q-43 -4 -56 -5z
" />
    <glyph glyph-name="uniF034" unicode="&#xf034;" 
d="M46 804l31 -16q11 -3 121 -3h74l11 2l65 1l123 -1h168l19 -1q8 -1 16 5q8 4 12 9l4 4l25 1q8 0 15 -1v-60l1 -75v-57v-33q0 -18 -3 -29q-23 -8 -38 -10q-14 25 -32 72q-4 13 -8 36q-4 22 -7 38q-2 15 -3 16q-7 8 -15 11q-4 1 -25 2q-20 0 -59 -1t-63 -1q-19 0 -39 -2
q-6 -55 -4 -78v-87v-190l2 -205l-1 -84q-1 -27 6 -49q28 -14 52 -18q1 0 10 -3t25 -7t25 -7q17 -4 29 -11q3 -26 2 -28q0 -6 -1 -17q-8 -1 -20 0q-62 0 -107 5q-41 4 -135 6q-50 0 -134 -9q-28 -2 -40 -2q-1 12 -2 15v15v5q12 18 45 28q80 22 92 28q5 12 6 32q4 110 4 248
l-3 245q-1 36 0 67v59q0 27 -1 32q-1 6 -4 9t-7 3q-22 3 -85 4q-25 0 -58 -8t-41 -14q-7 -5 -13 -19q-5 -13 -12 -43q-7 -29 -14 -48q-3 -11 -11 -18t-12 -8q-26 15 -32 26v170v49h46zM996 73q18 0 25 -11q5 -10 -6 -25l-73 -92q-11 -15 -28 -16q-16 0 -27 16l-73 92
q-11 15 -6 25t23 11h47v585h-47q-18 0 -23 11q-5 10 6 25l73 92q11 15 27 16q16 0 28 -16l73 -92q11 -15 6 -25t-25 -11h-45v-585h45z" />
    <glyph glyph-name="uniF035" unicode="&#xf035;" horiz-adv-x="877" 
d="M46 804l31 -16q11 -3 121 -3h74l11 2l65 1l255 -1h182l20 -1q8 -1 15 5q8 4 13 9l4 4l23 1q8 0 17 -1v-60l1 -75v-57v-33q0 -18 -4 -29q-23 -8 -38 -10q-14 25 -31 72q-4 13 -8 36q-4 22 -7 38q-2 15 -4 16q-7 8 -15 11q-4 1 -34 2q-30 0 -79 -1q-50 -1 -73 -1
q-53 0 -72 -2q-6 -55 -5 -78l1 -87v29l1 -204v-84q-1 -27 6 -49q28 -14 51 -19q1 0 11 -3q9 -3 24 -7q16 -4 25 -6q17 -4 28 -10q3 -26 3 -29q0 -6 -2 -18q-8 -1 -19 0q-62 0 -107 6q-41 4 -136 5q-47 0 -133 -7q-26 -3 -40 -4q-1 12 -1 15l-1 15v5q12 18 45 28q80 22 91 29
q5 12 7 31q3 78 4 248l-4 26q0 152 -1 158t-3 9q-3 3 -8 3q-22 3 -85 4q-29 0 -96 -8q-68 -8 -75 -14q-7 -5 -13 -19q-5 -13 -12 -43q-7 -29 -14 -48q-3 -11 -11 -18t-12 -8q-26 15 -32 26v170v49h46zM860 65q15 -11 14 -28q0 -16 -14 -29l-93 -71q-15 -11 -25 -7
q-10 5 -11 24v46h-585v-46q0 -18 -10 -24q-10 -5 -25 7l-94 71q-15 11 -14 29q0 16 14 28l94 71q15 11 25 7q10 -5 10 -24v-46h585v46q0 18 11 24q10 5 25 -7z" />
    <glyph glyph-name="uniF036" unicode="&#xf036;" 
d="M1024 110v-73q0 -15 -11 -26t-26 -11h-950q-15 0 -26 11t-11 26v73q0 15 11 25q11 11 26 11h950q15 0 26 -11q11 -10 11 -25zM805 329v-73q0 -15 -11 -26t-26 -11h-731q-15 0 -26 11t-11 26v73q0 15 11 26t26 11h731q15 0 26 -11t11 -26zM951 549v-74q0 -15 -11 -25
q-11 -11 -26 -11h-877q-15 0 -26 11t-11 25v74q0 15 11 25q11 11 26 11h877q15 0 26 -11q11 -10 11 -25zM731 768v-73q0 -15 -10 -26q-11 -11 -26 -11h-658q-15 0 -26 11t-11 26v73q0 15 11 26t26 11h658q15 0 26 -11q10 -11 10 -26z" />
    <glyph glyph-name="uniF037" unicode="&#xf037;" 
d="M1024 110v-73q0 -15 -11 -26t-26 -11h-950q-15 0 -26 11t-11 26v73q0 15 11 25q11 11 26 11h950q15 0 26 -11q11 -10 11 -25zM805 329v-73q0 -15 -11 -26t-26 -11h-512q-15 0 -26 11t-11 26v73q0 15 11 26t26 11h512q15 0 26 -11t11 -26zM951 549v-74q0 -15 -11 -25
q-11 -11 -26 -11h-804q-15 0 -26 11t-11 25v74q0 15 11 25q11 11 26 11h804q15 0 26 -11q11 -10 11 -25zM731 768v-73q0 -15 -10 -26q-11 -11 -26 -11h-366q-15 0 -26 11t-10 26v73q0 15 10 26q11 11 26 11h366q15 0 26 -11q10 -11 10 -26z" />
    <glyph glyph-name="uniF038" unicode="&#xf038;" 
d="M1024 110v-73q0 -15 -11 -26t-26 -11h-950q-15 0 -26 11t-11 26v73q0 15 11 25q11 11 26 11h950q15 0 26 -11q11 -10 11 -25zM1024 329v-73q0 -15 -11 -26t-26 -11h-731q-15 0 -26 11t-11 26v73q0 15 11 26t26 11h731q15 0 26 -11t11 -26zM1024 549v-74q0 -15 -11 -25
q-11 -11 -26 -11h-877q-15 0 -26 11t-11 25v74q0 15 11 25q11 11 26 11h877q15 0 26 -11q11 -10 11 -25zM1024 768v-73q0 -15 -11 -26t-26 -11h-658q-15 0 -26 11t-10 26v73q0 15 10 26q11 11 26 11h658q15 0 26 -11t11 -26z" />
    <glyph glyph-name="uniF039" unicode="&#xf039;" 
d="M1024 110v-73q0 -15 -11 -26t-26 -11h-950q-15 0 -26 11t-11 26v73q0 15 11 25q11 11 26 11h950q15 0 26 -11q11 -10 11 -25zM1024 329v-73q0 -15 -11 -26t-26 -11h-950q-15 0 -26 11t-11 26v73q0 15 11 26t26 11h950q15 0 26 -11t11 -26zM1024 549v-74q0 -15 -11 -25
q-11 -11 -26 -11h-950q-15 0 -26 11t-11 25v74q0 15 11 25q11 11 26 11h950q15 0 26 -11q11 -10 11 -25zM1024 768v-73q0 -15 -11 -26t-26 -11h-950q-15 0 -26 11t-11 26v73q0 15 11 26t26 11h950q15 0 26 -11t11 -26z" />
    <glyph glyph-name="uniF03A" unicode="&#xf03a;" 
d="M146 128v-110q0 -7 -5 -13q-5 -5 -13 -5h-110q-7 0 -13 5q-5 5 -5 13v110q0 7 5 13q5 5 13 5h110q7 0 13 -5q5 -6 5 -13zM146 347v-109q0 -7 -5 -13q-5 -5 -13 -6h-110q-7 0 -13 6q-5 5 -5 13v109q0 7 5 13q5 5 13 6h110q7 0 13 -6q5 -6 5 -13zM146 567v-110q0 -7 -5 -13
q-5 -5 -13 -5h-110q-7 0 -13 5q-5 5 -5 13v110q0 7 5 13q5 5 13 5h110q7 0 13 -5q5 -6 5 -13zM1024 128v-110q0 -7 -5 -13q-5 -5 -13 -5h-768q-7 0 -13 5q-5 5 -6 13v110q0 7 6 13q5 5 13 5h768q7 0 13 -5q5 -6 5 -13zM146 786v-109q0 -7 -5 -13q-5 -5 -13 -6h-110
q-7 0 -13 6q-5 5 -5 13v109q0 7 5 13q5 5 13 6h110q7 0 13 -6q5 -6 5 -13zM1024 347v-109q0 -7 -5 -13q-5 -5 -13 -6h-768q-7 0 -13 6q-5 5 -6 13v109q0 7 6 13q5 5 13 6h768q7 0 13 -6q5 -6 5 -13zM1024 567v-110q0 -7 -5 -13q-5 -5 -13 -5h-768q-7 0 -13 5q-5 5 -6 13v110
q0 7 6 13q5 5 13 5h768q7 0 13 -5q5 -6 5 -13zM1024 786v-109q0 -7 -5 -13q-5 -5 -13 -6h-768q-7 0 -13 6q-5 5 -6 13v109q0 7 6 13q5 5 13 6h768q7 0 13 -6q5 -6 5 -13z" />
    <glyph glyph-name="uniF03B" unicode="&#xf03b;" 
d="M219 567v-329q0 -7 -5 -13q-5 -5 -13 -6q-8 0 -13 5l-164 165q-5 5 -6 13q0 8 6 14l164 164q5 5 13 5q7 0 13 -5q5 -6 5 -13zM1024 128v-110q0 -7 -5 -13q-5 -5 -13 -5h-988q-7 0 -13 5q-5 5 -5 13v110q0 7 5 13q5 5 13 5h988q7 0 13 -5q5 -6 5 -13zM1024 347v-109
q0 -7 -5 -13q-5 -5 -13 -6h-622q-7 0 -13 6q-5 5 -5 13v109q0 7 5 13q5 5 13 6h622q7 0 13 -6q5 -6 5 -13zM1024 567v-110q0 -7 -5 -13q-5 -5 -13 -5h-622q-7 0 -13 5q-5 5 -5 13v110q0 7 5 13q5 5 13 5h622q7 0 13 -5q5 -6 5 -13zM1024 786v-109q0 -7 -5 -13q-5 -5 -13 -6
h-988q-7 0 -13 6q-5 5 -5 13v109q0 7 5 13q5 5 13 6h988q7 0 13 -6q5 -6 5 -13z" />
    <glyph glyph-name="uniF03C" unicode="&#xf03c;" 
d="M201 402q0 -8 -5 -13l-164 -165q-5 -5 -14 -5q-7 0 -13 6q-5 5 -5 13v329q0 7 5 13q5 5 13 5t14 -5l164 -164q5 -6 5 -14zM1024 128v-110q0 -7 -5 -13q-5 -5 -13 -5h-988q-7 0 -13 5q-5 5 -5 13v110q0 7 5 13q5 5 13 5h988q7 0 13 -5q5 -6 5 -13zM1024 347v-109
q0 -7 -5 -13q-5 -5 -13 -6h-622q-7 0 -13 6q-5 5 -5 13v109q0 7 5 13q5 5 13 6h622q7 0 13 -6q5 -6 5 -13zM1024 567v-110q0 -7 -5 -13q-5 -5 -13 -5h-622q-7 0 -13 5q-5 5 -5 13v110q0 7 5 13q5 5 13 5h622q7 0 13 -5q5 -6 5 -13zM1024 786v-109q0 -7 -5 -13q-5 -5 -13 -6
h-988q-7 0 -13 6q-5 5 -5 13v109q0 7 5 13q5 5 13 6h988q7 0 13 -6q5 -6 5 -13z" />
    <glyph glyph-name="uniF03D" unicode="&#xf03d;" horiz-adv-x="1096" 
d="M1085 730q11 -4 12 -17v-695q0 -12 -12 -17q-4 -1 -6 -1q-7 0 -13 5l-335 335v-175q0 -68 -48 -117q-48 -48 -116 -48h-402q-68 0 -117 48q-48 48 -48 117v402q0 68 48 116t117 48h402q68 0 116 -48t48 -116v-176l335 335q8 8 19 4z" />
    <glyph glyph-name="uniF03E" unicode="&#xf03e;" horiz-adv-x="1096" 
d="M366 549q0 -46 -32 -78t-78 -32t-78 32t-32 78t32 78t78 31q46 0 78 -31q32 -32 32 -78zM951 329v-256h-805v110l183 183l92 -92l292 293zM1006 731h-915q-7 0 -12 -5t-6 -13v-695q0 -7 6 -13q5 -5 12 -5h915q7 0 13 5q5 5 5 13v695q0 7 -5 13q-6 5 -13 5zM1097 713v-695
q0 -38 -27 -64q-27 -27 -64 -27h-915q-38 0 -64 27q-27 27 -27 64v695q0 38 27 64q27 27 64 28h915q38 0 64 -28q27 -26 27 -64z" />
    <glyph glyph-name="uniF040" unicode="&#xf040;" horiz-adv-x="877" 
d="M208 0l51 52l-134 134l-52 -52v-61h73v-73h62zM506 530q0 12 -12 13q-6 0 -10 -4l-310 -310q-4 -4 -4 -10q0 -12 13 -12q6 0 10 4l310 309q3 4 3 10zM475 640l238 -238l-475 -475h-238v238zM865 585q0 -31 -20 -51l-95 -95l-238 238l95 94q20 22 51 22t53 -22l134 -134
q20 -22 20 -52z" />
    <glyph glyph-name="uniF041" unicode="&#xf041;" horiz-adv-x="584" 
d="M439 512q0 60 -43 103t-103 43t-104 -43q-43 -43 -43 -103t43 -103t104 -43q60 0 103 43t43 103zM585 512q0 -62 -19 -102l-208 -443q-9 -18 -27 -29t-38 -11t-39 11q-18 11 -27 29l-209 443q-18 40 -18 102q0 121 86 207t207 86t207 -86q85 -86 85 -207z" />
    <glyph glyph-name="uniF042" unicode="&#xf042;" horiz-adv-x="877" 
d="M439 805q120 0 220 -60q100 -58 160 -159q58 -100 59 -220q0 -120 -59 -221q-58 -100 -160 -159q-100 -58 -220 -59q-120 0 -221 59q-100 58 -160 159q-58 100 -58 221q0 120 58 220t160 159q101 60 221 60zM146 366q0 -59 23 -114q24 -54 63 -93q40 -40 94 -63
q54 -24 113 -23v585q-59 0 -113 -23q-54 -24 -94 -63q-40 -40 -63 -93q-23 -54 -23 -113z" />
    <glyph glyph-name="uniF043" unicode="&#xf043;" horiz-adv-x="584" 
d="M293 219q0 20 -11 40q-1 1 -10 12q-8 12 -14 23q-6 9 -14 24t-13 29q-2 9 -12 9q-9 0 -11 -9q-4 -13 -12 -29q-8 -15 -15 -24q-6 -9 -14 -23q-8 -12 -9 -12q-11 -18 -12 -40q0 -31 22 -51q22 -22 51 -22q31 0 52 22q22 20 22 51zM585 293q0 -121 -85 -207
q-86 -86 -207 -86t-207 86t-86 207q0 83 46 157q3 5 36 52q33 46 57 86q26 40 58 101q32 62 47 116q5 17 19 26t30 10q15 0 29 -10q14 -9 19 -26q16 -53 47 -116q32 -62 57 -101q26 -40 58 -86q33 -46 36 -52q46 -72 46 -157z" />
    <glyph glyph-name="uniF044" unicode="&#xf044;" 
d="M508 201l65 66l-87 87l-65 -66v-32h54v-55h33zM759 612q-9 9 -19 0l-200 -200q-9 -9 0 -19q9 -9 18 0l201 201q9 9 0 18zM805 273v-108q0 -68 -48 -117q-48 -48 -117 -48h-475q-68 0 -117 48q-48 48 -48 117v475q0 68 48 117q48 48 117 48h475q36 0 67 -14q8 -4 10 -14
q2 -9 -5 -16l-28 -29q-8 -8 -18 -4q-13 3 -26 3h-475q-38 0 -65 -26q-27 -27 -27 -65v-475q0 -38 27 -65t65 -27h475q38 0 65 27t26 65v72q0 7 5 12l37 37q8 8 21 4q11 -5 11 -17zM750 695l164 -165l-384 -384h-164v165zM1004 620l-53 -53l-165 164l53 53q16 16 39 16
t38 -16l88 -87q16 -16 16 -39q0 -22 -16 -38z" />
    <glyph glyph-name="uniF045" unicode="&#xf045;" horiz-adv-x="950" 
d="M805 312v-147q0 -68 -48 -117q-48 -48 -117 -48h-475q-68 0 -117 48q-48 48 -48 117v475q0 68 48 117q48 48 117 48h145v0q7 0 14 -6q5 -5 5 -13q0 -15 -16 -18q-44 -15 -75 -34q-6 -2 -10 -3h-63q-38 0 -65 -26q-27 -27 -27 -65v-475q0 -38 27 -65t65 -27h475
q38 0 65 27t26 65v122q0 11 10 16q16 7 31 22q9 9 21 4q12 -6 12 -17zM940 596l-219 -219q-10 -11 -26 -11q-7 0 -14 3q-23 9 -23 33v110h-91q-184 0 -251 -75q-68 -78 -42 -270q2 -13 -11 -20q-4 -1 -7 -1q-9 0 -15 8t-12 17t-22 40q-16 30 -29 56q-12 28 -21 66
q-10 38 -11 69q0 28 2 53q2 24 9 51q6 28 15 50q10 23 27 46q16 24 40 43q23 18 53 35q32 16 72 28q40 11 91 17q52 6 112 6h91v110q0 24 23 33q7 3 14 4q15 0 26 -11l219 -220q11 -11 11 -25q0 -15 -11 -26z" />
    <glyph glyph-name="uniF046" unicode="&#xf046;" horiz-adv-x="950" 
d="M805 346v-181q0 -68 -48 -117q-48 -48 -117 -48h-475q-68 0 -117 48q-48 48 -48 117v475q0 68 48 117q48 48 117 48h475q36 0 67 -14q8 -4 10 -14q2 -9 -5 -16l-28 -29q-6 -6 -13 -5q-2 0 -5 1q-13 3 -26 3h-475q-38 0 -65 -26q-27 -27 -27 -65v-475q0 -38 27 -65t65 -27
h475q38 0 65 27t26 65v144q0 7 5 14l37 35q6 6 13 7q3 0 8 -3q11 -4 11 -16zM937 626l-466 -465q-13 -13 -32 -15q-18 0 -32 15l-246 246q-13 13 -15 32q0 18 15 32l62 64q13 13 33 13q18 0 33 -13l150 -151l370 370q13 13 32 13q18 0 32 -13l64 -63q13 -13 13 -33
q0 -19 -13 -32z" />
    <glyph glyph-name="uniF047" unicode="&#xf047;" 
d="M1024 366q0 -15 -11 -26l-146 -146q-11 -11 -26 -11t-26 11t-10 25v74h-220v-220h73q15 0 26 -11t11 -25q0 -15 -11 -26l-146 -146q-11 -11 -26 -11t-26 11l-146 146q-11 11 -11 26t11 25q11 11 26 11h73v220h-220v-74q0 -15 -10 -25q-11 -11 -26 -11t-26 11l-146 146
q-11 11 -11 26t11 25l146 147q11 11 26 11t26 -11t10 -26v-73h220v219h-73q-15 0 -26 11t-11 26t11 26l146 146q11 11 26 11t26 -11l146 -146q11 -11 11 -26t-11 -26t-26 -11h-73v-219h220v73q0 15 10 26q11 11 26 11t26 -11l146 -147q11 -10 11 -25z" />
    <glyph glyph-name="uniF048" unicode="&#xf048;" horiz-adv-x="584" 
d="M559 797q11 11 19 8q7 -3 7 -19v-841q0 -15 -7 -18t-19 7l-405 406q-5 5 -8 11v-388q0 -15 -11 -25q-11 -11 -25 -11h-73q-15 0 -26 11t-11 25v805q0 15 11 26t26 11h73q15 0 25 -11q11 -11 11 -26v-387q2 6 8 10z" />
    <glyph glyph-name="uniF049" unicode="&#xf049;" 
d="M998 797q11 11 19 8q7 -3 7 -19v-841q0 -15 -7 -18t-19 7l-405 406q-5 5 -8 11v-406q0 -15 -7 -18t-19 7l-405 406q-5 5 -8 11v-388q0 -15 -11 -25q-11 -11 -25 -11h-73q-15 0 -26 11t-11 25v805q0 15 11 26t26 11h73q15 0 25 -11q11 -11 11 -26v-387q2 6 8 10l405 406
q11 11 19 8q7 -3 7 -19v-405q2 6 8 10z" />
    <glyph glyph-name="uniF04A" unicode="&#xf04a;" horiz-adv-x="950" 
d="M925 797q11 11 18 8t8 -19v-841q0 -15 -8 -18q-7 -3 -18 7l-406 406q-4 5 -7 11v-406q0 -15 -7 -18t-19 7l-405 406q-11 11 -11 26t11 25l405 406q11 11 19 8q7 -3 7 -19v-405q3 6 7 10z" />
    <glyph glyph-name="uniF04B" unicode="&#xf04b;" horiz-adv-x="803" 
d="M791 348l-759 -422q-13 -7 -23 -2q-9 6 -9 21v841q0 15 9 21t23 -2l759 -422q13 -7 13 -17q0 -11 -13 -18z" />
    <glyph glyph-name="uniF04C" unicode="&#xf04c;" horiz-adv-x="877" 
d="M878 768v-805q0 -15 -11 -25q-11 -11 -26 -11h-292q-15 0 -26 11t-11 25v805q0 15 11 26t26 11h292q15 0 26 -11t11 -26zM366 768v-805q0 -15 -11 -25q-11 -11 -26 -11h-292q-15 0 -26 11t-11 25v805q0 15 11 26t26 11h292q15 0 26 -11t11 -26z" />
    <glyph glyph-name="uniF04D" unicode="&#xf04d;" horiz-adv-x="877" 
d="M878 768v-805q0 -15 -11 -25q-11 -11 -26 -11h-804q-15 0 -26 11t-11 25v805q0 15 11 26t26 11h804q15 0 26 -11t11 -26z" />
    <glyph glyph-name="uniF04E" unicode="&#xf04e;" horiz-adv-x="950" 
d="M26 -66q-11 -11 -19 -7q-7 3 -7 18v841q0 15 7 19q7 3 19 -8l405 -406q4 -4 8 -10v405q0 15 7 19q7 3 19 -8l405 -406q11 -11 11 -25q0 -15 -11 -26l-405 -406q-11 -11 -19 -7q-7 3 -7 18v406q-3 -6 -8 -11z" />
    <glyph glyph-name="uniF050" unicode="&#xf050;" 
d="M26 -66q-11 -11 -19 -7q-7 3 -7 18v841q0 15 7 19q7 3 19 -8l405 -406q4 -4 8 -10v405q0 15 7 19q7 3 19 -8l405 -406q4 -4 8 -10v387q0 15 11 26t25 11h73q15 0 26 -11t11 -26v-805q0 -15 -11 -25q-11 -11 -26 -11h-73q-15 0 -25 11q-11 11 -11 25v388q-3 -6 -8 -11
l-405 -406q-11 -11 -19 -7q-7 3 -7 18v406q-3 -6 -8 -11z" />
    <glyph glyph-name="uniF051" unicode="&#xf051;" horiz-adv-x="584" 
d="M26 -66q-11 -11 -19 -7q-7 3 -7 18v841q0 15 7 19q7 3 19 -8l405 -406q4 -4 8 -10v387q0 15 11 26t25 11h74q15 0 25 -11q11 -11 11 -26v-805q0 -15 -11 -25q-11 -11 -25 -11h-74q-15 0 -25 11q-11 11 -11 25v388q-3 -6 -8 -11z" />
    <glyph glyph-name="uniF052" unicode="&#xf052;" horiz-adv-x="878" 
d="M8 318l406 406q11 11 25 11q15 0 26 -11l405 -406q11 -11 9 -18q-3 -7 -19 -7h-842q-15 0 -17 7q-4 7 7 18zM842 0h-805q-15 0 -26 11t-10 26v146q0 15 10 26q11 11 26 10h805q15 0 25 -10q11 -11 12 -26v-146q0 -15 -12 -26q-10 -11 -25 -11z" />
    <glyph glyph-name="uniF053" unicode="&#xf053;" horiz-adv-x="657" 
d="M424 -22l-373 373q-22 22 -20 51q0 31 20 53l373 371q22 22 52 22q31 0 51 -22l43 -43q22 -22 22 -51q0 -31 -22 -52l-277 -278l277 -277q22 -22 22 -52q0 -31 -22 -51l-43 -44q-22 -22 -51 -20q-30 -2 -52 20z" />
    <glyph glyph-name="uniF054" unicode="&#xf054;" horiz-adv-x="657" 
d="M628 402q0 -30 -21 -52l-373 -372q-22 -22 -51 -21q-31 0 -52 21l-43 44q-22 23 -21 51q0 31 21 52l278 277l-278 278q-22 23 -21 51q0 31 21 52l43 42q20 22 52 23q31 0 51 -23l373 -371q21 -21 21 -52z" />
    <glyph glyph-name="uniF055" unicode="&#xf055;" horiz-adv-x="877" 
d="M695 329v73q0 15 -11 26t-26 11h-146v146q0 15 -11 26t-26 11h-73q-15 0 -25 -11q-11 -11 -11 -26v-146h-147q-15 0 -25 -11q-11 -11 -11 -26v-73q0 -15 11 -26t25 -10h147v-147q0 -15 11 -25q11 -11 25 -11h73q15 0 26 11t11 25v147h146q15 0 26 10q11 11 11 26z
M878 366q0 -120 -59 -221q-58 -100 -160 -159q-100 -58 -220 -59q-120 0 -221 59q-100 58 -160 159q-58 100 -58 221q0 120 58 220t160 159q100 58 221 60q120 0 220 -60q100 -58 160 -159q59 -100 59 -220z" />
    <glyph glyph-name="uniF056" unicode="&#xf056;" horiz-adv-x="877" 
d="M695 329v73q0 15 -11 26t-26 11h-439q-15 0 -25 -11q-11 -11 -11 -26v-73q0 -15 11 -26t25 -10h439q15 0 26 10q11 11 11 26zM878 366q0 -120 -59 -221q-58 -100 -160 -159q-100 -58 -220 -59q-120 0 -221 59q-100 58 -160 159q-58 100 -58 221q0 120 58 220t160 159
q100 58 221 60q120 0 220 -60q100 -58 160 -159q59 -100 59 -220z" />
    <glyph glyph-name="uniF057" unicode="&#xf057;" horiz-adv-x="877" 
d="M656 237q0 15 -10 25l-103 104l103 103q11 11 10 26q0 15 -10 26l-52 51q-11 11 -26 12q-15 0 -25 -12l-104 -103l-103 103q-11 11 -27 12q-15 0 -25 -12l-52 -51q-11 -11 -11 -26t11 -26l104 -103l-104 -104q-11 -11 -11 -25q0 -15 11 -27l52 -51q11 -11 25 -11
q15 0 27 11l103 103l104 -103q11 -11 25 -11q15 0 26 11l52 51q10 12 10 27zM878 366q0 -120 -59 -221q-58 -100 -160 -159q-100 -58 -220 -59q-120 0 -221 59q-100 58 -160 159q-58 100 -58 221q0 120 58 220t160 159q100 58 221 60q120 0 220 -60q100 -58 160 -159
q59 -100 59 -220z" />
    <glyph glyph-name="uniF058" unicode="&#xf058;" horiz-adv-x="877" 
d="M734 459q0 16 -11 25l-51 52q-11 11 -26 11t-26 -11l-233 -233l-129 129q-11 11 -26 11t-26 -11l-51 -51q-10 -10 -11 -26q0 -15 11 -26l206 -207q11 -11 26 -10q15 0 26 10l310 310q11 12 11 27zM878 366q0 -120 -59 -221q-58 -100 -160 -159q-100 -58 -220 -59
q-120 0 -221 59q-100 58 -160 159q-58 100 -58 221q0 120 58 220t160 159q100 58 221 60q120 0 220 -60q100 -58 160 -159q59 -100 59 -220z" />
    <glyph glyph-name="uniF059" unicode="&#xf059;" horiz-adv-x="877" 
d="M512 91v110q0 7 -5 13q-5 5 -13 5h-110q-7 0 -13 -5q-5 -5 -5 -13v-110q0 -7 5 -12t13 -6h110q7 0 13 6q5 5 5 12zM658 475q0 55 -33 98q-34 43 -82 64q-49 20 -104 21q-54 0 -103 -21q-49 -20 -83 -64q-34 -43 -34 -98v-6v-7l1 -7l2 -6l3 -5l4 -4l9 -1h109q8 0 13 5
t6 13q0 7 6 15q11 17 28 29q18 11 39 11q23 0 47 -12q26 -12 25 -33q0 -18 -14 -33q-15 -14 -37 -25t-42 -24q-22 -13 -37 -37t-15 -55v-6v-8l1 -7l1 -7l4 -4l4 -4l8 -1h110q9 0 14 6q4 6 4 14q1 8 8 19t21 18q34 18 41 23q36 26 55 61q21 36 21 78zM878 366
q0 -120 -59 -221q-58 -100 -160 -159q-100 -58 -220 -59q-120 0 -221 59q-100 58 -160 159q-58 100 -58 221q0 120 58 220t160 159q100 58 221 60q120 0 220 -60q100 -58 160 -159q59 -100 59 -220z" />
    <glyph glyph-name="uniF05A" unicode="&#xf05a;" horiz-adv-x="877" 
d="M585 91v37q0 8 -5 13t-13 5h-55v275q0 8 -5 13t-13 5h-183q-8 0 -13 -5t-5 -13v-37q0 -8 5 -13t13 -5h55v-220h-55q-8 0 -13 -5t-5 -13v-37q0 -8 5 -13t13 -5h256q8 0 13 5t5 13zM512 530v110q0 8 -5 13t-13 5h-110q-8 0 -13 -5t-5 -13v-110q0 -8 5 -13t13 -5h110
q8 0 13 5t5 13zM878 366q0 -120 -59 -221q-58 -100 -160 -159q-100 -58 -220 -59q-120 0 -221 59q-100 58 -160 159q-58 100 -58 221q0 120 58 220t160 159q100 58 221 60q120 0 220 -60q100 -58 160 -159q59 -100 59 -220z" />
    <glyph glyph-name="uniF05B" unicode="&#xf05b;" horiz-adv-x="877" 
d="M684 293h-62q-15 0 -26 10q-11 11 -11 26v73q0 15 11 26t26 11h62q-18 61 -64 108q-46 46 -108 64v-62q0 -15 -11 -26t-26 -11h-73q-15 0 -25 11q-11 11 -11 26v62q-61 -18 -108 -64q-46 -46 -64 -108h62q15 0 26 -11t11 -26v-73q0 -15 -11 -26t-26 -10h-62
q18 -61 64 -108q46 -46 108 -64v62q0 15 11 26t25 10h73q15 0 26 -10q11 -11 11 -26v-62q61 18 108 64q46 47 64 108zM878 402v-73q0 -15 -11 -26t-26 -10h-81q-22 -92 -89 -160q-68 -68 -159 -88v-82q0 -15 -11 -25q-11 -11 -26 -11h-73q-15 0 -25 11q-11 11 -11 25v82
q-92 22 -159 88q-68 68 -88 160h-82q-15 0 -26 10q-11 11 -11 26v73q0 15 11 26t26 11h82q22 92 88 159q68 68 159 88v82q0 15 11 26t25 11h73q15 0 26 -11t11 -26v-82q92 -22 159 -88q68 -68 89 -159h81q15 0 26 -11t11 -26z" />
    <glyph glyph-name="uniF05C" unicode="&#xf05c;" horiz-adv-x="877" 
d="M643 256q0 -15 -10 -26l-59 -58q-10 -10 -25 -10t-26 10l-84 84l-84 -84q-10 -10 -26 -10q-15 0 -26 10l-58 58q-10 10 -11 26q0 15 11 26l84 84l-84 84q-10 10 -11 25q0 15 11 26l58 58q10 10 26 10q15 0 26 -10l84 -84l84 84q10 10 26 10q15 0 25 -10l59 -58
q10 -10 10 -26q0 -15 -10 -25l-84 -84l84 -84q10 -11 10 -26zM731 366q0 59 -22 113q-24 54 -63 93q-40 40 -94 63q-54 24 -113 23q-59 0 -113 -23q-54 -24 -94 -63q-40 -40 -63 -93q-24 -54 -23 -113q0 -59 23 -114q24 -54 63 -93q40 -40 94 -63q54 -24 113 -23
q59 0 113 23q54 24 94 63q40 40 63 93q22 55 22 114zM878 366q0 -120 -59 -221q-58 -100 -160 -159q-100 -58 -220 -59q-120 0 -221 59q-100 58 -160 159q-58 100 -58 221q0 120 58 220t160 159q100 58 221 60q120 0 220 -60q100 -58 160 -159q59 -100 59 -220z" />
    <glyph glyph-name="uniF05D" unicode="&#xf05d;" horiz-adv-x="877" 
d="M680 439q0 -15 -11 -26l-183 -183l-58 -58q-10 -10 -26 -10q-15 0 -25 10l-59 58l-109 110q-10 10 -10 26q0 15 10 25l58 59q10 10 26 10q15 0 25 -10l84 -84l157 157q10 10 26 11q15 0 26 -11l58 -58q11 -11 11 -26zM731 366q0 59 -22 113q-24 54 -63 93q-40 40 -94 63
q-54 24 -113 23q-59 0 -113 -23q-54 -24 -94 -63q-40 -40 -63 -93q-24 -54 -23 -113q0 -59 23 -114q24 -54 63 -93q40 -40 94 -63q54 -24 113 -23q59 0 113 23q54 24 94 63q40 40 63 93q22 55 22 114zM878 366q0 -120 -59 -221q-58 -100 -160 -159q-100 -58 -220 -59
q-120 0 -221 59q-100 58 -160 159q-58 100 -58 221q0 120 58 220t160 159q100 58 221 60q120 0 220 -60q100 -58 160 -159q59 -100 59 -220z" />
    <glyph glyph-name="uniF05E" unicode="&#xf05e;" horiz-adv-x="877" 
d="M731 366q0 80 -40 148l-401 -400q70 -41 149 -41q59 0 113 23q54 24 94 63q40 40 63 93q22 55 22 114zM186 217l402 400q-70 41 -149 41q-59 0 -113 -23q-54 -24 -94 -63q-40 -40 -63 -93q-24 -54 -23 -113q-1 -79 40 -149zM878 366q0 -120 -59 -221q-58 -100 -160 -159
q-100 -58 -220 -59q-120 0 -221 59q-100 58 -160 159q-58 100 -58 221q0 120 58 220t160 159q100 58 221 60q120 0 220 -60q100 -58 160 -159q59 -100 59 -220z" />
    <glyph glyph-name="uniF060" unicode="&#xf060;" horiz-adv-x="877" 
d="M878 366v-73q0 -31 -19 -52q-18 -22 -48 -22h-402l166 -168q22 -20 23 -51q0 -31 -23 -51l-41 -44q-22 -22 -53 -21q-30 0 -51 21l-373 373q-22 22 -20 51q0 30 20 52l373 372q22 22 51 21q30 0 53 -21l41 -42q22 -22 23 -53q0 -31 -23 -52l-166 -167h402q30 0 48 -21
q19 -21 19 -52z" />
    <glyph glyph-name="uniF061" unicode="&#xf061;" horiz-adv-x="877" 
d="M841 329q0 -31 -21 -51l-371 -373q-23 -22 -53 -21q-29 0 -52 21l-42 43q-22 22 -22 52q0 31 22 52l167 167h-402q-30 0 -49 22q-18 22 -18 52v73q0 31 18 52q18 22 49 21h402l-167 168q-22 20 -22 51t22 52l42 43q22 22 52 21q32 0 53 -21l371 -372q21 -20 21 -52z" />
    <glyph glyph-name="uniF062" unicode="&#xf062;" horiz-adv-x="950" 
d="M921 323q0 -29 -22 -52l-43 -43q-22 -22 -51 -21q-31 0 -52 21l-168 168v-402q0 -30 -21 -48q-22 -18 -52 -19h-73q-31 0 -52 19q-22 18 -21 48v402l-168 -168q-20 -22 -52 -21q-31 0 -51 21l-43 43q-22 22 -21 52q0 31 21 52l372 371q20 22 51 22t52 -22l372 -371
q22 -22 22 -52z" />
    <glyph glyph-name="uniF063" unicode="&#xf063;" horiz-adv-x="950" 
d="M921 402q0 -31 -22 -51l-372 -373q-23 -22 -52 -21q-31 0 -51 21l-372 373q-22 20 -21 51q0 31 21 53l42 42q23 22 52 21q31 0 52 -21l168 -168v402q0 30 21 52q22 22 52 22h73q30 0 51 -22q22 -22 22 -52v-402l168 168q22 22 52 21q30 0 51 -21l43 -42q22 -23 22 -53z
" />
    <glyph glyph-name="uniF064" unicode="&#xf064;" 
d="M1024 512q0 -15 -11 -26l-292 -292q-11 -11 -26 -11t-26 11t-11 25v147h-128q-56 0 -100 -4q-44 -3 -88 -12t-76 -24q-33 -15 -60 -40q-28 -25 -46 -58q-17 -34 -28 -78q-10 -46 -10 -104q0 -32 3 -71q0 -3 2 -13q1 -10 1 -15q0 -8 -5 -15q-5 -6 -13 -5q-9 0 -16 10
q-4 5 -8 12q-3 7 -7 17q-4 9 -6 14q-73 163 -73 258q0 114 31 190q92 230 499 230h128v147q0 15 11 25q11 11 26 11t26 -11l292 -292q11 -11 11 -26z" />
    <glyph glyph-name="uniF065" unicode="&#xf065;" horiz-adv-x="877" 
d="M431 274q0 -7 -5 -13l-190 -189l82 -83q11 -11 11 -26t-11 -25q-11 -11 -25 -11h-256q-15 0 -26 11t-11 25v256q0 15 11 26t26 11t25 -11l82 -82l190 189q6 6 13 6t13 -6l66 -64q5 -7 5 -14zM878 768v-256q0 -15 -11 -26t-26 -11t-26 11l-82 82l-189 -189q-6 -6 -14 -6
q-7 0 -13 6l-65 65q-6 6 -6 13t6 13l190 190l-83 82q-11 11 -10 26q0 15 10 26q11 11 26 11h256q15 0 26 -11t11 -26z" />
    <glyph glyph-name="uniF066" unicode="&#xf066;" horiz-adv-x="877" 
d="M439 329v-256q0 -15 -11 -26t-26 -10q-15 0 -25 10l-83 83l-190 -190q-6 -6 -13 -6t-13 6l-65 65q-6 6 -6 13t6 14l190 189l-82 82q-11 11 -11 26t11 26t25 11h256q15 0 26 -11t11 -26zM870 713q0 -7 -6 -13l-189 -190l82 -82q11 -11 11 -26t-11 -25q-11 -11 -26 -11
h-256q-15 0 -25 11q-11 11 -11 25v256q0 15 11 26t25 11q15 0 26 -11l83 -82l189 190q6 6 13 5q7 0 14 -5l64 -66q6 -6 6 -13z" />
    <glyph glyph-name="uniF067" unicode="&#xf067;" horiz-adv-x="803" 
d="M805 457v-110q0 -23 -17 -39q-16 -16 -38 -15h-238v-238q0 -23 -16 -39t-39 -16h-110q-23 0 -39 16t-15 39v238h-238q-23 0 -39 15q-16 16 -16 39v110q0 23 16 39t39 16h238v238q0 23 15 38q16 16 39 17h110q23 0 39 -17q16 -16 16 -38v-238h238q23 0 38 -16
q17 -16 17 -39z" />
    <glyph glyph-name="uniF068" unicode="&#xf068;" horiz-adv-x="803" 
d="M805 457v-110q0 -23 -17 -39q-16 -16 -38 -15h-695q-23 0 -39 15q-16 16 -16 39v110q0 23 16 39t39 16h695q23 0 38 -16q17 -16 17 -39z" />
    <glyph glyph-name="uniF069" unicode="&#xf069;" horiz-adv-x="950" 
d="M847 278q27 -15 34 -45q8 -30 -8 -55l-35 -63q-15 -27 -45 -34q-30 -8 -56 7l-152 87v-175q0 -30 -22 -51q-22 -22 -51 -22h-73q-30 0 -52 22t-21 51v175l-152 -87q-27 -15 -56 -7q-30 8 -44 34l-37 63q-15 27 -7 55q8 30 34 45l152 88l-152 88q-27 15 -34 44q-8 30 7 56
l37 62q15 27 44 34q30 8 56 -7l152 -87v175q0 30 21 52q22 22 52 22h73q30 0 51 -22q22 -22 22 -52v-175l152 87q27 15 56 7q30 -8 45 -34l35 -62q15 -27 8 -56q-8 -30 -34 -44l-152 -88z" />
    <glyph glyph-name="uniF06A" unicode="&#xf06a;" horiz-adv-x="877" 
d="M439 805q120 0 220 -60q100 -58 160 -159q58 -100 59 -220q0 -120 -59 -221q-58 -100 -160 -159q-100 -58 -220 -59q-120 0 -221 59q-100 58 -160 159q-58 100 -58 221q0 120 58 220t160 159q101 60 221 60zM512 92v109q0 8 -5 13t-12 5h-110q-7 0 -13 -5q-6 -6 -6 -13
v-109q0 -7 6 -13t13 -6h110q7 0 12 6q5 5 5 13zM511 289l10 354q0 7 -6 10q-6 4 -13 5h-126q-8 0 -14 -5q-6 -3 -6 -10l11 -354q0 -6 5 -10q6 -4 14 -5h106q8 0 13 5q5 4 6 10z" />
    <glyph glyph-name="uniF06B" unicode="&#xf06b;" horiz-adv-x="877" 
d="M530 102v410h-183v-410q0 -14 11 -21q10 -8 26 -8h110q15 0 26 8q10 7 10 21zM269 585h112l-72 92q-13 17 -40 18q-23 0 -39 -16t-15 -39q0 -23 15 -39q16 -16 39 -16zM663 640q0 23 -16 39t-39 16q-26 0 -40 -18l-71 -92h111q23 0 39 16t16 39zM878 494v-183
q0 -8 -6 -13q-6 -4 -16 -6q-9 -1 -17 -1t-21 1q-11 1 -13 1v-238q0 -23 -17 -39q-16 -16 -38 -16h-622q-23 0 -39 16t-16 39v238q-3 0 -14 -1t-19 -1t-18 1q-9 1 -16 6q-6 4 -6 13v183q0 7 5 13q5 5 13 5h251q-53 0 -90 38q-38 38 -38 90q0 53 38 90q38 38 90 38
q61 0 97 -44l73 -94l73 94q34 44 96 44q53 0 90 -38q38 -38 38 -90q0 -53 -38 -90q-38 -38 -90 -38h251q7 0 13 -5q6 -6 6 -13z" />
    <glyph glyph-name="uniF06C" unicode="&#xf06c;" 
d="M731 475q0 15 -10 26q-11 11 -26 11q-98 0 -182 -29q-83 -29 -148 -75q-65 -48 -135 -126q-11 -12 -11 -26q0 -15 11 -26t26 -11q13 0 26 11q15 13 42 41q27 27 38 37q78 71 154 102q75 30 179 29q15 0 26 11q10 10 10 25zM1024 589q0 -54 -11 -111q-27 -128 -106 -219
t-205 -153q-122 -61 -249 -61q-85 0 -164 27q-8 3 -50 23q-42 22 -55 22q-9 0 -22 -19q-13 -18 -26 -40q-12 -22 -31 -40q-17 -18 -33 -18q-17 0 -30 6q-12 6 -17 14q-6 7 -16 24l-3 6l-3 6t-2 5q-1 4 -1 9q0 20 17 42t39 36q22 15 39 32q17 16 18 28q0 2 -8 21t-9 26
q-5 29 -5 59q0 66 25 126t67 106q43 45 99 79q54 34 115 55q32 10 83 14t103 5q51 1 102 3q51 3 93 14q43 11 66 33l16 17l18 15l15 13l20 8l25 3q23 0 41 -27t27 -63q9 -38 14 -72q4 -32 4 -54z" />
    <glyph glyph-name="uniF06D" unicode="&#xf06d;" horiz-adv-x="803" 
d="M805 -91v-37q0 -7 -6 -13q-5 -5 -13 -5h-768q-7 0 -13 5q-5 5 -5 13v37q0 7 5 12t13 6h768q7 0 13 -6q6 -5 6 -12zM658 512q0 -45 -14 -82q-14 -38 -37 -64q-23 -27 -49 -51q-28 -24 -55 -44q-28 -20 -50 -42q-23 -20 -36 -46q-14 -26 -15 -55q0 -55 38 -128l-2 1l1 -1
q-51 24 -92 47q-40 24 -79 57t-64 70q-26 37 -42 86q-15 49 -16 106q0 46 15 83q14 38 36 63q23 27 50 50q28 24 55 45q28 20 49 41q23 20 37 46t14 56q0 53 -37 128h2h-1q51 -24 91 -48t80 -57q39 -33 64 -70q26 -37 42 -86q15 -49 15 -105z" />
    <glyph glyph-name="uniF06E" unicode="&#xf06e;" 
d="M951 329q-87 135 -218 201q35 -59 35 -128q0 -105 -75 -181q-75 -75 -181 -75q-105 0 -181 75q-75 75 -75 181q0 70 35 128q-131 -67 -218 -201q76 -117 191 -187t248 -69q134 0 248 69q115 70 191 187zM540 549q0 11 -9 19q-8 7 -19 7q-72 0 -123 -50q-51 -51 -51 -123
q0 -11 8 -19t20 -8q11 0 19 8t8 19q0 49 35 84t84 35q11 0 19 8q9 9 9 20zM1024 329q0 -19 -11 -39q-80 -131 -215 -211q-135 -79 -286 -79t-286 80t-215 210q-11 20 -11 39t11 40q80 131 215 210q135 80 286 79q151 0 286 -79q135 -80 215 -210q11 -21 11 -40z" />
    <glyph glyph-name="uniF070" unicode="&#xf070;" 
d="M317 115l44 81q-50 36 -77 91q-28 55 -28 115q0 70 35 128q-131 -67 -218 -201q96 -147 244 -214zM540 549q0 11 -9 19q-8 7 -19 7q-72 0 -123 -50q-51 -51 -51 -123q0 -11 8 -19t20 -8q11 0 19 8t8 19q0 49 35 84t84 35q11 0 19 8q9 9 9 20zM746 657v-5
q-60 -108 -180 -323l-180 -324l-29 -51q-6 -9 -15 -9q-7 0 -77 40q-9 6 -9 16q0 7 26 50q-82 37 -151 99q-69 61 -120 140q-11 17 -11 39t11 40q87 134 217 212t284 77q51 0 102 -10l32 57q6 9 16 8q3 0 10 -3t18 -10q10 -5 19 -10q8 -5 18 -10q9 -5 10 -7q9 -7 9 -16z
M768 402q0 -80 -45 -145q-45 -66 -120 -93l161 287q4 -26 4 -49zM1024 329q0 -20 -11 -39q-23 -37 -63 -83q-86 -98 -198 -153q-113 -54 -240 -54l42 76q121 10 224 78t173 175q-66 102 -161 168l35 64q54 -37 105 -87q50 -51 83 -105q11 -20 11 -40z" />
    <glyph glyph-name="uniF071" unicode="&#xf071;" 
d="M585 92v109q0 8 -5 13t-13 5h-110q-7 0 -13 -5q-5 -5 -5 -13v-109q0 -8 5 -13t13 -6h110q7 0 13 6q5 5 5 13zM584 306l10 262q0 7 -5 11q-7 6 -15 6h-124q-6 0 -15 -6q-6 -4 -5 -12l9 -261q0 -6 6 -10t14 -3h105q8 0 14 3q5 4 6 10zM575 840l440 -805q20 -36 -1 -72
q-9 -16 -27 -26q-16 -9 -36 -10h-878q-19 0 -36 10q-16 9 -27 26q-22 36 -1 72l440 805q9 17 26 27t37 11q20 0 37 -11q17 -10 26 -27z" />
    <glyph glyph-name="uniF072" unicode="&#xf072;" horiz-adv-x="803" 
d="M799 757q0 -50 -86 -135l-138 -138l82 -426l1 -3q0 -8 -5 -13l-37 -37q-5 -5 -13 -5q-12 0 -16 10l-157 329l-140 -140q39 -136 39 -144t-5 -13l-36 -37q-5 -5 -14 -5q-10 0 -16 9l-88 160l-161 89q-9 5 -9 15q0 8 5 14l37 37q5 5 13 5t144 -39l140 140l-329 157
q-10 4 -10 16q0 8 5 13l37 37q5 5 13 5q2 0 3 -1l426 -82l138 138q85 85 135 86q18 0 29 -13q13 -11 13 -29z" />
    <glyph glyph-name="uniF073" unicode="&#xf073;" horiz-adv-x="950" 
d="M73 -73h165v164h-165v-164zM274 -73h183v164h-183v-164zM73 128h165v183h-165v-183zM274 128h183v183h-183v-183zM73 347h165v165h-165v-165zM494 -73h183v164h-183v-164zM274 347h183v165h-183v-165zM713 -73h165v164h-165v-164zM494 128h183v183h-183v-183zM293 622
v164q0 7 -6 13q-5 5 -13 6h-36q-7 0 -13 -6q-5 -5 -6 -13v-164q0 -7 6 -13q5 -5 13 -6h36q7 0 13 6t6 13zM713 128h165v183h-165v-183zM494 347h183v165h-183v-165zM713 347h165v165h-165v-165zM731 622v164q0 7 -5 13q-5 5 -13 6h-36q-7 0 -13 -6q-5 -5 -6 -13v-164
q0 -7 6 -13q5 -5 13 -6h36q7 0 13 6q5 6 5 13zM951 658v-731q0 -30 -22 -52t-51 -21h-805q-30 0 -51 21q-22 22 -22 52v731q0 30 22 52t51 21h73v55q0 38 27 65t65 27h36q38 0 65 -27t27 -65v-55h219v55q0 38 27 65t65 27h36q38 0 64 -27q27 -27 28 -65v-55h73q30 0 51 -21
q22 -22 22 -52z" />
    <glyph glyph-name="uniF074" unicode="&#xf074;" 
d="M381 603q-34 -52 -79 -157q-12 26 -20 42q-8 15 -24 36q-14 20 -30 33q-14 11 -35 20q-22 8 -47 8h-128q-8 0 -13 5t-5 13v110q0 8 5 13t13 5h128q144 1 235 -128zM1024 146q0 -8 -5 -13l-183 -183q-5 -5 -13 -5q-7 0 -13 6q-5 5 -5 12v110h-49h-46h-42q-26 1 -40 3
q-15 2 -37 6t-36 10t-34 17q-18 9 -33 22t-31 31q-16 17 -32 40q34 53 78 155q12 -26 20 -41t24 -36q14 -20 28 -32q14 -11 36 -21q22 -8 47 -8h147v110q0 8 5 13t13 5q7 0 14 -5l182 -182q5 -6 5 -14zM1024 658q0 -8 -5 -13l-183 -183q-5 -5 -13 -5q-7 0 -13 6q-5 5 -5 12
v110h-147q-28 0 -50 -8q-23 -8 -39 -26q-17 -17 -29 -35t-26 -45q-18 -36 -44 -97q-16 -38 -29 -64q-11 -26 -30 -60t-37 -56q-17 -23 -42 -49q-25 -25 -51 -39q-27 -14 -62 -23q-34 -9 -73 -10h-128q-8 0 -13 5t-5 13v110q0 8 5 13t13 5h128q28 0 50 9q23 8 40 26
q17 17 28 35q12 18 26 44q18 36 45 98q16 38 29 64q11 26 30 59q19 34 36 57t43 47q25 25 51 40q27 14 61 24q34 9 73 9h147v110q0 8 5 13t13 5q7 0 14 -5l182 -182q5 -6 5 -14z" />
    <glyph glyph-name="uniF075" unicode="&#xf075;" 
d="M1024 366q0 -99 -69 -184q-69 -84 -186 -133q-118 -49 -257 -49q-40 0 -83 4q-113 -100 -263 -138q-28 -8 -65 -12q-9 -1 -17 5t-10 16v1q-2 2 0 7q1 4 1 5t2 6l4 6l4 4l4 5q4 4 17 20q13 15 21 22q6 6 17 22t19 29q7 13 15 34q8 20 16 44q-90 51 -142 125
q-52 75 -52 161q0 75 41 142q41 68 109 117q69 49 163 77q95 29 199 29q139 0 257 -48q118 -49 186 -133q69 -85 69 -184z" />
    <glyph glyph-name="uniF076" unicode="&#xf076;" horiz-adv-x="877" 
d="M878 402v-73q0 -115 -57 -207q-56 -92 -156 -144t-226 -51q-126 0 -226 51q-100 52 -157 144q-56 92 -56 207v73q0 15 11 26t26 11h219q15 0 26 -11t11 -26v-73q0 -30 13 -51q13 -22 31 -33q17 -11 40 -17q24 -6 37 -8q13 -1 25 -1t25 1t37 8q24 6 40 17q17 11 30 33
t14 51v73q0 15 11 26t26 11h219q15 0 26 -11t11 -26zM293 768v-219q0 -15 -11 -26t-26 -11h-219q-15 0 -26 11t-11 26v219q0 15 11 26t26 11h219q15 0 26 -11t11 -26zM878 768v-219q0 -15 -11 -26t-26 -11h-219q-15 0 -26 11t-11 26v219q0 15 11 26t26 11h219q15 0 26 -11
t11 -26z" />
    <glyph glyph-name="uniF077" unicode="&#xf077;" horiz-adv-x="950" 
d="M921 183q0 -31 -22 -52l-43 -43q-22 -22 -51 -21q-31 0 -52 21l-278 278l-277 -278q-20 -22 -52 -21q-31 0 -51 21l-43 43q-22 20 -21 52q0 31 21 51l372 373q22 22 51 21q30 0 52 -21l372 -373q22 -20 22 -51z" />
    <glyph glyph-name="uniF078" unicode="&#xf078;" horiz-adv-x="950" 
d="M921 475q0 -31 -22 -51l-372 -372q-22 -22 -52 -21q-31 0 -51 21l-372 372q-22 20 -21 51q0 31 21 52l42 43q23 22 52 22q31 0 52 -22l277 -277l278 277q22 22 52 22t51 -22l43 -43q22 -22 22 -52z" />
    <glyph glyph-name="uniF079" unicode="&#xf079;" horiz-adv-x="1096" 
d="M731 18q0 -7 -5 -13q-5 -5 -13 -5h-548q-4 0 -8 1q-3 1 -5 4t-4 4q-1 2 -2 7t0 7v8v6v91v238h-109q-15 0 -26 11t-11 25q0 13 8 24l183 219q11 12 28 12t29 -12l182 -219q8 -9 9 -24q0 -15 -11 -25q-11 -11 -26 -11h-109v-220h329q9 0 14 -6l91 -109q4 -7 4 -13z
M1097 256q0 -13 -8 -24l-184 -219q-11 -13 -27 -13t-28 13l-183 219q-8 9 -9 24q0 15 11 26t26 11h110v219h-330q-9 0 -14 7l-91 110q-4 5 -4 11q0 7 5 13q5 5 13 5h549q4 0 7 -1t5 -4t3 -5t2 -6q1 -5 1 -6v-8v-6v-92v-237h110q15 0 25 -11q11 -11 11 -26z" />
    <glyph glyph-name="uniF07A" unicode="&#xf07a;" horiz-adv-x="950" 
d="M366 0q0 -31 -22 -52q-22 -22 -51 -21q-31 0 -52 21q-22 22 -22 52q0 31 22 52q22 22 52 21q31 0 51 -21q22 -21 22 -52zM878 0q0 -31 -22 -52q-22 -22 -51 -21q-31 0 -52 21q-22 22 -22 52q0 31 22 52q22 22 52 21q31 0 51 -21q22 -21 22 -52zM951 622v-293
q0 -13 -9 -24q-9 -10 -23 -12l-597 -70l3 -12t3 -15t1 -13q0 -9 -14 -37h526q15 0 26 -11t11 -25q0 -15 -11 -26t-26 -11h-585q-15 0 -26 11t-11 26q0 8 6 22t18 34q10 19 11 22l-100 470h-117q-15 0 -26 11t-11 26t11 26t26 10h146q9 0 16 -3q7 -4 12 -9q4 -5 7 -14t4 -15
t3 -17l3 -15h686q15 0 26 -11q11 -10 11 -25z" />
    <glyph glyph-name="uniF07B" unicode="&#xf07b;" horiz-adv-x="950" 
d="M951 530v-402q0 -52 -38 -90t-90 -38h-695q-52 0 -90 38t-38 90v549q0 52 38 90t90 38h183q52 0 90 -38t38 -90v-19h384q52 0 90 -37q38 -39 38 -91z" />
    <glyph glyph-name="uniF07C" unicode="&#xf07c;" horiz-adv-x="1096" 
d="M1074 334q0 -17 -18 -38l-192 -226q-25 -29 -68 -50q-44 -20 -83 -20h-622q-19 0 -34 7t-15 25q0 17 17 38l193 226q25 29 69 49t81 21h622q19 0 35 -8q15 -7 15 -24zM878 530v-91h-476q-53 0 -112 -27q-58 -28 -94 -69l-193 -226l-2 -3q0 2 -1 7v7v549q0 52 38 90t90 38
h183q52 0 90 -38t38 -90v-19h311q52 0 90 -37q38 -39 38 -91z" />
    <glyph glyph-name="uniF07D" unicode="&#xf07d;" horiz-adv-x="438" 
d="M402 695q0 -15 -11 -26t-25 -11h-73v-585h73q15 0 25 -11q11 -11 11 -25q0 -15 -11 -26l-146 -146q-11 -11 -26 -11t-25 11l-147 146q-11 11 -10 26q0 15 10 25q11 11 26 11h73v585h-73q-15 0 -26 11t-10 26q0 15 10 26l147 146q11 11 25 11q15 0 26 -11l146 -146
q11 -11 11 -26z" />
    <glyph glyph-name="uniF07E" unicode="&#xf07e;" 
d="M1024 366q0 -15 -11 -26l-146 -146q-11 -11 -26 -11t-26 11t-10 25v74h-586v-74q0 -15 -10 -25q-11 -11 -26 -11t-26 11l-146 146q-11 11 -11 26t11 25l146 147q11 11 26 11t26 -11t10 -26v-73h586v73q0 15 10 26q11 11 26 11t26 -11l146 -147q11 -10 11 -25z" />
    <glyph glyph-name="uniF080" unicode="&#xf080;" horiz-adv-x="1096" 
d="M293 293v-220h-147v220h147zM512 585v-512h-146v512h146zM731 439v-366h-146v366h146zM951 658v-585h-146v585h146zM1024 18v695q0 7 -5 13q-5 5 -13 5h-915q-7 0 -12 -5t-6 -13v-695q0 -7 6 -13q5 -5 12 -5h915q7 0 13 5q5 6 5 13zM1097 713v-695q0 -38 -27 -64
q-27 -27 -64 -27h-915q-38 0 -64 27q-27 27 -27 64v695q0 38 27 64q27 27 64 28h915q38 0 64 -28q27 -26 27 -64z" />
    <glyph glyph-name="uniF081" unicode="&#xf081;" horiz-adv-x="877" 
d="M731 548q0 7 -5 12t-13 5q-3 0 -8 -2q11 19 11 32q0 7 -5 12t-14 6q-4 0 -9 -3q-34 -19 -55 -24q-37 36 -88 36q-56 0 -94 -41t-37 -98v-7q-61 8 -108 37q-46 29 -89 80q-6 7 -16 6q-15 0 -23 -29t-9 -49q0 -36 16 -66q-7 -1 -12 -8q-5 -5 -4 -12q0 -63 46 -106
q-7 -4 -7 -15q0 -3 1 -5q8 -29 29 -52q20 -24 48 -34q-44 -25 -95 -24h-13q-9 1 -13 1q-7 0 -13 -5q-5 -5 -6 -14q0 -9 9 -14q36 -27 85 -42q50 -15 97 -15q75 0 142 33q95 45 146 132q51 88 51 195v6q15 12 35 37q20 24 20 35zM878 640v-549q0 -68 -49 -116
q-48 -48 -116 -48h-548q-68 0 -117 48q-48 48 -48 116v549q0 68 48 117q48 48 117 48h548q68 0 116 -48q49 -49 49 -117z" />
    <glyph glyph-name="uniF082" unicode="&#xf082;" horiz-adv-x="877" 
d="M713 805q68 0 116 -48t49 -117v-549q0 -68 -49 -116q-48 -48 -116 -48h-200h-1v384h101q17 0 19 13l6 94q1 8 -4 14q-6 7 -14 7h-108v41q0 26 6 33t32 7q33 0 66 -7q7 -2 16 2q6 4 7 13l13 95q1 7 -3 13t-11 7q-53 15 -113 15q-178 0 -178 -171v-48h-54q-7 0 -13 -6
t-6 -14v-98q0 -4 4 -8q3 -2 6 -2h9h54v-384h6h-188q-68 0 -117 48q-48 48 -48 116v549q0 68 48 117q48 48 117 48h548z" />
    <glyph glyph-name="uniF083" unicode="&#xf083;" 
d="M530 402q0 8 -5 14q-5 5 -13 5q-38 0 -65 -28q-27 -27 -26 -64q0 -8 5 -13t13 -5t13 5t5 13q0 23 16 39t39 16q8 0 13 5t5 13zM658 328q0 -60 -43 -104q-43 -43 -103 -43t-103 43t-43 104q0 60 43 103t103 43t103 -43t43 -103zM73 0h878v73h-878v-73zM731 328
q0 91 -63 155q-65 65 -156 65t-156 -65t-63 -155q0 -91 63 -155q65 -65 156 -64q91 0 156 64q63 64 63 155zM146 695h220v73h-220v-73zM73 585h878v67v79h-473l-37 -73h-368v-73zM1024 731v-731q0 -31 -22 -52q-22 -22 -51 -21h-878q-31 0 -51 21q-22 22 -22 52v731
q0 31 22 52q22 22 51 22h878q31 0 51 -22q22 -21 22 -52z" />
    <glyph glyph-name="uniF084" unicode="&#xf084;" 
d="M475 585q0 46 -32 78t-77 32q-46 0 -78 -32t-32 -78q0 -24 11 -47q-24 11 -48 11q-46 0 -78 -33q-32 -32 -31 -77q0 -46 31 -78q32 -32 78 -32t78 32t32 78q0 24 -11 47q24 -11 48 -11q46 0 77 33q32 31 32 77zM962 183q0 -9 -28 -38q-28 -28 -38 -28q-5 0 -16 9t-21 19
q-9 9 -22 23q-12 13 -14 15l-55 -55l126 -126q16 -16 15 -39q0 -24 -21 -46q-23 -23 -47 -22q-23 0 -39 16l-383 383q-100 -75 -209 -75q-93 0 -152 59q-58 58 -58 152q0 91 54 178t142 143q87 54 179 54q93 0 151 -59q58 -58 59 -152q0 -108 -75 -208l203 -203l55 55
q-2 2 -15 14t-23 21q-9 9 -18 22q-9 11 -10 16q0 9 28 37t38 29q7 0 13 -6q3 -3 27 -26q23 -22 46 -45q24 -24 50 -49q26 -26 41 -45q17 -19 17 -23z" />
    <glyph glyph-name="uniF085" unicode="&#xf085;" horiz-adv-x="1096" 
d="M512 366q0 60 -43 103t-103 43t-104 -43q-43 -43 -43 -103t43 -104q43 -43 104 -43q60 0 103 43q43 44 43 104zM951 73q0 30 -22 52t-51 21q-30 0 -52 -21q-22 -22 -21 -52q0 -31 21 -51q22 -22 52 -22q31 0 52 22q21 20 21 51zM951 658q0 30 -22 52t-51 21
q-30 0 -52 -21q-22 -22 -21 -52q0 -31 21 -52q22 -22 52 -21q31 0 52 21t21 52zM731 418v-106q0 -6 -4 -11t-9 -6l-88 -13q-6 -20 -19 -44q19 -28 52 -66q4 -6 4 -11q0 -7 -4 -11q-13 -17 -48 -52q-34 -34 -45 -33q-6 0 -11 4l-65 51q-22 -11 -44 -18q-6 -61 -14 -89
q-4 -13 -17 -13h-107q-6 0 -11 4t-5 10l-13 87q-19 6 -43 19l-68 -51q-4 -4 -11 -4q-6 0 -13 5q-82 76 -81 91q0 5 4 10q6 8 23 31t27 35q-13 26 -21 47l-87 13q-6 1 -9 5q-4 5 -4 11v107q0 6 4 10q4 5 9 6l88 15q6 20 19 43q-19 28 -51 65q-4 6 -4 11q0 7 4 13q12 17 47 50
q34 34 45 34q6 0 12 -4l66 -52q19 10 44 19q6 61 13 88q4 13 16 13h107q6 0 11 -4t6 -10l14 -87q19 -6 42 -18l67 51q4 4 11 4q6 0 13 -4q82 -76 83 -93q0 -5 -4 -10q-7 -9 -25 -31q-17 -22 -26 -34q13 -28 20 -46l87 -14q6 -1 9 -6q4 -5 4 -11zM1097 113v-80q0 -9 -85 -18
q-7 -15 -17 -29q29 -65 29 -79q0 -2 -2 -4q-70 -41 -71 -40q-4 0 -26 26q-22 27 -30 39q-11 -1 -17 -1t-18 1q-8 -12 -30 -39t-25 -26q-1 0 -71 40q-2 2 -3 4q0 14 30 79q-10 14 -18 29q-85 8 -85 18v80q0 9 85 18q7 16 18 30q-29 65 -30 79q0 2 3 4q2 1 20 11q17 10 33 19
t18 10q4 0 25 -27q22 -27 30 -39q11 1 18 1q6 0 17 -1q29 41 52 65l4 1q2 0 71 -40q2 -2 2 -4q0 -14 -29 -79q9 -13 17 -30q85 -9 85 -18zM1097 698v-80q0 -9 -85 -18q-7 -15 -17 -30q29 -65 29 -78q0 -2 -2 -4q-70 -41 -71 -41q-4 0 -26 27t-30 39q-11 -1 -17 -1t-18 1
q-8 -12 -30 -39t-25 -27q-1 0 -71 41q-2 2 -3 4q0 14 30 78q-10 14 -18 30q-85 8 -85 18v80q0 9 85 18q7 16 18 29q-29 65 -30 79q0 2 3 4q2 1 20 12q17 10 33 19t18 9q4 0 25 -26q22 -27 30 -38q11 1 18 1q6 0 17 -1q29 41 52 63l4 1q2 0 71 -40q2 -2 2 -4q0 -14 -29 -79
q9 -13 17 -29q85 -9 85 -18z" />
    <glyph glyph-name="uniF086" unicode="&#xf086;" 
d="M805 439q0 -80 -54 -147q-53 -68 -147 -107q-93 -39 -202 -39q-49 0 -100 10q-71 -50 -159 -74q-20 -5 -49 -9h-2q-6 0 -12 5q-5 4 -6 12q-1 2 -1 3q0 2 1 4q0 2 1 3l1 3l2 3l2 4l3 2l2 3q3 3 13 14t15 17q4 6 13 17q8 10 14 21t12 26q-71 41 -111 101q-41 60 -41 128
q0 80 53 147q53 68 148 106q93 39 201 39q110 0 202 -39q93 -39 147 -106t54 -147zM1024 293q0 -69 -41 -129q-41 -59 -111 -101q6 -13 12 -25q6 -11 14 -22q8 -10 13 -16q4 -6 15 -17q10 -11 13 -15l2 -2l3 -3t2 -3t2 -3l1 -3l2 -3v-3l-1 -4q-2 -8 -7 -14q-6 -4 -13 -3
q-29 5 -49 10q-88 23 -159 72q-51 -9 -100 -9q-155 0 -270 76q33 -2 50 -3q92 0 177 26t151 74q72 52 110 121t38 145q0 44 -14 86q74 -41 117 -101t43 -131z" />
    <glyph glyph-name="uniF087" unicode="&#xf087;" horiz-adv-x="877" 
d="M146 110q0 15 -11 25q-11 11 -25 11q-15 0 -26 -11t-11 -25q0 -15 11 -26t26 -11t25 11q11 11 11 26zM805 439q0 29 -23 51t-51 22h-201q0 33 28 91t27 92q0 56 -18 82q-18 27 -73 28q-15 -15 -22 -49t-17 -72t-34 -62q-12 -13 -44 -53q-2 -3 -13 -16q-11 -14 -19 -24
q-7 -9 -19 -24t-23 -26q-10 -10 -22 -19q-11 -10 -23 -16q-11 -5 -20 -5h-19v-366h19q7 0 18 -1q10 -2 18 -4t22 -7q13 -4 20 -6l21 -7q13 -5 16 -6q121 -42 196 -42h68q110 0 110 95q0 15 -2 32q17 9 27 31q10 20 10 42t-10 39q31 29 29 68q0 14 -5 32q-6 17 -14 27
q18 1 31 26q12 27 12 47zM878 439q0 -51 -28 -93q5 -18 5 -39q0 -44 -21 -83q2 -12 1 -24q0 -57 -34 -102q1 -80 -49 -126q-49 -46 -129 -45h-21h-53q-55 0 -109 13q-53 13 -124 37q-67 23 -78 23h-165q-31 0 -51 22q-22 22 -22 51v366q0 31 22 51q22 22 51 22h156
q20 13 79 88q33 43 61 74q13 14 20 49q6 35 18 72q11 38 35 61q23 22 52 22q48 0 86 -19q38 -18 58 -58t20 -106q0 -53 -27 -110h100q59 0 104 -43q43 -45 43 -103z" />
    <glyph glyph-name="uniF088" unicode="&#xf088;" horiz-adv-x="877" 
d="M146 622q0 15 -11 25q-11 11 -25 11q-15 0 -26 -11t-11 -25q0 -15 11 -26t26 -11t25 11q11 11 11 26zM805 293q0 20 -12 46q-12 27 -31 27q8 9 14 27q6 17 5 32q0 40 -29 68q10 18 10 39q0 22 -10 42t-27 30q3 17 2 32q0 48 -28 72t-77 23h-73q-75 0 -196 -41
q-3 -1 -16 -6t-21 -7q-6 -2 -20 -7q-13 -4 -22 -6q-8 -2 -18 -4t-18 -2h-19v-365h19q9 0 20 -5t23 -16l22 -20q10 -10 23 -26q12 -15 19 -23q7 -9 19 -24q11 -14 13 -17q32 -39 44 -52q24 -25 34 -63t17 -72t22 -48q55 0 73 27t18 83q0 34 -27 91q-28 58 -28 91h201
q29 0 51 23q23 22 23 51zM878 292q0 -58 -43 -103q-43 -43 -104 -43h-100q28 -56 27 -109q0 -68 -20 -107q-20 -40 -58 -58t-86 -18q-29 0 -52 21q-19 18 -30 47q-11 28 -15 51q-3 24 -10 49t-18 36q-28 29 -61 73q-57 75 -79 88h-156q-31 0 -51 22q-22 22 -22 52v365
q0 31 22 52q22 22 51 21h165q12 0 78 24q73 26 128 37q54 12 114 13h65q80 0 129 -45t49 -124v-3q34 -44 34 -102q0 -12 -1 -24q22 -38 21 -82q0 -20 -5 -40q28 -42 28 -93z" />
    <glyph glyph-name="uniF089" unicode="&#xf089;" horiz-adv-x="512" 
d="M475 859v-765l-256 -135q-12 -7 -23 -6q-12 0 -18 8t-6 21q0 3 1 11l49 286l-208 201q-14 15 -14 28q0 22 32 27l286 40l129 261q11 23 28 23z" />
    <glyph glyph-name="uniF08A" unicode="&#xf08a;" 
d="M951 538q0 46 -12 80q-12 36 -32 57q-19 20 -47 35q-28 13 -53 17q-27 4 -56 4q-30 0 -64 -14t-63 -37q-29 -22 -50 -41q-20 -19 -34 -35q-10 -12 -28 -12q-17 0 -28 12q-13 16 -34 35q-20 19 -50 41q-29 22 -63 37q-34 14 -64 14t-56 -4q-27 -4 -53 -17q-28 -13 -47 -35
q-19 -20 -32 -57q-12 -36 -12 -80q0 -96 107 -204l332 -320l332 320q107 108 107 204zM1024 538q0 -126 -131 -258l-355 -342q-10 -10 -26 -11q-15 0 -26 11l-356 344q-6 4 -15 14q-10 10 -32 38t-39 55q-17 29 -31 70q-13 41 -13 79q0 126 73 196q73 71 200 71q36 0 72 -12
q37 -12 69 -34q32 -20 55 -39q23 -18 43 -39q20 20 43 39q23 18 55 39q32 20 69 34q37 12 72 12q128 0 200 -71q73 -70 73 -196z" />
    <glyph glyph-name="uniF08B" unicode="&#xf08b;" horiz-adv-x="950" 
d="M366 55q0 -2 1 -12q1 -9 0 -14q0 -6 -2 -14q-1 -7 -6 -11q-4 -4 -12 -4h-182q-68 0 -117 48q-48 48 -48 117v402q0 68 48 116t117 48h182q7 0 13 -5q5 -5 6 -13q0 -2 1 -12q1 -9 0 -15q0 -6 -2 -13q-1 -7 -6 -11q-4 -4 -12 -4h-182q-38 0 -65 -26q-27 -27 -27 -65v-402
q0 -38 27 -65t65 -27h164h7h7h7l6 -2l4 -3l5 -6zM896 366q0 -15 -11 -26l-311 -311q-11 -11 -25 -11q-15 0 -26 11t-11 26v164h-256q-15 0 -26 11t-11 26v219q0 15 11 26t26 11h256v165q0 15 11 25q11 11 26 11t25 -11l311 -311q11 -10 11 -25z" />
    <glyph glyph-name="uniF08C" unicode="&#xf08c;" horiz-adv-x="877" 
d="M293 91v366q0 7 -6 13q-5 5 -13 5h-109q-7 0 -13 -5q-5 -5 -6 -13v-366q0 -7 6 -12q5 -5 13 -6h109q7 0 13 6q6 5 6 12zM288 588q0 29 -21 49q-20 20 -51 21q-29 0 -49 -21q-20 -20 -21 -49q0 -29 21 -50q20 -20 49 -22q30 0 51 22q21 21 21 50zM731 91v249q0 73 -42 110
q-42 38 -116 37q-51 0 -90 -25q-7 -4 -8 -7q0 20 -19 20h-101q-8 0 -17 -4t-9 -11v-369q0 -7 9 -12t17 -6h104q7 0 12 6q5 5 4 12v200q0 80 66 80q28 0 36 -13t8 -42v-225q0 -7 7 -12t15 -6h106q7 0 13 6q5 5 5 12zM878 640v-549q0 -68 -49 -116q-48 -48 -116 -48h-548
q-68 0 -117 48q-48 48 -48 116v549q0 68 48 117q48 48 117 48h548q68 0 116 -48q49 -49 49 -117z" />
    <glyph glyph-name="uniF08D" unicode="&#xf08d;" horiz-adv-x="657" 
d="M274 384v256q0 8 -5 13t-13 5t-13 -5t-5 -13v-256q0 -8 5 -13t13 -5t13 5t5 13zM658 183q0 -15 -11 -26t-25 -11h-245l-30 -276q-1 -7 -6 -11q-5 -5 -11 -5h-1q-15 0 -18 15l-44 277h-230q-15 0 -26 11t-11 26q0 71 45 126q45 56 101 57v292q-30 0 -51 22q-22 22 -22 51
q0 30 22 52t51 22h366q30 0 51 -22q22 -22 22 -52t-22 -51q-22 -22 -51 -22v-292q56 0 101 -57q45 -55 45 -126z" />
    <glyph glyph-name="uniF08E" unicode="&#xf08e;" 
d="M805 347v-182q0 -68 -48 -117q-48 -48 -117 -48h-475q-68 0 -117 48q-48 48 -48 117v475q0 68 48 117q48 48 117 48h402q8 0 13 -5t5 -14v-36q0 -8 -5 -14q-5 -5 -13 -5h-402q-38 0 -65 -26q-27 -27 -27 -65v-475q0 -38 27 -65t65 -27h475q38 0 65 27t26 65v182q0 8 5 13
t14 6h36q8 0 14 -6q5 -5 5 -13zM1024 841v-292q0 -15 -11 -26t-26 -11t-25 11l-101 101l-373 -373q-6 -6 -13 -6t-13 6l-65 65q-6 6 -6 13t6 13l373 373l-101 100q-11 11 -11 26t11 26t26 11h292q15 0 26 -11t11 -26z" />
    <glyph glyph-name="uniF090" unicode="&#xf090;" horiz-adv-x="877" 
d="M677 366q0 -15 -11 -26l-311 -311q-11 -11 -26 -11t-26 11t-10 26v164h-256q-15 0 -26 11t-11 26v219q0 15 11 26t26 11h256v165q0 15 10 25q11 11 26 11t26 -11l311 -311q11 -10 11 -25zM878 567v-402q0 -68 -49 -117q-48 -48 -116 -48h-183q-7 0 -13 5q-5 5 -5 13
q0 2 -1 12q-1 9 0 15q0 6 2 13q1 7 5 12q4 4 12 3h183q38 0 64 27q27 27 28 65v402q0 38 -28 65q-27 27 -64 26h-164h-6h-8h-7l-7 2l-4 4l-4 5l-1 8q0 2 -1 11t0 15q0 6 2 14q1 7 5 11t12 3h183q68 0 116 -48q49 -48 49 -116z" />
    <glyph glyph-name="uniF091" unicode="&#xf091;" horiz-adv-x="950" 
d="M262 373q-42 92 -43 212h-146v-55q0 -45 54 -93t135 -64zM878 530v55h-147q0 -120 -42 -212q81 16 134 64q55 48 55 93zM951 603v-73q0 -41 -24 -81q-24 -41 -64 -74t-99 -57q-58 -23 -123 -25q-24 -31 -54 -54q-22 -19 -30 -41t-8 -52q0 -31 17 -52q17 -22 56 -21
q43 0 76 -26q34 -26 33 -65v-37q0 -8 -5 -13t-13 -5h-475q-8 0 -14 5q-5 5 -5 13v37q0 40 34 65q34 26 76 26q38 0 56 21q17 22 17 52q0 29 -8 52q-8 22 -30 41q-31 24 -55 54q-65 3 -123 25q-58 23 -98 57q-40 33 -64 74t-24 81v73q0 23 16 39t39 16h164v55q0 38 28 64
q27 27 64 28h329q38 0 65 -28q27 -27 26 -64v-55h165q23 0 39 -16t16 -39z" />
    <glyph glyph-name="uniF092" unicode="&#xf092;" horiz-adv-x="877" 
d="M333 130q0 -38 -53 -38q-61 0 -62 37q0 37 56 36q59 0 59 -35zM312 396q0 -48 -43 -48q-44 0 -44 48q0 51 44 51q20 0 32 -15q11 -14 11 -36zM407 439v72q-45 -16 -77 -16q-29 16 -63 16q-49 0 -83 -33t-33 -82q0 -29 16 -58q16 -30 42 -38v-2q-22 -9 -22 -48
q0 -30 24 -44v-2q-65 -22 -65 -79q0 -34 21 -56q20 -22 48 -29t61 -8q128 0 128 107q0 28 -15 44q-14 17 -36 25q-22 7 -42 12q-22 5 -36 13t-14 23q0 26 28 30q44 8 69 40q26 32 27 76q0 13 -6 30q17 4 28 7zM440 200h79q-1 11 -1 52v212q0 34 1 44h-79q2 -15 2 -46v-215
q0 -32 -2 -47zM731 209v70q-17 -12 -39 -13q-31 0 -29 47v128h29h16q10 -1 14 -1v68h-59q0 47 1 57h-80q2 -13 3 -30v-27h-35v-68q20 2 21 2h7q4 0 7 -1v-1h-2v-124q0 -22 2 -36q1 -15 6 -32q5 -16 14 -28q9 -11 25 -17q16 -7 38 -7q35 0 61 13zM528 612q0 20 -14 37
q-13 15 -34 16q-20 0 -35 -16q-14 -15 -14 -37q0 -20 14 -35t35 -15q20 0 34 16q14 14 14 34zM878 640v-549q0 -68 -49 -116q-48 -48 -116 -48h-548q-68 0 -117 48q-48 48 -48 116v549q0 68 48 117q48 48 117 48h548q68 0 116 -48q49 -49 49 -117z" />
    <glyph glyph-name="uniF093" unicode="&#xf093;" horiz-adv-x="950" 
d="M951 274v-329q0 -7 -6 -13q-5 -5 -12 -5h-915q-7 0 -13 5q-5 5 -5 13v329q0 7 5 13q5 5 13 6h110q7 0 13 -6q5 -5 5 -13v-201h659v201q0 7 5 13q5 5 13 6h110q7 0 12 -6q6 -6 6 -13zM768 475q0 -15 -11 -25q-11 -11 -26 -11h-146v-256q0 -15 -11 -26t-25 -11h-147
q-15 0 -25 11q-11 11 -11 26v256h-147q-15 0 -25 11q-11 11 -11 25q0 15 11 26l256 256q11 11 25 11q15 0 26 -11l256 -256q11 -11 11 -26z" />
    <glyph glyph-name="uniF094" unicode="&#xf094;" horiz-adv-x="877" 
d="M804 406q0 26 -4 65q-4 40 -10 54q-7 17 -10 26q-3 8 -5 20q-2 13 -3 28q0 13 3 40q3 26 3 38q0 22 -6 32q-2 1 -7 1q-11 0 -33 -3q-23 -2 -34 -2q-34 0 -100 13q-67 13 -100 13q-25 0 -55 -6t-48 -13q-19 -7 -51 -20q-78 -31 -116 -59q-55 -42 -91 -108
q-36 -67 -50 -135q-14 -69 -14 -142q0 -23 7 -69t7 -68q0 -13 -6 -38t-6 -38q0 -12 7 -21q7 -8 19 -8q13 0 41 6t42 6q33 0 98 -9t96 -8q103 0 163 21q74 26 134 87t95 140q34 79 34 157zM878 407q0 -94 -40 -187t-113 -165q-72 -72 -161 -103q-71 -26 -186 -25q-33 0 -96 8
q-65 8 -98 9q-13 0 -41 -9q-28 -8 -42 -8q-42 0 -70 32q-29 32 -29 73q0 13 6 39t6 39q0 23 -7 68q-7 46 -7 70q0 63 10 124q10 60 31 120q20 58 58 110q37 52 85 89q45 34 133 69q111 45 181 45q34 0 100 -14q66 -13 99 -14q11 0 33 3t33 3q46 0 67 -29q22 -29 21 -77
q0 -13 -2 -39q-3 -26 -3 -39v-10q1 -5 2 -9q1 -5 2 -9q1 -3 4 -9t4 -9q9 -23 14 -69q6 -44 6 -77z" />
    <glyph glyph-name="uniF095" unicode="&#xf095;" horiz-adv-x="803" 
d="M805 169q0 -15 -6 -40t-13 -39q-12 -29 -69 -61q-53 -29 -106 -29q-15 0 -30 2q-14 2 -33 7q-18 5 -27 8t-32 12q-23 8 -28 11q-56 20 -100 47q-73 45 -151 123t-123 151q-28 44 -47 100q-2 5 -11 28q-8 23 -12 32q-3 9 -8 27t-7 33q-2 14 -2 30q0 52 29 106q32 57 61 69
q14 6 39 13q25 6 40 6q8 0 12 -2q10 -3 30 -43q6 -11 17 -32q11 -20 21 -36q9 -16 17 -30q2 -2 10 -15q8 -12 13 -20q4 -8 4 -16q0 -11 -17 -28q-16 -17 -35 -32q-19 -14 -35 -31q-16 -16 -17 -25q1 -5 4 -14q3 -8 4 -11q2 -4 8 -14q6 -9 6 -11q43 -78 100 -134
q56 -56 134 -100q1 -1 11 -6q9 -6 14 -8q4 -2 11 -4q8 -3 14 -4q10 0 25 17q16 16 31 35q14 19 32 35q17 16 28 17q8 0 16 -4t20 -13l15 -10q14 -8 30 -17t36 -21q20 -11 32 -17q40 -20 43 -30q2 -4 2 -12z" />
    <glyph glyph-name="uniF096" unicode="&#xf096;" horiz-adv-x="950" 
d="M640 731h-475q-38 0 -65 -26q-27 -27 -27 -65v-475q0 -38 27 -65t65 -27h475q38 0 65 27t26 65v475q0 38 -26 65q-27 26 -65 26zM805 640v-475q0 -68 -48 -117q-48 -48 -117 -48h-475q-68 0 -117 48q-48 48 -48 117v475q0 68 48 117q48 48 117 48h475q68 0 117 -48
q48 -49 48 -117z" />
    <glyph glyph-name="uniF097" unicode="&#xf097;" horiz-adv-x="731" 
d="M658 731h-585v-709l241 232l52 48l51 -48l241 -232v709zM666 805q13 0 24 -5q18 -7 30 -24q11 -16 11 -36v-736q0 -19 -11 -36q-11 -16 -30 -23q-11 -4 -24 -4q-28 0 -49 18l-251 242l-252 -242q-20 -18 -47 -19q-13 0 -26 5q-18 7 -30 23q-11 16 -11 36v736q0 19 11 36
q11 16 30 24q12 5 26 5h599z" />
    <glyph glyph-name="uniF098" unicode="&#xf098;" horiz-adv-x="877" 
d="M731 196q0 6 -1 9q-2 4 -21 17q-20 12 -52 28l-29 17q-3 2 -12 7q-8 6 -14 9t-12 3q-10 0 -27 -19q-16 -18 -33 -38q-16 -18 -24 -18q-4 0 -9 2t-10 3l-9 6t-8 5q-56 32 -97 72q-41 41 -73 97q-1 2 -5 8t-5 11q-2 3 -4 8t-2 9q0 7 12 20q11 11 26 22q14 10 25 23
q11 12 11 20q0 6 -2 12q-3 6 -9 15q-6 8 -7 10q-2 3 -8 16q-7 13 -15 27q-7 13 -15 27t-14 23t-9 10t-10 1q-28 0 -58 -12q-27 -12 -45 -54q-19 -42 -20 -75q0 -9 1 -19t4 -18q1 -7 5 -18t6 -18q2 -5 7 -18t6 -17q34 -94 124 -184q89 -89 182 -124l18 -6q13 -5 19 -7
q5 -2 17 -5q11 -4 18 -5t17 -3l20 -2q33 0 75 19t54 46q12 30 12 58zM878 640v-549q0 -68 -49 -116q-48 -48 -116 -48h-548q-68 0 -117 48q-48 48 -48 116v549q0 68 48 117q48 48 117 48h548q68 0 116 -48q49 -49 49 -117z" />
    <glyph glyph-name="uniF099" unicode="&#xf099;" horiz-adv-x="1096" 
d="M1071 687q0 -6 -2 -10q-37 -59 -102 -109v-19q2 -130 -58 -261q-77 -170 -227 -265q-151 -95 -338 -96q-152 0 -286 70q-37 18 -50 29q-8 7 -8 15q0 7 5 12t13 5t25 -1t27 -1q117 0 214 61q-58 13 -104 54q-45 41 -63 99q-1 4 -1 6q0 7 5 13q5 5 12 5q3 0 8 -1t7 -1
q-51 32 -81 84q-31 52 -30 112q0 8 6 15q6 6 15 6q6 0 21 -7q14 -6 17 -7q-52 62 -53 146q0 29 9 61q8 33 23 55q6 9 14 9q9 0 15 -7q43 -48 64 -66q71 -63 158 -101t180 -46q-2 12 -2 27q0 95 67 164q68 68 164 68q93 0 161 -66q54 11 120 47q4 3 9 4q7 0 12 -7q5 -5 5 -12
q0 -13 -15 -42q-16 -28 -30 -43q4 1 18 6q13 5 24 8q11 4 14 6q7 0 13 -7q5 -5 5 -12z" />
    <glyph glyph-name="uniF09A" unicode="&#xf09a;" horiz-adv-x="438" 
d="M319 643q-28 0 -34 -9q-7 -9 -7 -38v-50h123q9 0 16 -7q6 -7 5 -17l-7 -114q-1 -8 -7 -15q-6 -6 -16 -6h-114v-438q0 -9 -7 -16q-6 -6 -15 -6h-143q-9 0 -16 6q-6 6 -6 16v438h-69q-9 0 -16 7q-6 6 -6 16v114q0 9 6 16q6 6 16 6h69v58q0 101 50 151q50 49 153 50
q69 0 129 -18q8 -2 12 -9t4 -14l-15 -112q-1 -9 -9 -15q-8 -5 -18 -3q-44 9 -78 9z" />
    <glyph glyph-name="uniF09B" unicode="&#xf09b;" horiz-adv-x="877" 
d="M805 366q0 75 -30 142q-29 68 -78 117t-116 77q-68 29 -142 29q-75 0 -142 -29q-68 -29 -117 -77q-49 -49 -78 -117t-29 -142q0 -120 71 -216q71 -97 185 -133v97q-31 -4 -39 -4q-62 0 -87 57q-8 22 -22 36l-11 11q-9 7 -16 13t-8 10q0 7 16 7t29 -8t22 -21q9 -11 18 -24
q9 -12 24 -20q14 -8 32 -8q24 0 46 8q9 33 36 51q-95 9 -141 47q-46 39 -45 128q0 68 41 114q-8 24 -8 48q0 33 16 63q33 0 58 -12q26 -11 57 -35q43 10 97 11q46 0 87 -9q33 23 58 33q25 11 57 12q15 -29 16 -63q0 -25 -9 -48q42 -47 42 -114q0 -90 -46 -128
q-46 -39 -140 -48q40 -27 40 -75v-129q114 36 184 133q72 96 72 216zM878 366q0 -120 -59 -221q-58 -100 -160 -159q-100 -58 -220 -59q-120 0 -221 59q-100 58 -160 159q-58 100 -58 221q0 120 58 220t160 159q100 58 221 60q120 0 220 -60q100 -58 160 -159
q59 -100 59 -220z" />
    <glyph glyph-name="uniF09C" unicode="&#xf09c;" horiz-adv-x="950" 
d="M402 91q0 3 -9 33q-8 29 -19 66l-12 37q18 9 29 27q11 17 11 39q0 31 -21 51q-22 22 -52 22q-31 0 -51 -22q-22 -22 -22 -51q0 -20 11 -38q11 -17 29 -28q0 -1 -11 -38t-21 -65q-8 -29 -8 -33q0 -7 5 -12t13 -6h110q7 0 13 6q5 5 5 12zM951 549v-147q0 -15 -11 -25
q-11 -11 -26 -11h-36q-15 0 -26 11t-11 25v147q0 60 -42 103q-43 43 -104 43q-60 0 -103 -43t-43 -103v-110h54q23 0 39 -16t16 -39v-329q0 -23 -16 -39t-39 -16h-548q-23 0 -39 16t-16 39v329q0 23 16 39t39 16h384v110q0 105 75 180t181 76q105 0 181 -76q75 -75 75 -180z
" />
    <glyph glyph-name="uniF09D" unicode="&#xf09d;" horiz-adv-x="1096" 
d="M1006 805q38 0 64 -28q27 -27 27 -64v-695q0 -38 -27 -64q-27 -27 -64 -27h-915q-38 0 -64 27q-27 27 -27 64v695q0 38 27 64q27 27 64 28h915zM91 731q-7 0 -12 -5t-6 -13v-128h951v128q0 7 -5 13q-5 5 -13 5h-915zM1006 0q7 0 13 5q5 5 5 13v348h-951v-348q0 -7 6 -13
q5 -5 12 -5h915zM146 73v73h147v-73h-147zM366 73v73h219v-73h-219z" />
    <glyph glyph-name="uniF09E" unicode="&#xf09e;" horiz-adv-x="803" 
d="M219 110q0 -46 -32 -78t-77 -32q-46 0 -78 32t-32 78t32 77q32 32 78 32t77 -32q32 -31 32 -77zM512 40q1 -16 -9 -28t-28 -12h-77q-14 0 -24 9t-12 24q-12 131 -105 224t-224 105q-14 1 -24 12q-9 10 -9 24v77q0 16 12 28q9 9 25 9h3q91 -7 174 -46t148 -104
q66 -65 104 -148q39 -83 46 -174zM805 38q1 -15 -10 -27q-10 -11 -27 -11h-82q-15 0 -26 10q-10 10 -11 24q-7 123 -57 233q-51 111 -132 193q-82 82 -193 132q-111 51 -233 58q-14 1 -24 12q-10 10 -10 24v82q0 16 11 27q10 10 26 10h1q150 -7 287 -69q137 -61 243 -168
q106 -106 168 -243t69 -287z" />
    <glyph glyph-name="uniF0A0" unicode="&#xf0a0;" horiz-adv-x="877" 
d="M594 183q0 -18 -13 -32q-13 -13 -32 -14q-18 0 -33 14q-13 13 -13 32q0 18 13 32q13 13 33 13q18 0 32 -13q13 -14 13 -32zM740 183q0 -18 -13 -32q-13 -13 -32 -14q-18 0 -32 14q-13 13 -14 32q0 18 14 32q13 13 32 13q18 0 32 -13q13 -14 13 -32zM805 91v183q0 7 -6 13
q-5 5 -13 6h-695q-7 0 -12 -6q-5 -5 -6 -13v-183q0 -7 6 -12q5 -5 12 -6h695q7 0 13 6q6 5 6 12zM101 366h675l-90 275q-2 7 -9 12t-14 5h-448q-8 0 -14 -5q-7 -5 -10 -12zM878 274v-183q0 -38 -27 -64q-27 -27 -65 -27h-695q-38 0 -64 27q-27 27 -27 64v183q0 14 9 43
l113 347q9 31 36 49t57 18h448q32 0 57 -18q27 -18 36 -49l112 -347q10 -29 10 -43z" />
    <glyph glyph-name="uniF0A1" unicode="&#xf0a1;" 
d="M951 512q31 0 51 -22q22 -22 22 -51q0 -31 -22 -52q-22 -22 -51 -21v-220q0 -30 -22 -51q-22 -22 -51 -22q-239 199 -464 217q-33 -11 -53 -37q-18 -27 -17 -57q1 -31 23 -54q-11 -18 -14 -38q-2 -18 4 -32q5 -14 19 -32q14 -16 27 -29q13 -11 36 -28q-16 -33 -64 -48
q-47 -14 -96 -6t-75 31q-4 13 -18 50q-13 37 -18 55q-5 17 -12 51q-8 34 -10 57q-1 24 2 56q3 33 13 64h-70q-38 0 -64 26q-27 27 -27 65v110q0 38 27 64q27 27 64 27h275q249 0 512 220q30 0 51 -22q22 -22 22 -52v-219zM878 167v545q-225 -173 -439 -196v-155
q216 -23 439 -194z" />
    <glyph glyph-name="uniF0A2" unicode="&#xf0a2;" horiz-adv-x="950" 
d="M484 -91q0 9 -9 9q-34 0 -57 24q-25 25 -25 58q0 9 -9 9t-9 -9q0 -42 29 -71q30 -30 71 -29q9 0 9 9zM104 73h742q-94 103 -140 235q-47 132 -48 277q0 146 -183 146t-182 -146q0 -145 -47 -277q-48 -132 -142 -235zM951 73q0 -30 -22 -51q-22 -22 -51 -22h-256
q0 -60 -43 -103t-104 -43q-60 0 -103 43t-43 103h-256q-30 0 -51 22q-22 22 -22 51q109 92 164 227t55 285q0 94 55 150q55 55 151 67q-4 10 -4 21q0 23 15 39q16 16 39 16t39 -16t16 -39q0 -11 -5 -21q96 -11 152 -67q55 -55 54 -150q0 -150 55 -285q56 -135 165 -227z" />
    <glyph glyph-name="uniF0A3" unicode="&#xf0a3;" horiz-adv-x="877" 
d="M786 366l79 -77q17 -16 12 -40q-7 -24 -30 -30l-108 -26l31 -107q7 -24 -11 -40q-16 -17 -40 -11l-107 31l-27 -108q-6 -23 -29 -30q-7 -1 -11 -1q-17 0 -29 13l-77 78l-78 -78q-16 -17 -39 -12q-24 6 -29 30l-28 108l-106 -31q-24 -7 -40 11q-17 16 -11 40l30 107
l-107 26q-23 6 -30 30q-6 24 11 40l79 77l-79 76q-17 16 -11 41q7 24 30 29l107 28l-30 106q-7 24 11 40q16 17 40 10l106 -29l28 107q6 24 29 29q24 7 39 -11l78 -79l77 79q16 17 40 11t29 -29l27 -107l107 29q24 7 40 -10q17 -16 11 -40l-31 -106l108 -28q23 -6 30 -29
q6 -24 -12 -41z" />
    <glyph glyph-name="uniF0A4" unicode="&#xf0a4;" 
d="M146 110q0 15 -11 25q-11 11 -25 11q-15 0 -26 -11t-11 -25q0 -15 11 -26t26 -11t25 11q11 11 11 26zM951 439q0 29 -22 51q-23 22 -51 22h-329q0 11 8 28q8 16 18 31t20 39q8 24 8 48q0 38 -25 56q-26 17 -66 17q-13 0 -51 -79q-13 -26 -22 -38q-23 -37 -63 -82
q-41 -46 -59 -61q-40 -33 -79 -32h-19v-366h19q41 0 95 -18t110 -37q56 -18 103 -18q108 0 108 95q0 15 -3 32q17 9 28 31q10 20 9 42q0 22 -10 39q31 29 31 68q0 14 -7 32q-6 17 -14 27h190q30 0 51 21q22 22 22 52zM1024 439q0 -60 -43 -103t-103 -43h-97q-2 -36 -21 -69
q2 -12 2 -24q0 -57 -35 -102q1 -80 -48 -126t-130 -45q-76 0 -183 39q-94 34 -128 34h-165q-31 0 -51 22q-22 22 -22 51v366q0 31 22 51q22 22 51 22h165q6 0 12 3t13 7q7 5 13 10t14 14l12 12t10 12q7 8 9 10q37 42 57 73q7 12 18 36t22 41q9 17 23 36q13 18 31 29
q18 10 40 10q72 0 118 -39q46 -38 47 -108q0 -39 -13 -73h214q59 0 103 -43q43 -45 43 -103z" />
    <glyph glyph-name="uniF0A5" unicode="&#xf0a5;" 
d="M786 73h19v366h-19q-20 0 -38 6t-36 22q-18 15 -28 26q-9 9 -29 31q-1 2 -2 2q-1 1 -2 3t-3 3q-41 46 -63 82q-8 12 -22 39q-1 2 -6 14q-5 11 -11 20q-5 9 -11 21q-6 11 -13 17q-6 6 -10 6q-41 0 -66 -17q-26 -17 -25 -56q0 -25 8 -48q9 -24 20 -39q10 -15 18 -31t8 -28
h-329q-29 0 -51 -22q-23 -22 -22 -51q0 -30 22 -52t51 -21h190q-8 -9 -14 -27q-6 -17 -7 -32q0 -40 31 -68q-10 -18 -10 -39q0 -22 9 -42q10 -20 28 -31q-2 -13 -2 -32q0 -48 27 -71q28 -24 77 -24q48 0 105 18q56 18 111 37q54 18 95 18zM951 110q0 15 -11 25
q-11 11 -26 11t-25 -11q-11 -11 -11 -25q0 -15 11 -26t25 -11q15 0 26 11t11 26zM1024 439v-366q0 -31 -22 -51q-22 -22 -51 -22h-165q-34 0 -128 -34q-109 -40 -180 -39q-81 0 -132 44q-50 44 -49 124v3q-35 43 -35 102q0 12 2 24q-18 33 -21 69h-97q-60 0 -103 43t-43 103
q0 58 43 103q43 43 103 43h214q-12 34 -13 73q0 70 47 108q46 38 118 39q22 0 40 -10t31 -29q13 -18 23 -36q9 -17 22 -41q11 -24 18 -36q20 -32 57 -73q1 -2 9 -10q7 -8 10 -12l12 -12l14 -14q6 -5 13 -10t13 -7q6 -3 12 -3h165q31 0 51 -22q22 -20 22 -51z" />
    <glyph glyph-name="uniF0A6" unicode="&#xf0a6;" horiz-adv-x="877" 
d="M731 -37q0 15 -10 26q-11 11 -26 11t-26 -11t-11 -26t11 -25q11 -11 26 -11t26 11q10 10 10 25zM805 400q0 108 -95 108q-15 0 -33 -3q-9 17 -30 27q-20 10 -42 11q-22 0 -40 -11q-29 31 -67 30q-14 0 -32 -5q-17 -6 -27 -14v188q0 30 -22 52t-51 22t-52 -23
q-22 -23 -21 -51v-329q-11 0 -28 9q-16 8 -32 19q-15 10 -38 19q-24 8 -49 8q-38 0 -56 -25q-17 -26 -17 -66q0 -13 80 -52q26 -13 36 -21q37 -23 83 -64t61 -58q33 -40 33 -80v-18h365v18q0 41 19 95q18 54 36 111q19 57 19 103zM878 402q0 -76 -39 -183q-34 -94 -34 -128
v-164q0 -31 -22 -52q-22 -22 -52 -21h-365q-31 0 -52 21q-22 22 -21 52v164q0 6 -3 12t-8 14q-5 7 -11 13q-5 6 -12 13q-8 8 -12 13q-4 4 -13 10q-8 7 -10 8q-42 37 -73 57q-12 7 -35 19q-24 11 -41 21q-17 9 -37 24q-18 13 -28 31t-10 40q0 72 38 117q38 46 108 47
q39 0 73 -12v213q0 59 44 104q43 43 103 43t103 -43t43 -104v-96q36 -2 68 -22q12 2 24 2q57 0 103 -33q80 1 124 -50q47 -49 47 -130z" />
    <glyph glyph-name="uniF0A7" unicode="&#xf0a7;" horiz-adv-x="877" 
d="M805 329q0 48 -19 105q-18 56 -36 111q-18 54 -19 95v18h-365v-18q0 -27 -15 -52q-14 -26 -29 -41t-41 -38q-5 -4 -9 -6q-46 -41 -83 -65q-12 -8 -38 -21q-2 -1 -13 -6t-20 -11q-9 -5 -21 -12q-11 -6 -17 -12t-7 -10q0 -41 17 -66q17 -26 56 -26q25 0 49 9q24 8 38 19
q15 10 32 19q16 8 28 8v-329q0 -29 21 -51q22 -23 52 -22q30 0 51 22q22 22 22 51v189q27 -20 59 -20q40 0 67 31q18 -10 40 -11q22 0 42 10t30 27q13 -2 33 -2q48 0 71 28q24 27 24 77zM731 768q0 15 -10 26q-11 11 -26 11t-26 -11t-11 -26t11 -26t26 -11t26 11
q10 11 10 26zM878 332q0 -81 -44 -132q-44 -50 -124 -49h-3q-43 -35 -103 -35q-12 0 -24 2q-31 -17 -68 -22v-96q0 -60 -43 -103t-103 -43q-58 0 -103 44q-43 43 -44 102v214q-31 -12 -73 -13q-70 0 -107 47q-39 46 -39 118q0 22 10 40t28 31t37 23q17 9 41 21q24 11 35 19
q32 20 73 57q2 1 10 8q8 6 13 10q4 4 12 13q8 8 12 13q5 6 11 13q5 7 8 14q3 6 3 12v165q0 31 21 51q22 22 52 22h365q31 0 52 -22q22 -22 22 -51v-165q0 -34 34 -127q39 -108 39 -181z" />
    <glyph glyph-name="uniF0A8" unicode="&#xf0a8;" horiz-adv-x="877" 
d="M731 329v73q0 15 -10 26q-11 11 -26 11h-287l108 108q11 11 11 25q0 15 -11 26l-52 52q-10 10 -26 10q-15 0 -25 -10l-207 -207l-52 -52q-10 -10 -11 -25q0 -15 11 -26l52 -52l207 -207q10 -10 25 -10t26 10l52 52q10 10 10 26q0 15 -10 25l-108 109h287q15 0 26 10
q10 11 10 26zM878 366q0 -120 -59 -221q-58 -100 -160 -159q-100 -58 -220 -59q-120 0 -221 59q-100 58 -160 159q-58 100 -58 221q0 120 58 220t160 159q100 58 221 60q120 0 220 -60q100 -58 160 -159q59 -100 59 -220z" />
    <glyph glyph-name="uniF0A9" unicode="&#xf0a9;" horiz-adv-x="877" 
d="M734 366q0 15 -10 25l-52 52l-207 207q-10 10 -26 10q-15 0 -25 -10l-53 -52q-10 -10 -10 -26q0 -15 10 -25l109 -108h-287q-15 0 -26 -11t-11 -26v-73q0 -15 11 -26t26 -10h287l-109 -109q-11 -11 -10 -25q0 -15 10 -26l53 -52q10 -10 25 -10t26 10l207 207l52 52
q10 11 10 26zM878 366q0 -120 -59 -221q-58 -100 -160 -159q-100 -58 -220 -59q-120 0 -221 59q-100 58 -160 159q-58 100 -58 221q0 120 58 220t160 159q100 58 221 60q120 0 220 -60q100 -58 160 -159q59 -100 59 -220z" />
    <glyph glyph-name="uniF0AA" unicode="&#xf0aa;" horiz-adv-x="877" 
d="M734 367q0 15 -11 25l-207 207l-51 52q-10 10 -26 11q-15 0 -26 -11l-52 -52l-206 -207q-10 -10 -11 -25q0 -15 11 -26l51 -52q10 -10 26 -10q15 0 26 10l108 107v-286q0 -15 11 -26t25 -11h73q15 0 26 11t11 26v286l108 -107q11 -11 26 -11t26 11l51 52q11 11 11 26z
M878 366q0 -120 -59 -221q-58 -100 -160 -159q-100 -58 -220 -59q-120 0 -221 59q-100 58 -160 159q-58 100 -58 221q0 120 58 220t160 159q100 58 221 60q120 0 220 -60q100 -58 160 -159q59 -100 59 -220z" />
    <glyph glyph-name="uniF0AB" unicode="&#xf0ab;" horiz-adv-x="877" 
d="M734 366q0 15 -11 25l-51 51q-10 10 -26 12q-15 0 -26 -12l-108 -107v287q0 15 -11 25q-11 11 -26 11h-73q-15 0 -25 -11q-11 -11 -11 -25v-287l-108 107q-11 11 -26 12q-15 0 -26 -12l-51 -51q-10 -10 -11 -25q0 -15 11 -27l206 -207l52 -51q10 -10 26 -10q15 0 26 10
l51 51l207 207q11 12 11 27zM878 366q0 -120 -59 -221q-58 -100 -160 -159q-100 -58 -220 -59q-120 0 -221 59q-100 58 -160 159q-58 100 -58 221q0 120 58 220t160 159q100 58 221 60q120 0 220 -60q100 -58 160 -159q59 -100 59 -220z" />
    <glyph glyph-name="uniF0AC" unicode="&#xf0ac;" horiz-adv-x="877" 
d="M682 567q6 4 14 13v0q0 -1 -6 -7q-5 -4 -6 -6h-2zM678 567l-1 1q-1 1 -1 2l6 -3q-4 -2 -4 0zM416 672q-9 1 -15 2h3q3 -1 7 -1q3 0 5 -1zM441 692q4 2 9 2q4 -1 4 -4q-4 1 -13 2zM437 689l-2 1q-1 2 -3 3l-2 1q1 -1 11 -2q-3 -2 -4 -3zM379 737v1q1 -1 2 -3t1 -3z
M318 715v-2l-1 2h1zM534 118v-1v1zM439 805q120 0 220 -60q100 -58 160 -159q58 -100 59 -220q0 -120 -59 -221q-58 -100 -160 -159q-100 -58 -220 -59q-120 0 -221 59q-100 58 -160 159q-58 100 -58 221q0 120 58 220t160 159q101 60 221 60zM709 92l3 3q-4 6 -17 7
q1 7 -8 16q-8 8 -15 8q0 2 -6 6t-11 5t-15 -5q-4 -2 -2 -3q-2 2 -7 6t-9 6q-1 1 -5 1q-3 0 -5 1l-3 3q-3 2 -4 2q-1 1 -4 3q-3 1 -4 1q-2 0 -4 -2q-3 -1 -5 -4q-2 -2 -2 -9q0 -6 -2 -8q-4 3 0 11t1 12q-4 4 -13 1q-8 -4 -12 -10q-1 -1 -5 -3q-5 -3 -6 -4q-2 -3 -5 -10
q-3 -6 -4 -7q0 1 -1 3q-1 3 -1 4q-7 -1 -10 1q3 -9 4 -9l-2 1q-1 -3 2 -8q2 -5 3 -7q1 -3 -1 -8q-1 -4 -2 -6q0 -1 3 -6q2 -11 -1 -18q0 -1 -3 -5q-2 -3 -3 -6l-1 -3l-2 1q-1 1 -1 0q-1 -3 -5 -7t-5 -6q-8 -13 -5 -23q2 -4 5 -5q2 -1 2 1q1 -5 -6 -15l2 -2q-9 0 -6 -8
q116 20 202 103h-2zM388 199q9 2 18 -10q8 -11 13 -13q24 -11 34 -6q0 -5 8 -16q2 -2 3 -7l3 -6q3 -4 11 -9t11 -9q3 2 6 5q7 -20 13 -19q3 0 5 4q0 -1 -1 -1q0 -1 -1 -2q4 8 3 15l4 2q3 2 2 3q-3 3 -5 -2q-17 -8 -27 12q-1 2 -3 5q-1 3 -3 7q-1 4 -1 7q1 3 4 2q6 0 8 1
q1 1 -3 4q-2 3 -2 4q-1 2 -1 7t-1 7l-2 3q-3 3 -7 9q-4 4 -4 5q-2 -6 -9 -5t-10 5q1 -1 -1 -3q-1 -3 -1 -4q-8 0 -10 1q1 3 2 11t2 13q1 3 4 7q3 5 4 10q2 4 3 8t-3 6q-3 2 -11 1q-11 -1 -16 -12q-1 -2 -2 -8q-1 -5 -3 -7t-5 -4q-4 -2 -16 -1q-11 1 -14 3q-8 4 -14 18
q-6 13 -6 23q0 6 2 17q2 10 2 15t-4 14q2 1 6 6t6 8q1 1 3 1h3l2 1l1 3l-2 2l-2 2q2 -2 11 -1q8 1 11 1q0 1 12 0q9 -7 14 1q0 1 -2 6q-1 5 0 8q3 -16 19 -5q2 -2 9 -4q8 -1 11 -2q2 -1 3 -4q2 -2 4 -2q1 -1 3 -1q2 1 5 4q6 -9 8 -15q6 -25 12 -26q4 -1 7 -2q3 0 2 6v9v7
l-2 22q-9 2 -11 7t1 11t9 12q1 1 10 4q9 4 12 7q13 11 10 22q5 -1 6 5l-3 2l-4 4q-2 1 -3 0q6 4 1 10q3 2 5 7t5 6q5 -8 12 -1q4 5 1 10q3 4 12 6t13 6q3 -1 3 0q1 1 2 3v4v5l2 4q2 3 9 6t8 3l11 7q2 2 0 2q10 -1 18 7q7 7 -3 13q1 4 -2 6t-9 3q2 1 7 0q5 0 6 1q8 6 -3 9
t-28 -7q-2 -1 -7 -7q-6 -6 -9 -6q8 10 2 13q4 -1 13 5q8 6 9 6q2 1 6 1t5 1q41 14 53 -1q4 6 6 10l5 5q4 3 9 4q12 4 13 5l1 13q-7 -1 -11 5q-3 5 -4 13l-3 -5q0 3 -2 5q-2 1 -4 0t-6 -1q-3 -1 -4 0q-5 1 -11 8q-6 8 -9 10q5 0 6 2q-1 3 -6 5q1 3 -2 4q-2 1 -5 0q-1 7 0 9
q-3 1 -6 6q-3 6 -5 5q-1 0 -2 -1l-3 -3l-3 -4l-2 -3l-1 -1q-7 3 -14 -7q-5 1 -10 -1q8 3 1 9q-6 3 -11 1q7 3 5 8q-1 5 -7 8h3l2 -1q-1 3 -5 6q-5 3 -11 5q-6 3 -9 3q-4 3 -20 6t-20 1q-3 -2 -5 -3q-1 -2 1 -5q1 -3 3 -5q3 -13 3 -15q-1 -2 -6 -4q-4 -3 -3 -7q1 -2 8 -7
q6 -3 7 -6q3 -7 -3 -14q-2 -3 -9 -6q-6 -3 -8 -6q-3 -3 -2 -7t0 -6q1 1 1 2t1 1q0 -7 6 -12q4 -3 -9 -10q-11 -6 -11 -3q1 4 -5 9q-5 4 -5 7q-1 2 -2 11q-1 8 -7 12q-3 2 -10 3q-7 0 -10 -3q0 6 -29 17q-9 4 -32 2q4 1 0 9q-4 9 -13 8q-4 14 -2 20q1 3 5 7q4 5 5 9q1 2 10 3
q8 2 9 6q1 2 -1 3l-6 3q31 -3 36 10q3 5 2 8q0 -1 1 -1t1 -1q7 2 4 10q11 4 15 4q3 -1 6 -3q3 -3 5 -3q9 -2 13 6q3 7 -5 14q4 -2 4 3q-1 7 -4 11q-2 1 -4 1h-4h-4q-1 0 -4 1q-1 -1 -2 0h-4q-2 -1 -2 -3v-1q-1 -2 2 -3h3l1 -2q-1 0 -1 -1l-1 -1q0 -2 1 -3q-1 -1 -8 -4
q-7 -4 -9 -6l-2 -2l-2 -1q-1 -1 -3 1q-1 2 -2 5t-3 7q-1 3 -3 5q-1 3 -3 3q-7 0 -10 -10q2 6 -7 10t-14 4q11 8 -6 18h-1q-17 -2 -25 -4q-1 -3 2 -7q-1 -4 3 -5q0 -1 1 -1v0v0l-1 1q2 -1 6 -1t5 -1q2 -1 3 -1l4 -3l3 -3l-1 -3q-1 -1 -5 -2q-4 -2 -7 -3t-4 -2q-2 -3 0 -10
q2 -6 -1 -8q-3 3 -5 11q-3 8 -5 10q4 -5 -18 -4l-4 1q-2 0 -9 -1q-6 -1 -8 -1q-4 0 -18 4q4 9 4 13q3 0 4 2l-3 1q-2 -1 -15 -5q1 -2 4 -5q3 -4 5 -6q-12 3 -15 -2q0 -1 -5 0q-14 1 -13 -3q1 -2 5 -8q0 -5 -1 -5q-15 12 -17 14q-98 -47 -158 -143q1 -1 2 -6t2 -5t6 3
q5 -5 2 -12q1 1 20 -12q32 -23 13 -30v3l1 4q-5 -1 -12 2q-2 -3 0 -11t8 -8q-4 0 -7 -10q-1 -9 -2 -22v-14h1q-2 -7 4 -22q5 -14 14 -12q-2 -10 3 -12q-1 -2 0 -5q1 -2 2 -5q2 -3 4 -3l4 -5l3 -3q16 -6 24 -16q2 -3 6 -15q4 -10 8 -14q-1 -3 6 -12t6 -15q-1 0 -1 -1h-2
q2 -4 10 -9q8 -4 10 -8q1 -2 1 -6t2 -6q1 -3 4 -2q2 13 -14 38q-9 15 -11 19q-2 3 -3 9t-3 8q15 -5 16 -7q-3 -6 14 -30q1 -2 6 -5q4 -4 6 -7q2 -2 5 -8q4 -6 7 -9q-1 0 -2 -1l-2 -2q2 -1 6 -2q3 -2 4 -3q2 -1 5 -4q3 -2 4 -4q9 -10 11 -18q1 -2 0 -9q0 -6 1 -10q1 -3 3 -6
t7 -6q4 -3 7 -4q2 -1 8 -3q6 -3 7 -4t10 -6q9 -6 14 -7q6 -2 10 -3q4 0 9 1q5 2 8 3z" />
    <glyph glyph-name="uniF0AD" unicode="&#xf0ad;" horiz-adv-x="950" 
d="M219 37q0 15 -10 25q-11 11 -26 11t-26 -11t-11 -25q0 -15 11 -26t26 -11t26 11q10 11 10 26zM588 276l-390 -389q-22 -22 -52 -21q-30 0 -52 21l-60 62q-22 20 -22 51t22 52l389 389q23 -56 65 -99q44 -43 100 -66zM949 525q0 -23 -12 -60q-27 -77 -94 -125
q-68 -48 -148 -47q-105 0 -181 75q-75 75 -75 181q0 105 75 180t181 76q33 0 69 -9t61 -27q9 -6 10 -16q0 -9 -10 -17l-167 -96v-128l111 -61q3 2 45 27q42 26 77 47q35 20 41 20q8 0 13 -5q4 -7 4 -15z" />
    <glyph glyph-name="uniF0AE" unicode="&#xf0ae;" 
d="M585 73h366v73h-366v-73zM366 366h585v73h-585v-73zM731 658h220v73h-220v-73zM1024 183v-146q0 -15 -11 -26t-26 -11h-950q-15 0 -26 11t-11 26v146q0 15 11 26t26 10h950q15 0 26 -10q11 -11 11 -26zM1024 475v-146q0 -15 -11 -26t-26 -10h-950q-15 0 -26 10
q-11 11 -11 26v146q0 15 11 26t26 11h950q15 0 26 -11t11 -26zM1024 768v-146q0 -15 -11 -26t-26 -11h-950q-15 0 -26 11t-11 26v146q0 15 11 26t26 11h950q15 0 26 -11t11 -26z" />
    <glyph glyph-name="uniF0B0" unicode="&#xf0b0;" horiz-adv-x="803" 
d="M802 710q9 -24 -8 -41l-282 -282v-424q0 -24 -23 -34q-7 -3 -14 -2q-15 0 -25 11l-147 146q-11 11 -10 26v277l-282 282q-17 16 -8 41q9 23 34 21h731q25 2 34 -21z" />
    <glyph glyph-name="uniF0B1" unicode="&#xf0b1;" 
d="M366 658h292v73h-292v-73zM1024 293v-275q0 -38 -27 -64q-27 -27 -64 -27h-842q-38 0 -64 27q-27 27 -27 64v275h384v-92q0 -15 11 -26t26 -10h182q15 0 26 10q11 11 11 26v92h384zM585 293v-74h-146v74h146zM1024 567v-220h-1024v220q0 38 27 65t64 26h202v92
q0 23 15 38q16 16 39 17h330q23 0 39 -17q16 -16 15 -38v-92h202q38 0 64 -26q27 -27 27 -65z" />
    <glyph glyph-name="uniF0B2" unicode="&#xf0b2;" horiz-adv-x="877" 
d="M733 568l-203 -202l203 -203l82 82q16 17 40 8q23 -9 23 -34v-256q0 -15 -11 -25q-11 -11 -26 -11h-256q-24 0 -33 23t7 39l83 83l-203 202l-203 -202l82 -83q17 -17 9 -39q-9 -23 -34 -23h-256q-15 0 -26 11t-11 25v256q0 24 23 34q23 9 39 -8l82 -82l203 203l-203 202
l-82 -82q-11 -11 -25 -11q-7 0 -14 3q-23 9 -23 34v256q0 15 11 26t26 11h256q24 0 34 -24q9 -23 -9 -39l-82 -82l203 -203l203 203l-83 82q-17 17 -7 39q9 23 33 24h256q15 0 26 -11t11 -26v-256q0 -24 -23 -34q-7 -3 -14 -3q-15 0 -26 11z" />
    <glyph glyph-name="uniF0C0" unicode="&#xf0c0;" horiz-adv-x="1096" 
d="M339 366q-92 -3 -152 -73h-76q-47 0 -79 22q-32 24 -32 68q0 202 71 202q3 0 24 -12q22 -12 57 -24q34 -12 67 -12q38 0 77 13q-3 -22 -3 -38q0 -79 46 -146zM951 2q0 -69 -42 -108q-42 -40 -110 -40h-500q-70 0 -111 40q-42 40 -42 108q0 31 2 58q2 29 9 63q6 34 14 62
q9 29 25 56q15 28 35 46q20 19 50 30q29 11 63 12q6 0 25 -13q18 -12 42 -26q23 -15 60 -28q38 -12 78 -12q39 0 77 12t61 28q23 15 41 26q18 12 25 13q35 0 64 -12q29 -11 48 -30q20 -19 36 -46q15 -28 25 -56q9 -29 15 -62q6 -34 8 -63q2 -27 2 -58zM366 731
q0 -60 -43 -103t-104 -43q-60 0 -103 43t-43 103t43 104q43 43 103 43t104 -43q43 -44 43 -104zM768 512q0 -91 -65 -156t-154 -63q-91 0 -156 63q-65 65 -64 156q0 91 64 156q65 65 156 63q91 0 154 -63q65 -65 65 -156zM1097 383q0 -45 -32 -68q-32 -24 -79 -22h-77
q-58 71 -150 73q46 67 46 146q0 16 -3 38q38 -13 76 -13q34 0 68 12t55 24q22 12 25 12q71 0 71 -202zM1024 731q0 -60 -43 -103t-103 -43t-104 43q-43 43 -43 103t43 104q43 43 104 43q60 0 103 -43q43 -44 43 -104z" />
    <glyph glyph-name="uniF0C1" unicode="&#xf0c1;" horiz-adv-x="950" 
d="M831 183q0 23 -15 39l-119 119q-16 16 -39 15q-24 0 -41 -18q2 -2 11 -10q9 -9 12 -13q3 -3 9 -11q5 -7 7 -14t2 -16q0 -23 -16 -38q-16 -16 -39 -17q-8 0 -15 2t-15 7q-7 5 -11 10l-12 12l-10 10q-18 -17 -20 -41q0 -23 17 -39l117 -119q15 -15 39 -15q23 0 39 15l84 83
q15 16 15 39zM430 586q0 23 -15 39l-118 117q-16 16 -39 17q-23 0 -39 -16l-84 -83q-16 -16 -16 -38q0 -23 16 -39l119 -119q15 -15 39 -15t41 17l-11 11t-13 12q-3 3 -8 11q-5 7 -7 15q-2 7 -2 15q0 23 15 39q16 16 39 16q8 0 17 -2q7 -2 14 -8q7 -5 10 -8l12 -12t12 -11
q18 18 18 42zM942 183q0 -69 -49 -116l-84 -83q-47 -47 -116 -47q-70 0 -116 48l-118 117q-47 47 -47 117q0 71 50 119l-50 50q-49 -50 -119 -50q-69 0 -117 48l-119 119q-48 48 -48 117t48 115l84 84q47 47 117 47t117 -48l117 -119q47 -47 48 -115q0 -71 -51 -120l51 -50
q49 50 118 50t117 -48l119 -119q48 -47 48 -116z" />
    </font>
</defs>
</svg>
